STARTFONT 2.1
COMMENT
COMMENT Converted from OpenType font "montserrat_regular.ttf" by "otf2bdf 3.0".
COMMENT
FONT -FreeType-Montserrat Thin-Medium-R-Normal--19-140-100-100-P-97-ISO10646-1
SIZE 14 100 100
FONTBOUNDINGBOX 33 25 -3 -5
STARTPROPERTIES 19
FOUNDRY "FreeType"
FAMILY_NAME "Montserrat Thin"
WEIGHT_NAME "Medium"
SLANT "R"
SETWIDTH_NAME "Normal"
ADD_STYLE_NAME ""
PIXEL_SIZE 19
POINT_SIZE 140
RESOLUTION_X 100
RESOLUTION_Y 100
SPACING "P"
AVERAGE_WIDTH 97
CHARSET_REGISTRY "ISO10646"
CHARSET_ENCODING "1"
FONT_ASCENT 18
FONT_DESCENT 4
COPYRIGHT "Copyright 2011 The Montserrat Project Authors (https://github.com/JulietaUla/Montserrat)"
_OTF_FONTFILE "montserrat_regular.ttf"
_OTF_PSNAME "Montserrat-Thin"
ENDPROPERTIES
CHARS 969
STARTCHAR 0000
ENCODING 0
SWIDTH 0 0
DWIDTH 0 0
BBX 0 0 0 0
BITMAP
ENDCHAR
STARTCHAR 000D
ENCODING 13
SWIDTH 205 0
DWIDTH 4 0
BBX 0 0 0 0
BITMAP
ENDCHAR
STARTCHAR 0020
ENCODING 32
SWIDTH 205 0
DWIDTH 4 0
BBX 0 0 0 0
BITMAP
ENDCHAR
STARTCHAR 0021
ENCODING 33
SWIDTH 205 0
DWIDTH 4 0
BBX 1 14 2 0
BITMAP
80
80
80
80
80
80
80
80
80
00
00
00
00
80
ENDCHAR
STARTCHAR 0022
ENCODING 34
SWIDTH 308 0
DWIDTH 6 0
BBX 3 3 2 10
BITMAP
A0
A0
A0
ENDCHAR
STARTCHAR 0023
ENCODING 35
SWIDTH 668 0
DWIDTH 13 0
BBX 12 13 1 1
BITMAP
1080
1080
1080
FFF0
2080
2100
2100
2100
2100
7FC0
2100
2100
2100
ENDCHAR
STARTCHAR 0024
ENCODING 36
SWIDTH 565 0
DWIDTH 11 0
BBX 10 16 1 -1
BITMAP
0800
1E00
6980
8800
8800
8800
8800
6800
1600
0980
0880
0840
0880
8880
6900
1E00
ENDCHAR
STARTCHAR 0025
ENCODING 37
SWIDTH 771 0
DWIDTH 15 0
BBX 14 14 1 0
BITMAP
3010
C820
8440
8440
8480
8500
8A00
72F8
0488
0904
0904
1108
2088
2070
ENDCHAR
STARTCHAR 0026
ENCODING 38
SWIDTH 617 0
DWIDTH 12 0
BBX 11 14 1 0
BITMAP
0C00
3200
4100
4200
2200
2400
1800
2800
C400
8240
8140
8080
8140
7E20
ENDCHAR
STARTCHAR 0027
ENCODING 39
SWIDTH 154 0
DWIDTH 3 0
BBX 1 3 1 10
BITMAP
80
80
80
ENDCHAR
STARTCHAR 0028
ENCODING 40
SWIDTH 308 0
DWIDTH 6 0
BBX 3 17 2 -3
BITMAP
40
40
80
80
80
80
80
80
80
80
80
80
80
40
40
40
20
ENDCHAR
STARTCHAR 0029
ENCODING 41
SWIDTH 308 0
DWIDTH 6 0
BBX 3 17 1 -3
BITMAP
80
40
40
40
40
20
20
20
20
20
40
40
40
40
40
80
80
ENDCHAR
STARTCHAR 002A
ENCODING 42
SWIDTH 308 0
DWIDTH 6 0
BBX 4 6 2 8
BITMAP
40
50
E0
E0
40
40
ENDCHAR
STARTCHAR 002B
ENCODING 43
SWIDTH 514 0
DWIDTH 10 0
BBX 6 8 2 3
BITMAP
10
10
10
10
FC
10
10
10
ENDCHAR
STARTCHAR 002C
ENCODING 44
SWIDTH 154 0
DWIDTH 3 0
BBX 1 4 1 -3
BITMAP
80
80
80
80
ENDCHAR
STARTCHAR 002D
ENCODING 45
SWIDTH 360 0
DWIDTH 7 0
BBX 3 1 2 5
BITMAP
E0
ENDCHAR
STARTCHAR 002E
ENCODING 46
SWIDTH 154 0
DWIDTH 3 0
BBX 1 1 1 0
BITMAP
80
ENDCHAR
STARTCHAR 002F
ENCODING 47
SWIDTH 257 0
DWIDTH 5 0
BBX 6 16 0 -1
BITMAP
04
08
08
08
10
10
10
20
20
20
40
40
40
80
80
80
ENDCHAR
STARTCHAR 0030
ENCODING 48
SWIDTH 617 0
DWIDTH 12 0
BBX 11 14 1 0
BITMAP
0E00
3100
4080
8040
8040
8040
8020
8020
8040
8040
8040
4040
4080
3F00
ENDCHAR
STARTCHAR 0031
ENCODING 49
SWIDTH 308 0
DWIDTH 6 0
BBX 4 13 0 0
BITMAP
F0
10
10
10
10
10
10
10
10
10
10
10
10
ENDCHAR
STARTCHAR 0032
ENCODING 50
SWIDTH 514 0
DWIDTH 10 0
BBX 8 14 1 0
BITMAP
3C
C2
01
01
01
01
02
04
04
08
10
20
40
FF
ENDCHAR
STARTCHAR 0033
ENCODING 51
SWIDTH 514 0
DWIDTH 10 0
BBX 10 14 0 0
BITMAP
7F80
0100
0100
0200
0400
0800
0800
0700
0080
0080
0040
0080
8080
7F00
ENDCHAR
STARTCHAR 0034
ENCODING 52
SWIDTH 617 0
DWIDTH 12 0
BBX 10 13 1 0
BITMAP
0100
0200
0400
0800
0800
1000
2000
4100
8100
8100
7FC0
0100
0100
ENDCHAR
STARTCHAR 0035
ENCODING 53
SWIDTH 514 0
DWIDTH 10 0
BBX 9 14 1 0
BITMAP
7F00
8000
8000
8000
8000
8000
7C00
0300
0100
0080
0080
0080
8100
7E00
ENDCHAR
STARTCHAR 0036
ENCODING 54
SWIDTH 565 0
DWIDTH 11 0
BBX 10 14 1 0
BITMAP
0F00
3000
4000
8000
8000
8000
9E00
E180
C080
8040
8040
8040
4080
3F00
ENDCHAR
STARTCHAR 0037
ENCODING 55
SWIDTH 565 0
DWIDTH 11 0
BBX 9 13 1 0
BITMAP
FF80
8080
8100
0100
0200
0200
0400
0400
0400
0800
0800
1000
1000
ENDCHAR
STARTCHAR 0038
ENCODING 56
SWIDTH 617 0
DWIDTH 12 0
BBX 10 14 1 0
BITMAP
1E00
6180
8080
8040
8080
4080
2100
3F00
C0C0
8040
8040
8040
8080
7F00
ENDCHAR
STARTCHAR 0039
ENCODING 57
SWIDTH 565 0
DWIDTH 11 0
BBX 9 14 1 0
BITMAP
1C00
E200
8100
8080
8080
8080
8180
4280
3C80
0080
0080
0100
0100
7E00
ENDCHAR
STARTCHAR 003A
ENCODING 58
SWIDTH 154 0
DWIDTH 3 0
BBX 1 10 1 0
BITMAP
80
00
00
00
00
00
00
00
00
80
ENDCHAR
STARTCHAR 003B
ENCODING 59
SWIDTH 154 0
DWIDTH 3 0
BBX 1 13 1 -3
BITMAP
80
00
00
00
00
00
00
00
00
80
80
80
80
ENDCHAR
STARTCHAR 003C
ENCODING 60
SWIDTH 514 0
DWIDTH 10 0
BBX 6 7 2 3
BITMAP
04
18
60
80
60
18
04
ENDCHAR
STARTCHAR 003D
ENCODING 61
SWIDTH 514 0
DWIDTH 10 0
BBX 8 5 1 4
BITMAP
7E
00
00
00
FF
ENDCHAR
STARTCHAR 003E
ENCODING 62
SWIDTH 514 0
DWIDTH 10 0
BBX 8 7 1 3
BITMAP
40
38
06
01
06
38
C0
ENDCHAR
STARTCHAR 003F
ENCODING 63
SWIDTH 514 0
DWIDTH 10 0
BBX 8 14 1 0
BITMAP
38
C6
01
01
01
01
02
04
08
00
00
00
00
08
ENDCHAR
STARTCHAR 0040
ENCODING 64
SWIDTH 1028 0
DWIDTH 20 0
BBX 18 18 1 -4
BITMAP
01E000
0E1C00
300200
400100
43E480
841C80
880440
880440
900440
900440
880440
880440
841C80
432480
40C300
200000
180000
07F000
ENDCHAR
STARTCHAR 0041
ENCODING 65
SWIDTH 668 0
DWIDTH 13 0
BBX 13 14 0 0
BITMAP
0200
0600
0500
0900
0880
0880
1040
1040
2020
2020
5FD0
4010
8008
8000
ENDCHAR
STARTCHAR 0042
ENCODING 66
SWIDTH 720 0
DWIDTH 14 0
BBX 10 14 3 0
BITMAP
FC00
8380
8080
8040
8080
8080
8100
FF80
8040
8040
8040
8040
8040
FF80
ENDCHAR
STARTCHAR 0043
ENCODING 67
SWIDTH 668 0
DWIDTH 13 0
BBX 12 14 1 0
BITMAP
0780
1860
2000
4000
8000
8000
8000
8000
8000
8000
8000
4000
2010
1FE0
ENDCHAR
STARTCHAR 0044
ENCODING 68
SWIDTH 822 0
DWIDTH 16 0
BBX 12 14 3 0
BITMAP
FC00
8380
8040
8020
8020
8010
8010
8010
8010
8010
8020
8040
8080
FF00
ENDCHAR
STARTCHAR 0045
ENCODING 69
SWIDTH 617 0
DWIDTH 12 0
BBX 8 14 3 0
BITMAP
FF
80
80
80
80
80
80
FC
80
80
80
80
80
FF
ENDCHAR
STARTCHAR 0046
ENCODING 70
SWIDTH 617 0
DWIDTH 12 0
BBX 8 13 3 0
BITMAP
FF
80
80
80
80
80
80
FE
80
80
80
80
80
ENDCHAR
STARTCHAR 0047
ENCODING 71
SWIDTH 771 0
DWIDTH 15 0
BBX 12 14 1 0
BITMAP
0380
1C60
2000
4000
8000
8000
8000
8010
8010
8010
8010
4010
2010
1FE0
ENDCHAR
STARTCHAR 0048
ENCODING 72
SWIDTH 771 0
DWIDTH 15 0
BBX 10 12 3 1
BITMAP
8040
8040
8040
8040
8040
8040
FFC0
8040
8040
8040
8040
8040
ENDCHAR
STARTCHAR 0049
ENCODING 73
SWIDTH 257 0
DWIDTH 5 0
BBX 1 12 2 1
BITMAP
80
80
80
80
80
80
80
80
80
80
80
80
ENDCHAR
STARTCHAR 004A
ENCODING 74
SWIDTH 462 0
DWIDTH 9 0
BBX 7 14 0 0
BITMAP
7E
02
02
02
02
02
02
02
02
02
02
02
84
7C
ENDCHAR
STARTCHAR 004B
ENCODING 75
SWIDTH 668 0
DWIDTH 13 0
BBX 10 14 3 0
BITMAP
0040
8080
8100
8200
8400
8800
9000
B000
C800
8400
8200
8100
8080
0040
ENDCHAR
STARTCHAR 004C
ENCODING 76
SWIDTH 565 0
DWIDTH 11 0
BBX 7 13 3 1
BITMAP
80
80
80
80
80
80
80
80
80
80
80
80
7E
ENDCHAR
STARTCHAR 004D
ENCODING 77
SWIDTH 925 0
DWIDTH 18 0
BBX 13 12 3 1
BITMAP
8018
8018
C028
C028
A048
A048
9088
8908
8908
8608
8208
8008
ENDCHAR
STARTCHAR 004E
ENCODING 78
SWIDTH 771 0
DWIDTH 15 0
BBX 10 13 3 1
BITMAP
8040
C040
C040
A040
9040
8840
8840
8440
8240
8140
80C0
80C0
0040
ENDCHAR
STARTCHAR 004F
ENCODING 79
SWIDTH 822 0
DWIDTH 16 0
BBX 14 14 1 0
BITMAP
0780
1860
6010
4008
8004
8004
8004
8004
8004
8004
8008
4008
2010
1FE0
ENDCHAR
STARTCHAR 0050
ENCODING 80
SWIDTH 668 0
DWIDTH 13 0
BBX 10 13 3 0
BITMAP
FC00
8300
8080
8080
8040
8080
8080
8080
8100
FE00
8000
8000
8000
ENDCHAR
STARTCHAR 0051
ENCODING 81
SWIDTH 822 0
DWIDTH 16 0
BBX 14 16 1 -2
BITMAP
0780
1860
2010
4008
8004
8004
8004
8004
8004
8004
8008
4008
2010
1860
0780
00FC
ENDCHAR
STARTCHAR 0052
ENCODING 82
SWIDTH 668 0
DWIDTH 13 0
BBX 10 13 3 0
BITMAP
FC00
8300
8080
8080
8040
8080
8080
8080
8100
FE00
8200
8100
8080
ENDCHAR
STARTCHAR 0053
ENCODING 83
SWIDTH 565 0
DWIDTH 11 0
BBX 10 14 1 0
BITMAP
1E00
6180
8000
8000
8000
8000
6000
1E00
0180
0080
0040
0080
8080
7F00
ENDCHAR
STARTCHAR 0054
ENCODING 84
SWIDTH 514 0
DWIDTH 10 0
BBX 11 14 0 0
BITMAP
FFE0
0400
0400
0400
0400
0400
0400
0400
0400
0400
0400
0400
0400
0400
ENDCHAR
STARTCHAR 0055
ENCODING 85
SWIDTH 771 0
DWIDTH 15 0
BBX 11 14 2 0
BITMAP
8000
8020
8020
8020
8020
8020
8020
8020
8020
8020
8020
4040
4040
3F80
ENDCHAR
STARTCHAR 0056
ENCODING 86
SWIDTH 668 0
DWIDTH 13 0
BBX 13 14 0 0
BITMAP
8008
8010
4010
4020
4020
2020
2040
1040
1080
0880
0900
0500
0600
0200
ENDCHAR
STARTCHAR 0057
ENCODING 87
SWIDTH 1080 0
DWIDTH 21 0
BBX 19 14 1 0
BITMAP
004000
80C020
80C040
80A040
412040
412080
411080
221080
220900
240900
140900
140600
180600
080200
ENDCHAR
STARTCHAR 0058
ENCODING 88
SWIDTH 617 0
DWIDTH 12 0
BBX 10 13 1 1
BITMAP
80C0
4080
2100
2200
1400
0C00
0C00
1400
2200
2100
4080
8080
0040
ENDCHAR
STARTCHAR 0059
ENCODING 89
SWIDTH 565 0
DWIDTH 11 0
BBX 12 13 0 0
BITMAP
8010
8020
4040
2040
2080
1080
1100
0A00
0600
0400
0400
0400
0400
ENDCHAR
STARTCHAR 005A
ENCODING 90
SWIDTH 617 0
DWIDTH 12 0
BBX 10 14 1 0
BITMAP
FFC0
0040
0080
0100
0100
0200
0400
0800
1000
1000
2000
4000
8000
FFC0
ENDCHAR
STARTCHAR 005B
ENCODING 91
SWIDTH 257 0
DWIDTH 5 0
BBX 2 18 3 -4
BITMAP
80
80
80
80
80
80
80
80
80
80
80
80
80
80
80
80
80
C0
ENDCHAR
STARTCHAR 005C
ENCODING 92
SWIDTH 257 0
DWIDTH 5 0
BBX 7 16 -1 -1
BITMAP
80
40
40
20
20
20
10
10
10
08
08
08
04
04
04
02
ENDCHAR
STARTCHAR 005D
ENCODING 93
SWIDTH 257 0
DWIDTH 5 0
BBX 3 18 0 -4
BITMAP
60
20
20
20
20
20
20
20
20
20
20
20
20
20
20
20
20
E0
ENDCHAR
STARTCHAR 005E
ENCODING 94
SWIDTH 514 0
DWIDTH 10 0
BBX 7 8 2 3
BITMAP
10
30
28
48
48
84
84
82
ENDCHAR
STARTCHAR 005F
ENCODING 95
SWIDTH 462 0
DWIDTH 9 0
BBX 8 1 1 -1
BITMAP
FF
ENDCHAR
STARTCHAR 0060
ENCODING 96
SWIDTH 565 0
DWIDTH 11 0
BBX 2 2 4 12
BITMAP
80
40
ENDCHAR
STARTCHAR 0061
ENCODING 97
SWIDTH 565 0
DWIDTH 11 0
BBX 8 10 1 0
BITMAP
3E
01
01
01
01
FF
81
81
83
7C
ENDCHAR
STARTCHAR 0062
ENCODING 98
SWIDTH 668 0
DWIDTH 13 0
BBX 10 14 2 0
BITMAP
8000
8000
8000
8000
9F00
E080
8080
8040
8040
8040
8040
8080
C080
BF00
ENDCHAR
STARTCHAR 0063
ENCODING 99
SWIDTH 514 0
DWIDTH 10 0
BBX 9 10 1 0
BITMAP
3E00
4180
8000
8000
8000
8000
8000
8000
4080
3F00
ENDCHAR
STARTCHAR 0064
ENCODING 100
SWIDTH 668 0
DWIDTH 13 0
BBX 10 14 1 0
BITMAP
0040
0040
0040
0040
3E40
41C0
8040
8040
8040
8040
8040
8040
41C0
3E40
ENDCHAR
STARTCHAR 0065
ENCODING 101
SWIDTH 565 0
DWIDTH 11 0
BBX 9 10 1 0
BITMAP
3E00
4100
8080
8080
8000
FF80
8000
8000
4080
3F00
ENDCHAR
STARTCHAR 0066
ENCODING 102
SWIDTH 308 0
DWIDTH 6 0
BBX 6 14 1 0
BITMAP
7C
40
40
40
F0
40
40
40
40
40
40
40
40
40
ENDCHAR
STARTCHAR 0067
ENCODING 103
SWIDTH 668 0
DWIDTH 13 0
BBX 10 14 1 -4
BITMAP
3E00
41C0
80C0
8040
8040
8040
8040
80C0
4140
3E40
0040
0040
4080
3F00
ENDCHAR
STARTCHAR 0068
ENCODING 104
SWIDTH 617 0
DWIDTH 12 0
BBX 9 14 2 0
BITMAP
8000
8000
8000
8000
BE00
C100
8080
8080
8080
8080
8080
8080
8080
8080
ENDCHAR
STARTCHAR 0069
ENCODING 105
SWIDTH 205 0
DWIDTH 4 0
BBX 1 14 2 0
BITMAP
80
00
00
00
80
80
80
80
80
80
80
80
80
80
ENDCHAR
STARTCHAR 006A
ENCODING 106
SWIDTH 205 0
DWIDTH 4 0
BBX 4 18 -1 -4
BITMAP
10
00
00
00
10
10
10
10
10
10
10
10
10
10
10
10
10
E0
ENDCHAR
STARTCHAR 006B
ENCODING 107
SWIDTH 565 0
DWIDTH 11 0
BBX 8 14 2 0
BITMAP
80
80
80
80
81
82
8C
90
B0
C8
84
82
81
81
ENDCHAR
STARTCHAR 006C
ENCODING 108
SWIDTH 205 0
DWIDTH 4 0
BBX 1 14 2 0
BITMAP
80
80
80
80
80
80
80
80
80
80
80
80
80
80
ENDCHAR
STARTCHAR 006D
ENCODING 109
SWIDTH 1028 0
DWIDTH 20 0
BBX 17 10 2 0
BITMAP
BE3E00
C14100
818100
808080
808080
808080
808080
808080
808080
808080
ENDCHAR
STARTCHAR 006E
ENCODING 110
SWIDTH 617 0
DWIDTH 12 0
BBX 9 10 2 0
BITMAP
BE00
C100
8080
8080
8080
8080
8080
8080
8080
8080
ENDCHAR
STARTCHAR 006F
ENCODING 111
SWIDTH 565 0
DWIDTH 11 0
BBX 10 10 1 0
BITMAP
3E00
4180
8080
8040
8040
8040
8040
8080
4080
3F00
ENDCHAR
STARTCHAR 0070
ENCODING 112
SWIDTH 668 0
DWIDTH 13 0
BBX 10 14 2 -4
BITMAP
9F00
E080
8080
8040
8040
8040
8040
8080
C080
B300
8C00
8000
8000
8000
ENDCHAR
STARTCHAR 0071
ENCODING 113
SWIDTH 668 0
DWIDTH 13 0
BBX 10 14 1 -4
BITMAP
3E40
41C0
8040
8040
8040
8040
8040
8040
41C0
3240
0C40
0040
0040
0040
ENDCHAR
STARTCHAR 0072
ENCODING 114
SWIDTH 360 0
DWIDTH 7 0
BBX 4 10 2 0
BITMAP
B0
C0
80
80
80
80
80
80
80
80
ENDCHAR
STARTCHAR 0073
ENCODING 115
SWIDTH 462 0
DWIDTH 9 0
BBX 7 10 1 0
BITMAP
7C
80
80
80
40
3C
02
02
02
7C
ENDCHAR
STARTCHAR 0074
ENCODING 116
SWIDTH 360 0
DWIDTH 7 0
BBX 6 12 1 0
BITMAP
40
40
F0
40
40
40
40
40
40
40
40
3C
ENDCHAR
STARTCHAR 0075
ENCODING 117
SWIDTH 617 0
DWIDTH 12 0
BBX 9 10 2 0
BITMAP
8080
8080
8080
8080
8080
8080
8080
8080
8180
7E80
ENDCHAR
STARTCHAR 0076
ENCODING 118
SWIDTH 462 0
DWIDTH 9 0
BBX 9 10 0 0
BITMAP
8000
8080
4080
4100
2100
2200
1200
1400
1400
0800
ENDCHAR
STARTCHAR 0077
ENCODING 119
SWIDTH 822 0
DWIDTH 16 0
BBX 16 10 0 0
BITMAP
8081
8182
4282
4242
4244
2444
2424
2828
1818
0810
ENDCHAR
STARTCHAR 0078
ENCODING 120
SWIDTH 462 0
DWIDTH 9 0
BBX 8 10 1 0
BITMAP
80
82
44
28
10
18
28
44
82
01
ENDCHAR
STARTCHAR 0079
ENCODING 121
SWIDTH 462 0
DWIDTH 9 0
BBX 9 14 0 -4
BITMAP
8000
8080
4080
4100
2100
2200
1200
1400
1400
0800
0800
1000
1000
E000
ENDCHAR
STARTCHAR 007A
ENCODING 122
SWIDTH 462 0
DWIDTH 9 0
BBX 7 10 1 0
BITMAP
7E
02
04
08
10
10
20
40
80
FE
ENDCHAR
STARTCHAR 007B
ENCODING 123
SWIDTH 257 0
DWIDTH 5 0
BBX 4 18 1 -4
BITMAP
20
40
40
40
40
40
40
40
C0
40
40
40
40
40
40
40
40
30
ENDCHAR
STARTCHAR 007C
ENCODING 124
SWIDTH 257 0
DWIDTH 5 0
BBX 1 16 2 -3
BITMAP
80
80
80
80
80
80
80
80
80
80
80
80
80
80
80
80
ENDCHAR
STARTCHAR 007D
ENCODING 125
SWIDTH 257 0
DWIDTH 5 0
BBX 5 18 0 -4
BITMAP
60
20
20
20
20
20
20
20
18
20
20
20
20
20
20
20
20
C0
ENDCHAR
STARTCHAR 007E
ENCODING 126
SWIDTH 514 0
DWIDTH 10 0
BBX 8 2 1 6
BITMAP
70
8F
ENDCHAR
STARTCHAR 00A0
ENCODING 160
SWIDTH 205 0
DWIDTH 4 0
BBX 0 0 0 0
BITMAP
ENDCHAR
STARTCHAR 00A1
ENCODING 161
SWIDTH 205 0
DWIDTH 4 0
BBX 1 13 2 -3
BITMAP
80
00
00
00
00
80
80
80
80
80
80
80
80
ENDCHAR
STARTCHAR 00A2
ENCODING 162
SWIDTH 514 0
DWIDTH 10 0
BBX 9 12 1 -1
BITMAP
0800
3E00
4980
8800
8800
8800
8800
8800
8800
4880
3B00
0C00
ENDCHAR
STARTCHAR 00A3
ENCODING 163
SWIDTH 617 0
DWIDTH 12 0
BBX 10 14 2 0
BITMAP
0E00
31C0
4000
8000
8000
8000
8000
FC00
8000
8000
8000
8000
8000
FF00
ENDCHAR
STARTCHAR 00A4
ENCODING 164
SWIDTH 668 0
DWIDTH 13 0
BBX 12 12 1 0
BITMAP
8020
7FC0
4040
8020
8020
8020
8020
8020
4020
4040
B1A0
0E10
ENDCHAR
STARTCHAR 00A5
ENCODING 165
SWIDTH 668 0
DWIDTH 13 0
BBX 13 14 0 0
BITMAP
8008
4010
4020
2040
1040
0880
0900
0600
1BC0
0200
0200
1FC0
0200
0200
ENDCHAR
STARTCHAR 00A6
ENCODING 166
SWIDTH 257 0
DWIDTH 5 0
BBX 1 16 2 -3
BITMAP
80
80
80
80
00
00
00
00
00
00
00
80
80
80
80
80
ENDCHAR
STARTCHAR 00A7
ENCODING 167
SWIDTH 462 0
DWIDTH 9 0
BBX 7 16 1 -2
BITMAP
1C
E0
80
80
80
70
8C
82
82
82
74
0C
02
02
02
7C
ENDCHAR
STARTCHAR 00A8
ENCODING 168
SWIDTH 565 0
DWIDTH 11 0
BBX 1 1 7 12
BITMAP
80
ENDCHAR
STARTCHAR 00A9
ENCODING 169
SWIDTH 822 0
DWIDTH 16 0
BBX 14 14 1 0
BITMAP
0780
1860
6010
4788
8848
9004
9004
9004
9004
9008
8848
4790
2020
1FC0
ENDCHAR
STARTCHAR 00AA
ENCODING 170
SWIDTH 360 0
DWIDTH 7 0
BBX 5 6 1 8
BITMAP
F8
08
78
88
88
70
ENDCHAR
STARTCHAR 00AB
ENCODING 171
SWIDTH 411 0
DWIDTH 8 0
BBX 6 6 1 2
BITMAP
2C
48
90
90
48
24
ENDCHAR
STARTCHAR 00AC
ENCODING 172
SWIDTH 514 0
DWIDTH 10 0
BBX 7 3 2 3
BITMAP
FC
02
02
ENDCHAR
STARTCHAR 00AD
ENCODING 173
SWIDTH 360 0
DWIDTH 7 0
BBX 3 1 2 5
BITMAP
E0
ENDCHAR
STARTCHAR 00AE
ENCODING 174
SWIDTH 822 0
DWIDTH 16 0
BBX 14 14 1 0
BITMAP
0780
1860
6010
4F88
8848
8844
8844
8844
8F84
8888
8848
4010
2020
1FC0
ENDCHAR
STARTCHAR 00AF
ENCODING 175
SWIDTH 565 0
DWIDTH 11 0
BBX 3 1 4 12
BITMAP
E0
ENDCHAR
STARTCHAR 00B0
ENCODING 176
SWIDTH 411 0
DWIDTH 8 0
BBX 6 6 1 8
BITMAP
30
C8
84
84
84
78
ENDCHAR
STARTCHAR 00B1
ENCODING 177
SWIDTH 514 0
DWIDTH 10 0
BBX 6 11 2 0
BITMAP
10
10
10
10
FC
10
10
10
00
00
FC
ENDCHAR
STARTCHAR 00B2
ENCODING 178
SWIDTH 411 0
DWIDTH 8 0
BBX 6 8 1 6
BITMAP
78
04
04
08
10
20
C0
FC
ENDCHAR
STARTCHAR 00B3
ENCODING 179
SWIDTH 411 0
DWIDTH 8 0
BBX 5 8 2 6
BITMAP
F0
30
40
30
08
08
08
F0
ENDCHAR
STARTCHAR 00B4
ENCODING 180
SWIDTH 565 0
DWIDTH 11 0
BBX 2 2 6 12
BITMAP
40
80
ENDCHAR
STARTCHAR 00B5
ENCODING 181
SWIDTH 668 0
DWIDTH 13 0
BBX 9 14 2 -4
BITMAP
8080
8080
8080
8080
8080
8080
8080
8080
8180
E280
9C00
8000
8000
8000
ENDCHAR
STARTCHAR 00B6
ENCODING 182
SWIDTH 565 0
DWIDTH 11 0
BBX 9 16 0 -2
BITMAP
7F80
7880
F880
7880
7880
3880
0880
0880
0880
0880
0880
0880
0880
0880
0880
0800
ENDCHAR
STARTCHAR 00B7
ENCODING 183
SWIDTH 205 0
DWIDTH 4 0
BBX 1 1 2 5
BITMAP
80
ENDCHAR
STARTCHAR 00B8
ENCODING 184
SWIDTH 565 0
DWIDTH 11 0
BBX 3 4 4 -4
BITMAP
40
20
20
E0
ENDCHAR
STARTCHAR 00B9
ENCODING 185
SWIDTH 411 0
DWIDTH 8 0
BBX 5 8 2 6
BITMAP
60
20
20
20
20
20
20
F8
ENDCHAR
STARTCHAR 00BA
ENCODING 186
SWIDTH 360 0
DWIDTH 7 0
BBX 6 6 1 8
BITMAP
F8
84
84
84
88
70
ENDCHAR
STARTCHAR 00BB
ENCODING 187
SWIDTH 411 0
DWIDTH 8 0
BBX 6 6 1 2
BITMAP
90
48
24
24
48
90
ENDCHAR
STARTCHAR 00BC
ENCODING 188
SWIDTH 977 0
DWIDTH 19 0
BBX 17 14 2 0
BITMAP
E00800
201000
202000
202000
204000
208000
208000
210400
520800
021000
042200
083F80
080200
100000
ENDCHAR
STARTCHAR 00BD
ENCODING 189
SWIDTH 977 0
DWIDTH 19 0
BBX 16 14 2 0
BITMAP
E008
2010
2020
2020
2040
2080
209E
2101
5201
0201
0402
080C
0810
103F
ENDCHAR
STARTCHAR 00BE
ENCODING 190
SWIDTH 977 0
DWIDTH 19 0
BBX 18 14 1 0
BITMAP
FC0400
080800
101000
201000
182000
044000
044000
048200
790400
010800
021100
041FC0
040100
080000
ENDCHAR
STARTCHAR 00BF
ENCODING 191
SWIDTH 514 0
DWIDTH 10 0
BBX 7 13 2 -3
BITMAP
10
00
00
00
10
20
40
80
80
80
80
80
7E
ENDCHAR
STARTCHAR 00C0
ENCODING 192
SWIDTH 668 0
DWIDTH 13 0
BBX 13 16 0 1
BITMAP
0600
0000
0200
0600
0500
0900
0880
0880
1040
1040
2020
2020
5FD0
4010
8008
8000
ENDCHAR
STARTCHAR 00C1
ENCODING 193
SWIDTH 668 0
DWIDTH 13 0
BBX 13 17 0 0
BITMAP
0080
0300
0000
0200
0600
0500
0900
0880
0880
1040
1040
2020
2020
5FD0
4010
8008
8000
ENDCHAR
STARTCHAR 00C2
ENCODING 194
SWIDTH 668 0
DWIDTH 13 0
BBX 13 17 0 0
BITMAP
0200
0D80
0000
0200
0600
0500
0900
0880
0880
1040
1040
2020
2020
5FD0
4010
8008
8000
ENDCHAR
STARTCHAR 00C3
ENCODING 195
SWIDTH 668 0
DWIDTH 13 0
BBX 13 17 0 0
BITMAP
0400
0A80
0100
0200
0600
0500
0900
0880
0880
1040
1040
2020
2020
5FD0
4010
8008
8000
ENDCHAR
STARTCHAR 00C4
ENCODING 196
SWIDTH 668 0
DWIDTH 13 0
BBX 13 16 0 0
BITMAP
0080
0000
0200
0600
0500
0900
0880
0880
1040
1040
2020
2020
5FD0
4010
8008
8000
ENDCHAR
STARTCHAR 00C5
ENCODING 197
SWIDTH 668 0
DWIDTH 13 0
BBX 13 19 0 0
BITMAP
0300
0D00
0900
0700
0000
0200
0600
0500
0900
0880
0880
1040
1040
2020
2020
5FD0
4010
8008
8000
ENDCHAR
STARTCHAR 00C6
ENCODING 198
SWIDTH 977 0
DWIDTH 19 0
BBX 18 14 0 0
BITMAP
007FC0
00C000
014000
024000
024000
044000
084000
087F00
104000
204000
2F4000
404000
404000
807F80
ENDCHAR
STARTCHAR 00C7
ENCODING 199
SWIDTH 668 0
DWIDTH 13 0
BBX 12 18 1 -4
BITMAP
0780
1860
2000
4000
8000
8000
8000
8000
8000
8000
8000
4000
2010
1860
0780
0100
0100
0700
ENDCHAR
STARTCHAR 00C8
ENCODING 200
SWIDTH 617 0
DWIDTH 12 0
BBX 8 17 3 0
BITMAP
20
10
00
FF
80
80
80
80
80
80
FC
80
80
80
80
80
FF
ENDCHAR
STARTCHAR 00C9
ENCODING 201
SWIDTH 617 0
DWIDTH 12 0
BBX 8 17 3 0
BITMAP
04
08
00
FF
80
80
80
80
80
80
FC
80
80
80
80
80
FF
ENDCHAR
STARTCHAR 00CA
ENCODING 202
SWIDTH 617 0
DWIDTH 12 0
BBX 8 17 3 0
BITMAP
18
24
00
FF
80
80
80
80
80
80
FC
80
80
80
80
80
FF
ENDCHAR
STARTCHAR 00CB
ENCODING 203
SWIDTH 617 0
DWIDTH 12 0
BBX 8 16 3 0
BITMAP
24
00
FF
80
80
80
80
80
80
FC
80
80
80
80
80
FF
ENDCHAR
STARTCHAR 00CC
ENCODING 204
SWIDTH 257 0
DWIDTH 5 0
BBX 2 15 1 1
BITMAP
C0
00
00
40
40
40
40
40
40
40
40
40
40
40
40
ENDCHAR
STARTCHAR 00CD
ENCODING 205
SWIDTH 257 0
DWIDTH 5 0
BBX 3 16 2 0
BITMAP
20
40
00
00
80
80
80
80
80
80
80
80
80
80
80
80
ENDCHAR
STARTCHAR 00CE
ENCODING 206
SWIDTH 257 0
DWIDTH 5 0
BBX 4 16 1 0
BITMAP
40
B0
00
00
40
40
40
40
40
40
40
40
40
40
40
40
ENDCHAR
STARTCHAR 00CF
ENCODING 207
SWIDTH 257 0
DWIDTH 5 0
BBX 4 15 1 0
BITMAP
90
00
00
40
40
40
40
40
40
40
40
40
40
40
40
ENDCHAR
STARTCHAR 00D0
ENCODING 208
SWIDTH 822 0
DWIDTH 16 0
BBX 14 14 1 0
BITMAP
3F00
40E0
4010
4008
4008
4004
4004
F804
4004
4004
4008
4010
4020
7FC0
ENDCHAR
STARTCHAR 00D1
ENCODING 209
SWIDTH 771 0
DWIDTH 15 0
BBX 10 17 3 0
BITMAP
1100
2E00
0000
0000
8040
C040
C040
A040
9040
8840
8840
8440
8240
8140
80C0
80C0
0040
ENDCHAR
STARTCHAR 00D2
ENCODING 210
SWIDTH 822 0
DWIDTH 16 0
BBX 14 17 1 0
BITMAP
0400
0200
0000
0780
1860
6010
4008
8004
8004
8004
8004
8004
8004
8008
4008
2010
1FE0
ENDCHAR
STARTCHAR 00D3
ENCODING 211
SWIDTH 822 0
DWIDTH 16 0
BBX 14 16 1 1
BITMAP
0180
0000
0780
1860
6010
4008
8004
8004
8004
8004
8004
8004
8008
4008
2010
1FE0
ENDCHAR
STARTCHAR 00D4
ENCODING 212
SWIDTH 822 0
DWIDTH 16 0
BBX 14 17 1 0
BITMAP
0300
0480
0000
0780
1860
6010
4008
8004
8004
8004
8004
8004
8004
8008
4008
2010
1FE0
ENDCHAR
STARTCHAR 00D5
ENCODING 213
SWIDTH 822 0
DWIDTH 16 0
BBX 14 17 1 0
BITMAP
0640
0180
0000
0780
1860
6010
4008
8004
8004
8004
8004
8004
8004
8008
4008
2010
1FE0
ENDCHAR
STARTCHAR 00D6
ENCODING 214
SWIDTH 822 0
DWIDTH 16 0
BBX 14 16 1 0
BITMAP
0480
0000
0780
1860
6010
4008
8004
8004
8004
8004
8004
8004
8008
4008
2010
1FE0
ENDCHAR
STARTCHAR 00D7
ENCODING 215
SWIDTH 514 0
DWIDTH 10 0
BBX 6 5 2 5
BITMAP
4C
30
10
68
84
ENDCHAR
STARTCHAR 00D8
ENCODING 216
SWIDTH 822 0
DWIDTH 16 0
BBX 14 15 1 0
BITMAP
0798
1870
6030
4048
8084
8084
8104
8204
8404
8404
8808
5008
2010
3860
4780
ENDCHAR
STARTCHAR 00D9
ENCODING 217
SWIDTH 771 0
DWIDTH 15 0
BBX 11 16 2 1
BITMAP
0C00
0000
8000
8020
8020
8020
8020
8020
8020
8020
8020
8020
8020
4040
4040
3F80
ENDCHAR
STARTCHAR 00DA
ENCODING 218
SWIDTH 771 0
DWIDTH 15 0
BBX 11 17 2 0
BITMAP
0100
0600
0000
8000
8020
8020
8020
8020
8020
8020
8020
8020
8020
8020
4040
4040
3F80
ENDCHAR
STARTCHAR 00DB
ENCODING 219
SWIDTH 771 0
DWIDTH 15 0
BBX 11 17 2 0
BITMAP
0400
1B00
0000
8000
8020
8020
8020
8020
8020
8020
8020
8020
8020
8020
4040
4040
3F80
ENDCHAR
STARTCHAR 00DC
ENCODING 220
SWIDTH 771 0
DWIDTH 15 0
BBX 11 16 2 0
BITMAP
0100
0000
8000
8020
8020
8020
8020
8020
8020
8020
8020
8020
8020
4040
4040
3F80
ENDCHAR
STARTCHAR 00DD
ENCODING 221
SWIDTH 565 0
DWIDTH 11 0
BBX 12 16 0 0
BITMAP
0100
0200
0000
8010
8020
4040
2040
2080
1080
1100
0A00
0600
0400
0400
0400
0400
ENDCHAR
STARTCHAR 00DE
ENCODING 222
SWIDTH 668 0
DWIDTH 13 0
BBX 10 12 3 1
BITMAP
8000
FC00
8300
8080
8080
8040
8080
8080
8080
8100
FE00
8000
ENDCHAR
STARTCHAR 00DF
ENCODING 223
SWIDTH 617 0
DWIDTH 12 0
BBX 10 14 2 0
BITMAP
7E00
8100
8100
8100
8100
8200
8C00
8300
8080
8040
8040
8080
8080
9F00
ENDCHAR
STARTCHAR 00E0
ENCODING 224
SWIDTH 565 0
DWIDTH 11 0
BBX 8 14 1 0
BITMAP
20
10
08
00
3E
01
01
01
01
FF
81
81
83
7C
ENDCHAR
STARTCHAR 00E1
ENCODING 225
SWIDTH 565 0
DWIDTH 11 0
BBX 8 13 1 1
BITMAP
0C
00
00
3E
01
01
01
01
FF
81
81
83
7C
ENDCHAR
STARTCHAR 00E2
ENCODING 226
SWIDTH 565 0
DWIDTH 11 0
BBX 8 14 1 0
BITMAP
08
34
00
00
3E
01
01
01
01
FF
81
81
83
7C
ENDCHAR
STARTCHAR 00E3
ENCODING 227
SWIDTH 565 0
DWIDTH 11 0
BBX 8 14 1 0
BITMAP
30
0A
04
00
3E
01
01
01
01
FF
81
81
83
7C
ENDCHAR
STARTCHAR 00E4
ENCODING 228
SWIDTH 565 0
DWIDTH 11 0
BBX 8 10 1 3
BITMAP
3E
01
01
01
01
FF
81
81
83
7C
ENDCHAR
STARTCHAR 00E5
ENCODING 229
SWIDTH 565 0
DWIDTH 11 0
BBX 8 15 1 0
BITMAP
3C
24
24
18
00
3E
01
01
01
01
FF
81
81
83
7C
ENDCHAR
STARTCHAR 00E6
ENCODING 230
SWIDTH 977 0
DWIDTH 19 0
BBX 17 10 1 0
BITMAP
3E3E00
01C100
008100
010080
010000
FF7F80
810000
818000
828000
7C7E00
ENDCHAR
STARTCHAR 00E7
ENCODING 231
SWIDTH 514 0
DWIDTH 10 0
BBX 9 14 1 -4
BITMAP
3E00
4180
8000
8000
8000
8000
8000
8000
4080
3300
0C00
0400
0400
0C00
ENDCHAR
STARTCHAR 00E8
ENCODING 232
SWIDTH 565 0
DWIDTH 11 0
BBX 9 13 1 1
BITMAP
1800
0000
0000
3E00
4100
8080
8080
8000
FF80
8000
8000
4080
3F00
ENDCHAR
STARTCHAR 00E9
ENCODING 233
SWIDTH 565 0
DWIDTH 11 0
BBX 9 14 1 0
BITMAP
0200
0C00
0000
0000
3E00
4100
8080
8080
8000
FF80
8000
8000
4080
3F00
ENDCHAR
STARTCHAR 00EA
ENCODING 234
SWIDTH 565 0
DWIDTH 11 0
BBX 9 14 1 0
BITMAP
0C00
3200
0000
0000
3E00
4100
8080
8080
8000
FF80
8000
8000
4080
3F00
ENDCHAR
STARTCHAR 00EB
ENCODING 235
SWIDTH 565 0
DWIDTH 11 0
BBX 9 13 1 0
BITMAP
0200
0000
0000
3E00
4100
8080
8080
8000
FF80
8000
8000
4080
3F00
ENDCHAR
STARTCHAR 00EC
ENCODING 236
SWIDTH 205 0
DWIDTH 4 0
BBX 3 14 0 0
BITMAP
80
40
20
00
20
20
20
20
20
20
20
20
20
20
ENDCHAR
STARTCHAR 00ED
ENCODING 237
SWIDTH 205 0
DWIDTH 4 0
BBX 2 13 2 1
BITMAP
C0
00
00
80
80
80
80
80
80
80
80
80
80
ENDCHAR
STARTCHAR 00EE
ENCODING 238
SWIDTH 205 0
DWIDTH 4 0
BBX 4 14 0 0
BITMAP
60
90
00
00
20
20
20
20
20
20
20
20
20
20
ENDCHAR
STARTCHAR 00EF
ENCODING 239
SWIDTH 205 0
DWIDTH 4 0
BBX 3 13 1 0
BITMAP
A0
00
00
40
40
40
40
40
40
40
40
40
40
ENDCHAR
STARTCHAR 00F0
ENCODING 240
SWIDTH 617 0
DWIDTH 12 0
BBX 10 14 1 0
BITMAP
3C80
0300
0C80
3080
0040
0040
7F40
80C0
8040
8040
8080
8080
8100
7E00
ENDCHAR
STARTCHAR 00F1
ENCODING 241
SWIDTH 617 0
DWIDTH 12 0
BBX 9 14 2 0
BITMAP
1000
2A00
0400
0000
BE00
C100
8080
8080
8080
8080
8080
8080
8080
8080
ENDCHAR
STARTCHAR 00F2
ENCODING 242
SWIDTH 565 0
DWIDTH 11 0
BBX 10 14 1 0
BITMAP
1000
0800
0000
0000
3E00
4180
8080
8040
8040
8040
8040
8080
4080
3F00
ENDCHAR
STARTCHAR 00F3
ENCODING 243
SWIDTH 565 0
DWIDTH 11 0
BBX 10 14 1 0
BITMAP
0200
0400
0000
0000
3E00
4180
8080
8040
8040
8040
8040
8080
4080
3F00
ENDCHAR
STARTCHAR 00F4
ENCODING 244
SWIDTH 565 0
DWIDTH 11 0
BBX 10 14 1 0
BITMAP
0C00
1200
0000
0000
3E00
4180
8080
8040
8040
8040
8040
8080
4080
3F00
ENDCHAR
STARTCHAR 00F5
ENCODING 245
SWIDTH 565 0
DWIDTH 11 0
BBX 10 14 1 0
BITMAP
1100
2E00
0000
0000
3E00
4180
8080
8040
8040
8040
8040
8080
4080
3F00
ENDCHAR
STARTCHAR 00F6
ENCODING 246
SWIDTH 565 0
DWIDTH 11 0
BBX 10 13 1 0
BITMAP
1200
0000
0000
3E00
4180
8080
8040
8040
8040
8040
8080
4080
3F00
ENDCHAR
STARTCHAR 00F7
ENCODING 247
SWIDTH 514 0
DWIDTH 10 0
BBX 6 8 2 3
BITMAP
10
00
00
00
FC
00
00
10
ENDCHAR
STARTCHAR 00F8
ENCODING 248
SWIDTH 565 0
DWIDTH 11 0
BBX 10 12 1 -1
BITMAP
0080
3F00
4280
8280
8440
8840
8840
9040
A080
6080
5300
0C00
ENDCHAR
STARTCHAR 00F9
ENCODING 249
SWIDTH 617 0
DWIDTH 12 0
BBX 9 14 2 0
BITMAP
2000
1000
0800
0000
8080
8080
8080
8080
8080
8080
8080
8080
8180
7E80
ENDCHAR
STARTCHAR 00FA
ENCODING 250
SWIDTH 617 0
DWIDTH 12 0
BBX 9 13 2 1
BITMAP
0C00
0000
0000
8080
8080
8080
8080
8080
8080
8080
8080
8180
7E80
ENDCHAR
STARTCHAR 00FB
ENCODING 251
SWIDTH 617 0
DWIDTH 12 0
BBX 9 14 2 0
BITMAP
1800
2400
0000
0000
8080
8080
8080
8080
8080
8080
8080
8080
8180
7E80
ENDCHAR
STARTCHAR 00FC
ENCODING 252
SWIDTH 617 0
DWIDTH 12 0
BBX 9 10 2 3
BITMAP
8080
8080
8080
8080
8080
8080
8080
8080
8180
7E80
ENDCHAR
STARTCHAR 00FD
ENCODING 253
SWIDTH 462 0
DWIDTH 9 0
BBX 9 18 0 -4
BITMAP
0200
0C00
0000
0000
8000
8080
4080
4100
2100
2200
1200
1400
1400
0800
0800
1000
1000
E000
ENDCHAR
STARTCHAR 00FE
ENCODING 254
SWIDTH 668 0
DWIDTH 13 0
BBX 10 18 2 -4
BITMAP
8000
8000
8000
8000
9F00
E080
8080
8040
8040
8040
8040
8080
C080
B300
8C00
8000
8000
8000
ENDCHAR
STARTCHAR 00FF
ENCODING 255
SWIDTH 462 0
DWIDTH 9 0
BBX 9 14 0 -1
BITMAP
8000
8080
4080
4100
2100
2200
1200
1400
1400
0800
0800
1000
1000
E000
ENDCHAR
STARTCHAR 0100
ENCODING 256
SWIDTH 668 0
DWIDTH 13 0
BBX 13 16 0 0
BITMAP
0700
0000
0200
0600
0500
0900
0880
0880
1040
1040
2020
2020
5FD0
4010
8008
8000
ENDCHAR
STARTCHAR 0101
ENCODING 257
SWIDTH 565 0
DWIDTH 11 0
BBX 8 13 1 0
BITMAP
1C
00
00
3E
01
01
01
01
FF
81
81
83
7C
ENDCHAR
STARTCHAR 0102
ENCODING 258
SWIDTH 668 0
DWIDTH 13 0
BBX 13 17 0 0
BITMAP
0800
0880
0700
0200
0600
0500
0900
0880
0880
1040
1040
2020
2020
5FD0
4010
8008
8000
ENDCHAR
STARTCHAR 0103
ENCODING 259
SWIDTH 565 0
DWIDTH 11 0
BBX 8 14 1 0
BITMAP
02
24
18
00
3E
01
01
01
01
FF
81
81
83
7C
ENDCHAR
STARTCHAR 0104
ENCODING 260
SWIDTH 668 0
DWIDTH 13 0
BBX 13 18 0 -4
BITMAP
0200
0600
0500
0900
0880
0880
1040
1040
2020
2020
5FD0
4010
8008
8000
0010
0020
0020
0038
ENDCHAR
STARTCHAR 0105
ENCODING 261
SWIDTH 565 0
DWIDTH 11 0
BBX 8 14 1 -4
BITMAP
3E
01
01
01
01
FF
81
81
83
44
3A
04
04
06
ENDCHAR
STARTCHAR 0106
ENCODING 262
SWIDTH 668 0
DWIDTH 13 0
BBX 12 17 1 0
BITMAP
0080
0100
0000
0780
1860
2000
4000
8000
8000
8000
8000
8000
8000
8000
4000
2010
1FE0
ENDCHAR
STARTCHAR 0107
ENCODING 263
SWIDTH 514 0
DWIDTH 10 0
BBX 9 14 1 0
BITMAP
0200
0C00
0000
0000
3E00
4180
8000
8000
8000
8000
8000
8000
4080
3F00
ENDCHAR
STARTCHAR 0108
ENCODING 264
SWIDTH 668 0
DWIDTH 13 0
BBX 12 17 1 0
BITMAP
0300
0480
0000
0780
1860
2000
4000
8000
8000
8000
8000
8000
8000
8000
4000
2010
1FE0
ENDCHAR
STARTCHAR 0109
ENCODING 265
SWIDTH 514 0
DWIDTH 10 0
BBX 9 14 1 0
BITMAP
0800
3600
0000
0000
3E00
4180
8000
8000
8000
8000
8000
8000
4080
3F00
ENDCHAR
STARTCHAR 010A
ENCODING 266
SWIDTH 668 0
DWIDTH 13 0
BBX 12 14 1 2
BITMAP
0780
1860
2000
4000
8000
8000
8000
8000
8000
8000
8000
4000
2010
1FE0
ENDCHAR
STARTCHAR 010B
ENCODING 267
SWIDTH 514 0
DWIDTH 10 0
BBX 9 13 1 0
BITMAP
0800
0000
0000
3E00
4180
8000
8000
8000
8000
8000
8000
4080
3F00
ENDCHAR
STARTCHAR 010C
ENCODING 268
SWIDTH 668 0
DWIDTH 13 0
BBX 12 16 1 1
BITMAP
0580
0200
0780
1860
2000
4000
8000
8000
8000
8000
8000
8000
8000
4000
2010
1FE0
ENDCHAR
STARTCHAR 010D
ENCODING 269
SWIDTH 514 0
DWIDTH 10 0
BBX 9 14 1 0
BITMAP
2200
1400
0800
0000
3E00
4180
8000
8000
8000
8000
8000
8000
4080
3F00
ENDCHAR
STARTCHAR 010E
ENCODING 270
SWIDTH 822 0
DWIDTH 16 0
BBX 12 17 3 0
BITMAP
2200
1400
0800
FC00
8380
8040
8020
8020
8010
8010
8010
8010
8010
8020
8040
8080
FF00
ENDCHAR
STARTCHAR 010F
ENCODING 271
SWIDTH 668 0
DWIDTH 13 0
BBX 12 14 1 1
BITMAP
0050
0050
0040
0040
3E40
41C0
8040
8040
8040
8040
8040
8040
41C0
3E40
ENDCHAR
STARTCHAR 0110
ENCODING 272
SWIDTH 822 0
DWIDTH 16 0
BBX 14 14 1 0
BITMAP
3F00
40E0
4010
4008
4008
4004
4004
F804
4004
4004
4008
4010
4020
7FC0
ENDCHAR
STARTCHAR 0111
ENCODING 273
SWIDTH 668 0
DWIDTH 13 0
BBX 11 14 1 0
BITMAP
0040
0040
03E0
0040
3E40
41C0
8040
8040
8040
8040
8040
8040
41C0
3E40
ENDCHAR
STARTCHAR 0112
ENCODING 274
SWIDTH 617 0
DWIDTH 12 0
BBX 8 16 3 0
BITMAP
3C
00
FF
80
80
80
80
80
80
FC
80
80
80
80
80
FF
ENDCHAR
STARTCHAR 0113
ENCODING 275
SWIDTH 565 0
DWIDTH 11 0
BBX 9 13 1 0
BITMAP
1C00
0000
0000
3E00
4100
8080
8080
8000
FF80
8000
8000
4080
3F00
ENDCHAR
STARTCHAR 0114
ENCODING 276
SWIDTH 617 0
DWIDTH 12 0
BBX 8 17 3 0
BITMAP
42
44
38
FF
80
80
80
80
80
80
FC
80
80
80
80
80
FF
ENDCHAR
STARTCHAR 0115
ENCODING 277
SWIDTH 565 0
DWIDTH 11 0
BBX 9 14 1 0
BITMAP
2000
2200
1C00
0000
3E00
4100
8080
8080
8000
FF80
8000
8000
4080
3F00
ENDCHAR
STARTCHAR 0116
ENCODING 278
SWIDTH 617 0
DWIDTH 12 0
BBX 8 14 3 2
BITMAP
FF
80
80
80
80
80
80
FC
80
80
80
80
80
FF
ENDCHAR
STARTCHAR 0117
ENCODING 279
SWIDTH 565 0
DWIDTH 11 0
BBX 9 10 1 3
BITMAP
3E00
4100
8080
8080
8000
FF80
8000
8000
4080
3F00
ENDCHAR
STARTCHAR 0118
ENCODING 280
SWIDTH 617 0
DWIDTH 12 0
BBX 8 18 3 -4
BITMAP
FF
80
80
80
80
80
80
FC
80
80
80
80
80
00
FF
02
04
03
ENDCHAR
STARTCHAR 0119
ENCODING 281
SWIDTH 565 0
DWIDTH 11 0
BBX 9 14 1 -4
BITMAP
3E00
4100
8080
8080
8000
FF80
8000
8000
4080
3300
0E00
0400
0400
0700
ENDCHAR
STARTCHAR 011A
ENCODING 282
SWIDTH 617 0
DWIDTH 12 0
BBX 8 16 3 1
BITMAP
2C
10
FF
80
80
80
80
80
80
FC
80
80
80
80
80
FF
ENDCHAR
STARTCHAR 011B
ENCODING 283
SWIDTH 565 0
DWIDTH 11 0
BBX 9 14 1 0
BITMAP
0200
1400
0800
0000
3E00
4100
8080
8080
8000
FF80
8000
8000
4080
3F00
ENDCHAR
STARTCHAR 011C
ENCODING 284
SWIDTH 771 0
DWIDTH 15 0
BBX 12 17 1 0
BITMAP
0300
0480
0000
0380
1C60
2000
4000
8000
8000
8000
8010
8010
8010
8010
4010
2010
1FE0
ENDCHAR
STARTCHAR 011D
ENCODING 285
SWIDTH 668 0
DWIDTH 13 0
BBX 10 18 1 -4
BITMAP
0C00
1200
0000
0000
3E00
41C0
80C0
8040
8040
8040
8040
80C0
4140
3E40
0040
0040
4080
3F00
ENDCHAR
STARTCHAR 011E
ENCODING 286
SWIDTH 771 0
DWIDTH 15 0
BBX 12 17 1 0
BITMAP
0800
0880
0700
0380
1C60
2000
4000
8000
8000
8000
8010
8010
8010
8010
4010
2010
1FE0
ENDCHAR
STARTCHAR 011F
ENCODING 287
SWIDTH 668 0
DWIDTH 13 0
BBX 10 18 1 -4
BITMAP
0100
1200
0C00
0000
3E00
41C0
80C0
8040
8040
8040
8040
80C0
4140
3E40
0040
0040
4080
3F00
ENDCHAR
STARTCHAR 0120
ENCODING 288
SWIDTH 771 0
DWIDTH 15 0
BBX 12 16 1 0
BITMAP
0200
0000
0380
1C60
2000
4000
8000
8000
8000
8010
8010
8010
8010
4010
2010
1FE0
ENDCHAR
STARTCHAR 0121
ENCODING 289
SWIDTH 668 0
DWIDTH 13 0
BBX 10 14 1 -1
BITMAP
3E00
41C0
80C0
8040
8040
8040
8040
80C0
4140
3E40
0040
0040
4080
3F00
ENDCHAR
STARTCHAR 0122
ENCODING 290
SWIDTH 771 0
DWIDTH 15 0
BBX 12 18 1 -5
BITMAP
0380
1C60
2000
4000
8000
8000
8000
8010
8010
8010
8010
4010
2010
1C60
0380
0000
0000
0200
ENDCHAR
STARTCHAR 0123
ENCODING 291
SWIDTH 668 0
DWIDTH 13 0
BBX 10 19 1 -4
BITMAP
0400
0800
0400
0000
0000
3E00
41C0
80C0
8040
8040
8040
8040
80C0
4140
3E40
0040
0040
4080
3F00
ENDCHAR
STARTCHAR 0124
ENCODING 292
SWIDTH 771 0
DWIDTH 15 0
BBX 10 16 3 0
BITMAP
0C00
1200
0000
0000
8040
8040
8040
8040
8040
8040
FFC0
8040
8040
8040
8040
8040
ENDCHAR
STARTCHAR 0125
ENCODING 293
SWIDTH 617 0
DWIDTH 12 0
BBX 11 18 0 0
BITMAP
2000
D000
0000
0000
2000
2000
2000
2000
2F80
3040
2020
2020
2020
2020
2020
2020
2020
2020
ENDCHAR
STARTCHAR 0126
ENCODING 294
SWIDTH 771 0
DWIDTH 15 0
BBX 15 12 0 1
BITMAP
2008
2008
FFFE
2008
2008
2008
2FF8
2008
2008
2008
2008
2008
ENDCHAR
STARTCHAR 0127
ENCODING 295
SWIDTH 617 0
DWIDTH 12 0
BBX 10 14 1 0
BITMAP
4000
4000
F800
4000
5F00
6080
4040
4040
4040
4040
4040
4040
4040
4040
ENDCHAR
STARTCHAR 0128
ENCODING 296
SWIDTH 257 0
DWIDTH 5 0
BBX 5 16 0 0
BITMAP
40
A8
10
00
20
20
20
20
20
20
20
20
20
20
20
20
ENDCHAR
STARTCHAR 0129
ENCODING 297
SWIDTH 205 0
DWIDTH 4 0
BBX 5 14 0 0
BITMAP
48
B0
00
00
20
20
20
20
20
20
20
20
20
20
ENDCHAR
STARTCHAR 012A
ENCODING 298
SWIDTH 257 0
DWIDTH 5 0
BBX 2 15 2 0
BITMAP
C0
00
00
80
80
80
80
80
80
80
80
80
80
80
80
ENDCHAR
STARTCHAR 012B
ENCODING 299
SWIDTH 205 0
DWIDTH 4 0
BBX 3 13 1 0
BITMAP
E0
00
00
40
40
40
40
40
40
40
40
40
40
ENDCHAR
STARTCHAR 012C
ENCODING 300
SWIDTH 257 0
DWIDTH 5 0
BBX 5 16 0 0
BITMAP
80
88
70
00
20
20
20
20
20
20
20
20
20
20
20
20
ENDCHAR
STARTCHAR 012D
ENCODING 301
SWIDTH 205 0
DWIDTH 4 0
BBX 4 14 0 0
BITMAP
80
90
60
00
20
20
20
20
20
20
20
20
20
20
ENDCHAR
STARTCHAR 012E
ENCODING 302
SWIDTH 257 0
DWIDTH 5 0
BBX 1 17 2 -3
BITMAP
80
80
80
80
80
80
80
80
80
80
80
80
00
80
80
80
80
ENDCHAR
STARTCHAR 012F
ENCODING 303
SWIDTH 205 0
DWIDTH 4 0
BBX 2 18 1 -4
BITMAP
40
00
00
00
40
40
40
40
40
40
40
40
40
40
00
80
80
80
ENDCHAR
STARTCHAR 0130
ENCODING 304
SWIDTH 257 0
DWIDTH 5 0
BBX 1 15 2 0
BITMAP
80
00
00
80
80
80
80
80
80
80
80
80
80
80
80
ENDCHAR
STARTCHAR 0131
ENCODING 305
SWIDTH 205 0
DWIDTH 4 0
BBX 1 10 2 0
BITMAP
80
80
80
80
80
80
80
80
80
80
ENDCHAR
STARTCHAR 0132
ENCODING 306
SWIDTH 668 0
DWIDTH 13 0
BBX 9 14 2 0
BITMAP
8000
8080
8080
8080
8080
8080
8080
8080
0080
0080
0080
0080
0100
7E00
ENDCHAR
STARTCHAR 0133
ENCODING 307
SWIDTH 462 0
DWIDTH 9 0
BBX 6 18 2 -4
BITMAP
84
00
00
00
84
84
84
84
84
84
84
84
84
84
04
04
08
38
ENDCHAR
STARTCHAR 0134
ENCODING 308
SWIDTH 462 0
DWIDTH 9 0
BBX 7 17 0 0
BITMAP
18
24
00
7E
02
02
02
02
02
02
02
02
02
02
02
84
7C
ENDCHAR
STARTCHAR 0135
ENCODING 309
SWIDTH 205 0
DWIDTH 4 0
BBX 5 18 -1 -4
BITMAP
30
28
00
00
10
10
10
10
10
10
10
10
10
10
10
10
10
E0
ENDCHAR
STARTCHAR 0136
ENCODING 310
SWIDTH 668 0
DWIDTH 13 0
BBX 10 18 3 -5
BITMAP
0040
8080
8100
8200
8400
8800
9000
B000
C800
8400
8200
8100
8080
0040
0000
0000
0000
0800
ENDCHAR
STARTCHAR 0137
ENCODING 311
SWIDTH 565 0
DWIDTH 11 0
BBX 8 18 2 -5
BITMAP
80
80
80
80
81
82
8C
90
B0
C8
84
82
81
81
00
00
00
10
ENDCHAR
STARTCHAR 0138
ENCODING 312
SWIDTH 514 0
DWIDTH 10 0
BBX 8 10 2 0
BITMAP
81
82
8C
90
B0
C8
84
82
81
81
ENDCHAR
STARTCHAR 0139
ENCODING 313
SWIDTH 565 0
DWIDTH 11 0
BBX 8 17 2 0
BITMAP
20
40
00
00
80
80
80
80
80
80
80
80
80
80
80
80
3F
ENDCHAR
STARTCHAR 013A
ENCODING 314
SWIDTH 205 0
DWIDTH 4 0
BBX 2 18 2 0
BITMAP
40
80
00
00
80
80
80
80
80
80
80
80
80
80
80
80
80
80
ENDCHAR
STARTCHAR 013B
ENCODING 315
SWIDTH 565 0
DWIDTH 11 0
BBX 7 17 3 -4
BITMAP
80
80
80
80
80
80
80
80
80
80
80
80
00
7E
00
00
10
ENDCHAR
STARTCHAR 013C
ENCODING 316
SWIDTH 205 0
DWIDTH 4 0
BBX 1 19 2 -5
BITMAP
80
80
80
80
80
80
80
80
80
80
80
80
80
80
00
00
80
80
80
ENDCHAR
STARTCHAR 013D
ENCODING 317
SWIDTH 565 0
DWIDTH 11 0
BBX 7 13 3 1
BITMAP
84
84
80
80
80
80
80
80
80
80
80
80
7E
ENDCHAR
STARTCHAR 013E
ENCODING 318
SWIDTH 205 0
DWIDTH 4 0
BBX 3 14 2 1
BITMAP
A0
A0
80
80
80
80
80
80
80
80
80
80
80
80
ENDCHAR
STARTCHAR 013F
ENCODING 319
SWIDTH 565 0
DWIDTH 11 0
BBX 7 13 3 1
BITMAP
80
80
80
80
80
80
84
80
80
80
80
80
7E
ENDCHAR
STARTCHAR 0140
ENCODING 320
SWIDTH 205 0
DWIDTH 4 0
BBX 3 14 2 0
BITMAP
80
80
80
80
80
80
80
A0
80
80
80
80
80
80
ENDCHAR
STARTCHAR 0141
ENCODING 321
SWIDTH 565 0
DWIDTH 11 0
BBX 9 13 1 1
BITMAP
4000
4000
4000
4000
5000
2000
C000
4000
4000
4000
4000
4000
1F80
ENDCHAR
STARTCHAR 0142
ENCODING 322
SWIDTH 205 0
DWIDTH 4 0
BBX 4 14 0 0
BITMAP
20
20
20
20
20
20
30
20
E0
20
20
20
20
20
ENDCHAR
STARTCHAR 0143
ENCODING 323
SWIDTH 771 0
DWIDTH 15 0
BBX 10 17 3 0
BITMAP
0200
0400
0000
0000
8040
C040
C040
A040
9040
8840
8840
8440
8240
8140
80C0
80C0
0040
ENDCHAR
STARTCHAR 0144
ENCODING 324
SWIDTH 617 0
DWIDTH 12 0
BBX 9 14 2 0
BITMAP
0200
0C00
0000
0000
BE00
C100
8080
8080
8080
8080
8080
8080
8080
8080
ENDCHAR
STARTCHAR 0145
ENCODING 325
SWIDTH 771 0
DWIDTH 15 0
BBX 10 17 3 -4
BITMAP
8040
C040
C040
A040
9040
8840
8840
8440
8240
8140
80C0
80C0
0040
0000
0000
0000
0800
ENDCHAR
STARTCHAR 0146
ENCODING 326
SWIDTH 617 0
DWIDTH 12 0
BBX 9 15 2 -5
BITMAP
BE00
C100
8080
8080
8080
8080
8080
8080
8080
8080
0000
0000
0800
0800
0800
ENDCHAR
STARTCHAR 0147
ENCODING 327
SWIDTH 771 0
DWIDTH 15 0
BBX 10 16 3 1
BITMAP
1600
0800
0000
8040
C040
C040
A040
9040
8840
8840
8440
8240
8140
80C0
80C0
0040
ENDCHAR
STARTCHAR 0148
ENCODING 328
SWIDTH 617 0
DWIDTH 12 0
BBX 9 14 2 0
BITMAP
2200
1400
0800
0000
BE00
C100
8080
8080
8080
8080
8080
8080
8080
8080
ENDCHAR
STARTCHAR 0149
ENCODING 329
SWIDTH 668 0
DWIDTH 13 0
BBX 11 14 1 0
BITMAP
8000
8000
8000
0000
0F80
7040
2040
4020
4020
4020
4020
4020
4020
0020
ENDCHAR
STARTCHAR 014A
ENCODING 330
SWIDTH 771 0
DWIDTH 15 0
BBX 10 17 3 -3
BITMAP
8040
C040
C040
A040
9040
8840
8840
8440
8240
8140
80C0
80C0
0040
0040
0040
0840
0780
ENDCHAR
STARTCHAR 014B
ENCODING 331
SWIDTH 617 0
DWIDTH 12 0
BBX 9 14 2 -4
BITMAP
BE00
C100
8080
8080
8080
8080
8080
8080
8080
8080
0080
0080
0080
0700
ENDCHAR
STARTCHAR 014C
ENCODING 332
SWIDTH 822 0
DWIDTH 16 0
BBX 14 16 1 0
BITMAP
0780
0000
0780
1860
6010
4008
8004
8004
8004
8004
8004
8004
8008
4008
2010
1FE0
ENDCHAR
STARTCHAR 014D
ENCODING 333
SWIDTH 565 0
DWIDTH 11 0
BBX 10 13 1 0
BITMAP
1E00
0000
0000
3E00
4180
8080
8040
8040
8040
8040
8080
4080
3F00
ENDCHAR
STARTCHAR 014E
ENCODING 334
SWIDTH 822 0
DWIDTH 16 0
BBX 14 17 1 0
BITMAP
0040
0480
0300
0780
1860
6010
4008
8004
8004
8004
8004
8004
8004
8008
4008
2010
1FE0
ENDCHAR
STARTCHAR 014F
ENCODING 335
SWIDTH 565 0
DWIDTH 11 0
BBX 10 14 1 0
BITMAP
2000
1200
0C00
0000
3E00
4180
8080
8040
8040
8040
8040
8080
4080
3F00
ENDCHAR
STARTCHAR 0150
ENCODING 336
SWIDTH 822 0
DWIDTH 16 0
BBX 14 17 1 0
BITMAP
0120
0240
0000
0780
1860
6010
4008
8004
8004
8004
8004
8004
8004
8008
4008
2010
1FE0
ENDCHAR
STARTCHAR 0151
ENCODING 337
SWIDTH 565 0
DWIDTH 11 0
BBX 10 14 1 0
BITMAP
0400
0B00
0000
0000
3E00
4180
8080
8040
8040
8040
8040
8080
4080
3F00
ENDCHAR
STARTCHAR 0152
ENCODING 338
SWIDTH 1080 0
DWIDTH 21 0
BBX 19 14 1 0
BITMAP
03FFE0
1C2000
602000
402000
802000
802000
802000
803F80
802000
802000
802000
402000
202000
1FBFC0
ENDCHAR
STARTCHAR 0153
ENCODING 339
SWIDTH 1028 0
DWIDTH 20 0
BBX 19 10 1 0
BITMAP
3E0F00
41B0C0
80C040
804020
804020
805FC0
804000
80C000
40A000
3F1F80
ENDCHAR
STARTCHAR 0154
ENCODING 340
SWIDTH 668 0
DWIDTH 13 0
BBX 10 16 3 0
BITMAP
0400
0800
0000
FC00
8300
8080
8080
8040
8080
8080
8080
8100
FE00
8200
8100
8080
ENDCHAR
STARTCHAR 0155
ENCODING 341
SWIDTH 360 0
DWIDTH 7 0
BBX 4 13 2 1
BITMAP
30
00
00
B0
C0
80
80
80
80
80
80
80
80
ENDCHAR
STARTCHAR 0156
ENCODING 342
SWIDTH 668 0
DWIDTH 13 0
BBX 10 18 3 -5
BITMAP
FC00
8300
8080
8080
8040
8080
8080
8080
8100
FE00
8200
8100
8080
0000
0000
0000
0000
0800
ENDCHAR
STARTCHAR 0157
ENCODING 343
SWIDTH 360 0
DWIDTH 7 0
BBX 4 15 2 -5
BITMAP
B0
C0
80
80
80
80
80
80
80
80
00
00
80
80
80
ENDCHAR
STARTCHAR 0158
ENCODING 344
SWIDTH 668 0
DWIDTH 13 0
BBX 10 15 3 1
BITMAP
3C00
0000
FC00
8300
8080
8080
8040
8080
8080
8080
8100
FE00
8200
8100
8080
ENDCHAR
STARTCHAR 0159
ENCODING 345
SWIDTH 360 0
DWIDTH 7 0
BBX 5 14 2 0
BITMAP
88
70
00
00
B0
C0
80
80
80
80
80
80
80
80
ENDCHAR
STARTCHAR 015A
ENCODING 346
SWIDTH 565 0
DWIDTH 11 0
BBX 10 16 1 1
BITMAP
0600
0000
1E00
6180
8000
8000
8000
8000
6000
1E00
0180
0080
0040
0080
8080
7F00
ENDCHAR
STARTCHAR 015B
ENCODING 347
SWIDTH 462 0
DWIDTH 9 0
BBX 7 14 1 0
BITMAP
04
18
00
00
7C
80
80
80
40
3C
02
02
02
7C
ENDCHAR
STARTCHAR 015C
ENCODING 348
SWIDTH 565 0
DWIDTH 11 0
BBX 10 17 1 0
BITMAP
0C00
1200
0000
1E00
6180
8000
8000
8000
8000
6000
1E00
0180
0080
0040
0080
8080
7F00
ENDCHAR
STARTCHAR 015D
ENCODING 349
SWIDTH 462 0
DWIDTH 9 0
BBX 7 14 1 0
BITMAP
30
48
00
00
7C
80
80
80
40
3C
02
02
02
7C
ENDCHAR
STARTCHAR 015E
ENCODING 350
SWIDTH 565 0
DWIDTH 11 0
BBX 10 18 1 -4
BITMAP
1E00
6180
8000
8000
8000
8000
6000
1E00
0180
0080
0040
0080
8080
6100
1E00
0400
0200
0C00
ENDCHAR
STARTCHAR 015F
ENCODING 351
SWIDTH 462 0
DWIDTH 9 0
BBX 7 14 1 -4
BITMAP
7C
80
80
80
40
3C
02
02
02
44
38
10
08
18
ENDCHAR
STARTCHAR 0160
ENCODING 352
SWIDTH 565 0
DWIDTH 11 0
BBX 10 16 1 1
BITMAP
1E00
0000
1E00
6180
8000
8000
8000
8000
6000
1E00
0180
0080
0040
0080
8080
7F00
ENDCHAR
STARTCHAR 0161
ENCODING 353
SWIDTH 462 0
DWIDTH 9 0
BBX 7 14 1 0
BITMAP
44
28
10
00
7C
80
80
80
40
3C
02
02
02
7C
ENDCHAR
STARTCHAR 0162
ENCODING 354
SWIDTH 514 0
DWIDTH 10 0
BBX 11 18 0 -4
BITMAP
FFE0
0400
0400
0400
0400
0400
0400
0400
0400
0400
0400
0400
0400
0400
0000
0400
0200
0600
ENDCHAR
STARTCHAR 0163
ENCODING 355
SWIDTH 360 0
DWIDTH 7 0
BBX 6 16 1 -4
BITMAP
40
40
F0
40
40
40
40
40
40
40
40
24
18
08
08
18
ENDCHAR
STARTCHAR 0164
ENCODING 356
SWIDTH 514 0
DWIDTH 10 0
BBX 11 17 0 0
BITMAP
1100
0A00
0400
FFE0
0400
0400
0400
0400
0400
0400
0400
0400
0400
0400
0400
0400
0400
ENDCHAR
STARTCHAR 0165
ENCODING 357
SWIDTH 360 0
DWIDTH 7 0
BBX 6 14 1 1
BITMAP
10
00
40
40
F0
40
40
40
40
40
40
40
40
3C
ENDCHAR
STARTCHAR 0166
ENCODING 358
SWIDTH 514 0
DWIDTH 10 0
BBX 11 14 0 0
BITMAP
FFE0
0400
0400
0400
0400
0400
0400
1F00
0400
0400
0400
0400
0400
0400
ENDCHAR
STARTCHAR 0167
ENCODING 359
SWIDTH 360 0
DWIDTH 7 0
BBX 5 12 2 0
BITMAP
80
80
E0
80
80
80
E0
80
80
80
80
78
ENDCHAR
STARTCHAR 0168
ENCODING 360
SWIDTH 771 0
DWIDTH 15 0
BBX 11 17 2 0
BITMAP
0800
1500
0200
8000
8020
8020
8020
8020
8020
8020
8020
8020
8020
8020
4040
4040
3F80
ENDCHAR
STARTCHAR 0169
ENCODING 361
SWIDTH 617 0
DWIDTH 12 0
BBX 9 14 2 0
BITMAP
3000
0A00
0400
0000
8080
8080
8080
8080
8080
8080
8080
8080
8180
7E80
ENDCHAR
STARTCHAR 016A
ENCODING 362
SWIDTH 771 0
DWIDTH 15 0
BBX 11 16 2 0
BITMAP
0E00
0000
8000
8020
8020
8020
8020
8020
8020
8020
8020
8020
8020
4040
4040
3F80
ENDCHAR
STARTCHAR 016B
ENCODING 363
SWIDTH 617 0
DWIDTH 12 0
BBX 9 13 2 0
BITMAP
1C00
0000
0000
8080
8080
8080
8080
8080
8080
8080
8080
8180
7E80
ENDCHAR
STARTCHAR 016C
ENCODING 364
SWIDTH 771 0
DWIDTH 15 0
BBX 11 17 2 0
BITMAP
1000
1100
0E00
8000
8020
8020
8020
8020
8020
8020
8020
8020
8020
8020
4040
4040
3F80
ENDCHAR
STARTCHAR 016D
ENCODING 365
SWIDTH 617 0
DWIDTH 12 0
BBX 9 13 2 1
BITMAP
2400
1800
0000
8080
8080
8080
8080
8080
8080
8080
8080
8180
7E80
ENDCHAR
STARTCHAR 016E
ENCODING 366
SWIDTH 771 0
DWIDTH 15 0
BBX 11 19 2 0
BITMAP
0600
1A00
1200
0E00
0000
8000
8020
8020
8020
8020
8020
8020
8020
8020
8020
8020
4040
4040
3F80
ENDCHAR
STARTCHAR 016F
ENCODING 367
SWIDTH 617 0
DWIDTH 12 0
BBX 9 15 2 0
BITMAP
1C00
2400
2400
1800
0000
8080
8080
8080
8080
8080
8080
8080
8080
8180
7E80
ENDCHAR
STARTCHAR 0170
ENCODING 368
SWIDTH 771 0
DWIDTH 15 0
BBX 11 17 2 0
BITMAP
0200
0D80
0000
8000
8020
8020
8020
8020
8020
8020
8020
8020
8020
8020
4040
4040
3F80
ENDCHAR
STARTCHAR 0171
ENCODING 369
SWIDTH 617 0
DWIDTH 12 0
BBX 9 14 2 0
BITMAP
0900
1200
0000
0000
8080
8080
8080
8080
8080
8080
8080
8080
8180
7E80
ENDCHAR
STARTCHAR 0172
ENCODING 370
SWIDTH 771 0
DWIDTH 15 0
BBX 11 18 2 -4
BITMAP
8000
8020
8020
8020
8020
8020
8020
8020
8020
8020
8020
4040
4040
3180
0E00
0800
1000
0C00
ENDCHAR
STARTCHAR 0173
ENCODING 371
SWIDTH 617 0
DWIDTH 12 0
BBX 9 14 2 -4
BITMAP
8080
8080
8080
8080
8080
8080
8080
8080
8180
6280
1D00
0200
0400
0300
ENDCHAR
STARTCHAR 0174
ENCODING 372
SWIDTH 1080 0
DWIDTH 21 0
BBX 19 17 1 0
BITMAP
00C000
012000
000000
004000
80C020
80C040
80A040
412040
412080
411080
221080
220900
240900
140900
140600
180600
080200
ENDCHAR
STARTCHAR 0175
ENCODING 373
SWIDTH 822 0
DWIDTH 16 0
BBX 16 14 0 0
BITMAP
0180
0240
0000
0000
8081
8182
4282
4242
4244
2444
2424
2828
1818
0810
ENDCHAR
STARTCHAR 0176
ENCODING 374
SWIDTH 565 0
DWIDTH 11 0
BBX 12 16 0 0
BITMAP
0600
0900
0000
8010
8020
4040
2040
2080
1080
1100
0A00
0600
0400
0400
0400
0400
ENDCHAR
STARTCHAR 0177
ENCODING 375
SWIDTH 462 0
DWIDTH 9 0
BBX 9 18 0 -4
BITMAP
1800
2600
0000
0000
8000
8080
4080
4100
2100
2200
1200
1400
1400
0800
0800
1000
1000
E000
ENDCHAR
STARTCHAR 0178
ENCODING 376
SWIDTH 565 0
DWIDTH 11 0
BBX 12 15 0 0
BITMAP
0900
0000
8010
8020
4040
2040
2080
1080
1100
0A00
0600
0400
0400
0400
0400
ENDCHAR
STARTCHAR 0179
ENCODING 377
SWIDTH 617 0
DWIDTH 12 0
BBX 10 16 1 1
BITMAP
0600
0000
FFC0
0040
0080
0100
0100
0200
0400
0800
1000
1000
2000
4000
8000
FFC0
ENDCHAR
STARTCHAR 017A
ENCODING 378
SWIDTH 462 0
DWIDTH 9 0
BBX 7 14 1 0
BITMAP
04
18
00
00
7E
02
04
08
10
10
20
40
80
FE
ENDCHAR
STARTCHAR 017B
ENCODING 379
SWIDTH 617 0
DWIDTH 12 0
BBX 10 16 1 0
BITMAP
0400
0000
FFC0
0040
0080
0100
0100
0200
0400
0800
1000
1000
2000
4000
8000
FFC0
ENDCHAR
STARTCHAR 017C
ENCODING 380
SWIDTH 462 0
DWIDTH 9 0
BBX 7 10 1 3
BITMAP
7E
02
04
08
10
10
20
40
80
FE
ENDCHAR
STARTCHAR 017D
ENCODING 381
SWIDTH 617 0
DWIDTH 12 0
BBX 10 17 1 0
BITMAP
1100
0E00
0000
FFC0
0040
0080
0100
0100
0200
0400
0800
1000
1000
2000
4000
8000
FFC0
ENDCHAR
STARTCHAR 017E
ENCODING 382
SWIDTH 462 0
DWIDTH 9 0
BBX 7 14 1 0
BITMAP
04
28
10
00
7E
02
04
08
10
10
20
40
80
FE
ENDCHAR
STARTCHAR 017F
ENCODING 383
SWIDTH 257 0
DWIDTH 5 0
BBX 4 13 2 0
BITMAP
F0
80
80
80
80
80
80
80
80
80
80
80
80
ENDCHAR
STARTCHAR 018F
ENCODING 399
SWIDTH 771 0
DWIDTH 15 0
BBX 14 14 1 0
BITMAP
0700
38E0
0010
0008
0008
0004
0004
FFF4
8004
8008
8008
4010
2020
1FC0
ENDCHAR
STARTCHAR 0192
ENCODING 402
SWIDTH 411 0
DWIDTH 8 0
BBX 9 18 -1 -4
BITMAP
0780
0400
0400
0800
0F00
0800
0800
0800
0800
0800
0800
1000
1000
1000
1000
1000
1000
E000
ENDCHAR
STARTCHAR 01A0
ENCODING 416
SWIDTH 822 0
DWIDTH 16 0
BBX 14 16 1 0
BITMAP
0004
0004
0788
1870
2010
4008
8004
8004
8004
8004
8004
8004
8008
4008
2010
1FE0
ENDCHAR
STARTCHAR 01A1
ENCODING 417
SWIDTH 565 0
DWIDTH 11 0
BBX 10 12 1 1
BITMAP
0040
0080
3F00
4180
8080
8040
8040
8040
8040
8080
4080
3F00
ENDCHAR
STARTCHAR 01AF
ENCODING 431
SWIDTH 771 0
DWIDTH 15 0
BBX 13 16 2 0
BITMAP
0008
0008
8010
8020
8020
8020
8020
8020
8020
8020
8020
8020
8020
4040
4040
3F80
ENDCHAR
STARTCHAR 01B0
ENCODING 432
SWIDTH 617 0
DWIDTH 12 0
BBX 10 12 2 1
BITMAP
0040
0000
80C0
8080
8080
8080
8080
8080
8080
8080
8180
7E80
ENDCHAR
STARTCHAR 01B7
ENCODING 439
SWIDTH 565 0
DWIDTH 11 0
BBX 9 14 1 0
BITMAP
FF80
0100
0200
0200
0400
0800
0800
0700
0080
0080
0080
0080
8080
7F00
ENDCHAR
STARTCHAR 01C4
ENCODING 452
SWIDTH 1440 0
DWIDTH 28 0
BBX 24 16 3 1
BITMAP
000078
000000
FC03FF
838001
804002
802004
802008
801008
801010
801020
801040
801080
802080
804100
808200
FF07FE
ENDCHAR
STARTCHAR 01C5
ENCODING 453
SWIDTH 1285 0
DWIDTH 25 0
BBX 21 14 3 0
BITMAP
FC0010
8380A0
804040
802000
8021F8
801008
801010
801020
801040
801040
802080
804100
808200
FF03F8
ENDCHAR
STARTCHAR 01C6
ENCODING 454
SWIDTH 1182 0
DWIDTH 23 0
BBX 20 14 1 0
BITMAP
004020
004140
004080
004000
3E43F0
41C010
804020
804040
804080
804080
804100
804200
41C400
3E47F0
ENDCHAR
STARTCHAR 01C7
ENCODING 455
SWIDTH 1028 0
DWIDTH 20 0
BBX 15 14 3 0
BITMAP
003E
8002
8002
8002
8002
8002
8002
8002
8002
8002
8002
8002
8002
7E7C
ENDCHAR
STARTCHAR 01C8
ENCODING 456
SWIDTH 822 0
DWIDTH 16 0
BBX 11 18 3 -4
BITMAP
0020
8000
8000
8000
8000
8020
8020
8020
8020
8020
8020
8020
8020
0020
7E20
0020
0020
01C0
ENDCHAR
STARTCHAR 01C9
ENCODING 457
SWIDTH 462 0
DWIDTH 9 0
BBX 6 18 2 -4
BITMAP
84
80
80
80
84
84
84
84
84
84
84
84
84
84
04
04
08
38
ENDCHAR
STARTCHAR 01CA
ENCODING 458
SWIDTH 1285 0
DWIDTH 25 0
BBX 20 14 3 0
BITMAP
0003F0
804010
C04010
C04010
A04010
904010
884010
884010
844010
824010
814010
80C010
80C420
0043C0
ENDCHAR
STARTCHAR 01CB
ENCODING 459
SWIDTH 1028 0
DWIDTH 20 0
BBX 16 18 3 -4
BITMAP
0001
8040
C040
C040
A041
9041
8841
8841
8441
8241
8141
80C1
80C1
0041
0001
0001
0002
000E
ENDCHAR
STARTCHAR 01CC
ENCODING 460
SWIDTH 874 0
DWIDTH 17 0
BBX 14 18 2 -4
BITMAP
0004
0000
0000
0000
BE04
C104
8084
8084
8084
8084
8084
8084
8084
8084
0004
0004
0008
0038
ENDCHAR
STARTCHAR 01CD
ENCODING 461
SWIDTH 668 0
DWIDTH 13 0
BBX 13 17 0 0
BITMAP
0880
0500
0200
0200
0600
0500
0900
0880
0880
1040
1040
2020
2020
5FD0
4010
8008
8000
ENDCHAR
STARTCHAR 01CE
ENCODING 462
SWIDTH 565 0
DWIDTH 11 0
BBX 8 14 1 0
BITMAP
20
1C
00
00
3E
01
01
01
01
FF
81
81
83
7C
ENDCHAR
STARTCHAR 01D3
ENCODING 467
SWIDTH 771 0
DWIDTH 15 0
BBX 11 17 2 0
BITMAP
1100
0A00
0400
8000
8020
8020
8020
8020
8020
8020
8020
8020
8020
8020
4040
4040
3F80
ENDCHAR
STARTCHAR 01D4
ENCODING 468
SWIDTH 617 0
DWIDTH 12 0
BBX 9 14 2 0
BITMAP
2200
1C00
0000
0000
8080
8080
8080
8080
8080
8080
8080
8080
8180
7E80
ENDCHAR
STARTCHAR 01E4
ENCODING 484
SWIDTH 771 0
DWIDTH 15 0
BBX 14 14 1 0
BITMAP
0380
1C60
2000
4000
8000
8000
8000
8010
8010
81FC
8010
4010
2010
1FE0
ENDCHAR
STARTCHAR 01E5
ENCODING 485
SWIDTH 668 0
DWIDTH 13 0
BBX 10 14 1 -4
BITMAP
3E00
41C0
80C0
8040
8040
8040
8040
80C0
4140
3E40
0040
03C0
4080
3F00
ENDCHAR
STARTCHAR 01E6
ENCODING 486
SWIDTH 771 0
DWIDTH 15 0
BBX 12 16 1 1
BITMAP
0580
0200
0380
1C60
2000
4000
8000
8000
8000
8010
8010
8010
8010
4010
2010
1FE0
ENDCHAR
STARTCHAR 01E7
ENCODING 487
SWIDTH 668 0
DWIDTH 13 0
BBX 10 17 1 -3
BITMAP
1E00
0000
0000
3E00
41C0
80C0
8040
8040
8040
8040
80C0
4140
3E40
0040
0040
4080
3F00
ENDCHAR
STARTCHAR 01E8
ENCODING 488
SWIDTH 668 0
DWIDTH 13 0
BBX 10 16 3 1
BITMAP
3C00
0000
0040
8080
8100
8200
8400
8800
9000
B000
C800
8400
8200
8100
8080
0040
ENDCHAR
STARTCHAR 01E9
ENCODING 489
SWIDTH 565 0
DWIDTH 11 0
BBX 10 18 0 0
BITMAP
9000
6000
0000
0000
2000
2000
2000
2000
2040
2080
2300
2400
2C00
3200
2100
2080
2040
2040
ENDCHAR
STARTCHAR 01EA
ENCODING 490
SWIDTH 822 0
DWIDTH 16 0
BBX 14 18 1 -4
BITMAP
0780
1860
6010
4008
8004
8004
8004
8004
8004
8004
8008
4008
2010
1860
0780
0400
0400
0600
ENDCHAR
STARTCHAR 01EB
ENCODING 491
SWIDTH 565 0
DWIDTH 11 0
BBX 10 14 1 -4
BITMAP
3E00
4180
8080
8040
8040
8040
8040
8080
4080
3300
0C00
1000
1000
0E00
ENDCHAR
STARTCHAR 01EE
ENCODING 494
SWIDTH 565 0
DWIDTH 11 0
BBX 9 17 1 0
BITMAP
2200
1400
0800
FF80
0100
0200
0200
0400
0800
0800
0700
0080
0080
0080
0080
8080
7F00
ENDCHAR
STARTCHAR 01EF
ENCODING 495
SWIDTH 462 0
DWIDTH 9 0
BBX 9 18 0 -4
BITMAP
2000
1C00
0000
0000
7F00
0200
0400
0400
0800
1000
1C00
0300
0100
0080
0080
0100
8100
7E00
ENDCHAR
STARTCHAR 01FA
ENCODING 506
SWIDTH 668 0
DWIDTH 13 0
BBX 13 20 0 0
BITMAP
0040
0380
0D00
0900
0700
0000
0200
0600
0500
0900
0880
0880
1040
1040
2020
2020
5FD0
4010
8008
8000
ENDCHAR
STARTCHAR 01FB
ENCODING 507
SWIDTH 565 0
DWIDTH 11 0
BBX 8 16 1 0
BITMAP
02
3C
24
24
18
00
3E
01
01
01
01
FF
81
81
83
7C
ENDCHAR
STARTCHAR 01FC
ENCODING 508
SWIDTH 977 0
DWIDTH 19 0
BBX 18 16 0 1
BITMAP
006000
000000
007FC0
00C000
014000
024000
024000
044000
084000
087F00
104000
204000
2F4000
404000
404000
807F80
ENDCHAR
STARTCHAR 01FD
ENCODING 509
SWIDTH 977 0
DWIDTH 19 0
BBX 17 14 1 0
BITMAP
004000
008000
000000
000000
3E3E00
01C100
008100
010080
010000
FF7F80
810000
818000
828000
7C7E00
ENDCHAR
STARTCHAR 01FE
ENCODING 510
SWIDTH 822 0
DWIDTH 16 0
BBX 14 17 1 0
BITMAP
0180
0000
0798
1870
6030
4048
8084
8084
8104
8204
8404
8404
8808
5008
2010
3860
4780
ENDCHAR
STARTCHAR 01FF
ENCODING 511
SWIDTH 565 0
DWIDTH 11 0
BBX 10 15 1 -1
BITMAP
0200
0400
0000
0080
3F00
4280
8280
8440
8840
8840
9040
A080
6080
5300
0C00
ENDCHAR
STARTCHAR 0200
ENCODING 512
SWIDTH 668 0
DWIDTH 13 0
BBX 13 17 0 0
BITMAP
1200
0900
0000
0200
0600
0500
0900
0880
0880
1040
1040
2020
2020
5FD0
4010
8008
8000
ENDCHAR
STARTCHAR 0201
ENCODING 513
SWIDTH 565 0
DWIDTH 11 0
BBX 8 13 1 1
BITMAP
68
00
00
3E
01
01
01
01
FF
81
81
83
7C
ENDCHAR
STARTCHAR 0202
ENCODING 514
SWIDTH 668 0
DWIDTH 13 0
BBX 13 17 0 0
BITMAP
0700
0880
0000
0200
0600
0500
0900
0880
0880
1040
1040
2020
2020
5FD0
4010
8008
8000
ENDCHAR
STARTCHAR 0203
ENCODING 515
SWIDTH 565 0
DWIDTH 11 0
BBX 8 14 1 0
BITMAP
3C
02
00
00
3E
01
01
01
01
FF
81
81
83
7C
ENDCHAR
STARTCHAR 0204
ENCODING 516
SWIDTH 617 0
DWIDTH 12 0
BBX 8 17 3 0
BITMAP
90
48
00
FF
80
80
80
80
80
80
FC
80
80
80
80
80
FF
ENDCHAR
STARTCHAR 0205
ENCODING 517
SWIDTH 565 0
DWIDTH 11 0
BBX 9 14 1 0
BITMAP
4800
2400
0000
0000
3E00
4100
8080
8080
8000
FF80
8000
8000
4080
3F00
ENDCHAR
STARTCHAR 0206
ENCODING 518
SWIDTH 617 0
DWIDTH 12 0
BBX 8 17 3 0
BITMAP
3C
00
00
FF
80
80
80
80
80
80
FC
80
80
80
80
80
FF
ENDCHAR
STARTCHAR 0207
ENCODING 519
SWIDTH 565 0
DWIDTH 11 0
BBX 9 14 1 0
BITMAP
1C00
2000
0000
0000
3E00
4100
8080
8080
8000
FF80
8000
8000
4080
3F00
ENDCHAR
STARTCHAR 0208
ENCODING 520
SWIDTH 257 0
DWIDTH 5 0
BBX 5 16 -1 0
BITMAP
90
48
00
00
10
10
10
10
10
10
10
10
10
10
10
10
ENDCHAR
STARTCHAR 0209
ENCODING 521
SWIDTH 205 0
DWIDTH 4 0
BBX 5 14 -1 0
BITMAP
80
50
08
00
10
10
10
10
10
10
10
10
10
10
ENDCHAR
STARTCHAR 020A
ENCODING 522
SWIDTH 257 0
DWIDTH 5 0
BBX 4 16 0 0
BITMAP
70
80
00
00
20
20
20
20
20
20
20
20
20
20
20
20
ENDCHAR
STARTCHAR 020B
ENCODING 523
SWIDTH 205 0
DWIDTH 4 0
BBX 4 14 0 0
BITMAP
70
80
00
00
20
20
20
20
20
20
20
20
20
20
ENDCHAR
STARTCHAR 020C
ENCODING 524
SWIDTH 822 0
DWIDTH 16 0
BBX 14 17 1 0
BITMAP
0200
0900
0400
0780
1860
6010
4008
8004
8004
8004
8004
8004
8004
8008
4008
2010
1FE0
ENDCHAR
STARTCHAR 020D
ENCODING 525
SWIDTH 565 0
DWIDTH 11 0
BBX 10 14 1 0
BITMAP
4800
2400
0000
0000
3E00
4180
8080
8040
8040
8040
8040
8080
4080
3F00
ENDCHAR
STARTCHAR 020E
ENCODING 526
SWIDTH 822 0
DWIDTH 16 0
BBX 14 17 1 0
BITMAP
0380
0040
0000
0780
1860
6010
4008
8004
8004
8004
8004
8004
8004
8008
4008
2010
1FE0
ENDCHAR
STARTCHAR 020F
ENCODING 527
SWIDTH 565 0
DWIDTH 11 0
BBX 10 14 1 0
BITMAP
1E00
2000
0000
0000
3E00
4180
8080
8040
8040
8040
8040
8080
4080
3F00
ENDCHAR
STARTCHAR 0210
ENCODING 528
SWIDTH 668 0
DWIDTH 13 0
BBX 10 16 3 0
BITMAP
1000
4800
2000
FC00
8300
8080
8080
8040
8080
8080
8080
8100
FE00
8200
8100
8080
ENDCHAR
STARTCHAR 0211
ENCODING 529
SWIDTH 360 0
DWIDTH 7 0
BBX 5 14 1 0
BITMAP
80
50
08
00
58
60
40
40
40
40
40
40
40
40
ENDCHAR
STARTCHAR 0212
ENCODING 530
SWIDTH 668 0
DWIDTH 13 0
BBX 10 16 3 0
BITMAP
1C00
0200
0000
FC00
8300
8080
8080
8040
8080
8080
8080
8100
FE00
8200
8100
8080
ENDCHAR
STARTCHAR 0213
ENCODING 531
SWIDTH 360 0
DWIDTH 7 0
BBX 5 14 2 0
BITMAP
70
88
00
00
B0
C0
80
80
80
80
80
80
80
80
ENDCHAR
STARTCHAR 0214
ENCODING 532
SWIDTH 771 0
DWIDTH 15 0
BBX 11 17 2 0
BITMAP
2400
1200
0000
8000
8020
8020
8020
8020
8020
8020
8020
8020
8020
8020
4040
4040
3F80
ENDCHAR
STARTCHAR 0215
ENCODING 533
SWIDTH 617 0
DWIDTH 12 0
BBX 9 14 2 0
BITMAP
4000
2800
0000
0000
8080
8080
8080
8080
8080
8080
8080
8080
8180
7E80
ENDCHAR
STARTCHAR 0216
ENCODING 534
SWIDTH 771 0
DWIDTH 15 0
BBX 11 17 2 0
BITMAP
0E00
1000
0000
8000
8020
8020
8020
8020
8020
8020
8020
8020
8020
8020
4040
4040
3F80
ENDCHAR
STARTCHAR 0217
ENCODING 535
SWIDTH 617 0
DWIDTH 12 0
BBX 9 14 2 0
BITMAP
1C00
2200
0000
0000
8080
8080
8080
8080
8080
8080
8080
8080
8180
7E80
ENDCHAR
STARTCHAR 0218
ENCODING 536
SWIDTH 565 0
DWIDTH 11 0
BBX 10 18 1 -5
BITMAP
1E00
6180
8000
8000
8000
8000
6000
1E00
0180
0080
0040
0080
8080
6100
1E00
0000
0000
0400
ENDCHAR
STARTCHAR 0219
ENCODING 537
SWIDTH 462 0
DWIDTH 9 0
BBX 7 15 1 -5
BITMAP
7C
80
80
80
40
3C
02
02
02
44
38
00
10
10
10
ENDCHAR
STARTCHAR 021A
ENCODING 538
SWIDTH 514 0
DWIDTH 10 0
BBX 11 18 0 -5
BITMAP
FFE0
0400
0400
0400
0400
0400
0400
0400
0400
0400
0400
0400
0400
0400
0000
0000
0400
0400
ENDCHAR
STARTCHAR 021B
ENCODING 539
SWIDTH 360 0
DWIDTH 7 0
BBX 6 17 1 -5
BITMAP
40
40
F0
40
40
40
40
40
40
40
40
24
18
00
10
10
10
ENDCHAR
STARTCHAR 021E
ENCODING 542
SWIDTH 771 0
DWIDTH 15 0
BBX 10 15 3 1
BITMAP
1600
0800
0000
8040
8040
8040
8040
8040
8040
FFC0
8040
8040
8040
8040
8040
ENDCHAR
STARTCHAR 021F
ENCODING 543
SWIDTH 617 0
DWIDTH 12 0
BBX 11 18 0 0
BITMAP
9000
6000
0000
0000
2000
2000
2000
2000
2F80
3040
2020
2020
2020
2020
2020
2020
2020
2020
ENDCHAR
STARTCHAR 022A
ENCODING 554
SWIDTH 822 0
DWIDTH 16 0
BBX 14 18 1 0
BITMAP
0FC0
0000
0480
0000
0780
1860
6010
4008
8004
8004
8004
8004
8004
8004
8008
4008
2010
1FE0
ENDCHAR
STARTCHAR 022B
ENCODING 555
SWIDTH 565 0
DWIDTH 11 0
BBX 10 15 1 0
BITMAP
1E00
0000
1200
0000
0000
3E00
4180
8080
8040
8040
8040
8040
8080
4080
3F00
ENDCHAR
STARTCHAR 022C
ENCODING 556
SWIDTH 822 0
DWIDTH 16 0
BBX 14 18 1 0
BITMAP
0FC0
0000
0380
0000
0780
1860
6010
4008
8004
8004
8004
8004
8004
8004
8008
4008
2010
1FE0
ENDCHAR
STARTCHAR 022D
ENCODING 557
SWIDTH 565 0
DWIDTH 11 0
BBX 10 15 1 0
BITMAP
1E00
1000
2E00
0000
0000
3E00
4180
8080
8040
8040
8040
8040
8080
4080
3F00
ENDCHAR
STARTCHAR 0230
ENCODING 560
SWIDTH 822 0
DWIDTH 16 0
BBX 14 18 1 0
BITMAP
0FC0
0000
0000
0000
0780
1860
6010
4008
8004
8004
8004
8004
8004
8004
8008
4008
2010
1FE0
ENDCHAR
STARTCHAR 0231
ENCODING 561
SWIDTH 565 0
DWIDTH 11 0
BBX 10 15 1 0
BITMAP
1E00
0000
0000
0000
0000
3E00
4180
8080
8040
8040
8040
8040
8080
4080
3F00
ENDCHAR
STARTCHAR 0232
ENCODING 562
SWIDTH 565 0
DWIDTH 11 0
BBX 12 15 0 0
BITMAP
0F00
0000
8010
8020
4040
2040
2080
1080
1100
0A00
0600
0400
0400
0400
0400
ENDCHAR
STARTCHAR 0233
ENCODING 563
SWIDTH 462 0
DWIDTH 9 0
BBX 9 17 0 -4
BITMAP
1C00
0000
0000
8000
8080
4080
4100
2100
2200
1200
1400
1400
0800
0800
1000
1000
E000
ENDCHAR
STARTCHAR 0237
ENCODING 567
SWIDTH 205 0
DWIDTH 4 0
BBX 4 14 -1 -4
BITMAP
10
10
10
10
10
10
10
10
10
10
10
10
10
E0
ENDCHAR
STARTCHAR 0259
ENCODING 601
SWIDTH 565 0
DWIDTH 11 0
BBX 9 10 1 0
BITMAP
3E00
0100
0080
0080
0080
FF80
8080
8080
4100
3E00
ENDCHAR
STARTCHAR 0292
ENCODING 658
SWIDTH 462 0
DWIDTH 9 0
BBX 9 14 0 -4
BITMAP
7F00
0200
0400
0400
0800
1000
1C00
0300
0100
0080
0080
0100
8100
7E00
ENDCHAR
STARTCHAR 02B9
ENCODING 697
SWIDTH 154 0
DWIDTH 3 0
BBX 1 3 1 10
BITMAP
80
80
80
ENDCHAR
STARTCHAR 02BA
ENCODING 698
SWIDTH 308 0
DWIDTH 6 0
BBX 3 3 2 10
BITMAP
A0
A0
A0
ENDCHAR
STARTCHAR 02BB
ENCODING 699
SWIDTH 205 0
DWIDTH 4 0
BBX 1 3 2 12
BITMAP
80
80
80
ENDCHAR
STARTCHAR 02BC
ENCODING 700
SWIDTH 154 0
DWIDTH 3 0
BBX 1 3 1 11
BITMAP
80
80
80
ENDCHAR
STARTCHAR 02BE
ENCODING 702
SWIDTH 565 0
DWIDTH 11 0
BBX 2 2 6 12
BITMAP
80
40
ENDCHAR
STARTCHAR 02BF
ENCODING 703
SWIDTH 565 0
DWIDTH 11 0
BBX 1 3 4 12
BITMAP
80
80
80
ENDCHAR
STARTCHAR 02C6
ENCODING 710
SWIDTH 565 0
DWIDTH 11 0
BBX 4 2 4 12
BITMAP
60
90
ENDCHAR
STARTCHAR 02C7
ENCODING 711
SWIDTH 565 0
DWIDTH 11 0
BBX 4 2 4 12
BITMAP
10
E0
ENDCHAR
STARTCHAR 02C8
ENCODING 712
SWIDTH 154 0
DWIDTH 3 0
BBX 1 4 1 10
BITMAP
80
80
80
80
ENDCHAR
STARTCHAR 02C9
ENCODING 713
SWIDTH 565 0
DWIDTH 11 0
BBX 3 1 4 12
BITMAP
E0
ENDCHAR
STARTCHAR 02CA
ENCODING 714
SWIDTH 565 0
DWIDTH 11 0
BBX 2 2 6 12
BITMAP
40
80
ENDCHAR
STARTCHAR 02CB
ENCODING 715
SWIDTH 565 0
DWIDTH 11 0
BBX 2 2 4 12
BITMAP
80
40
ENDCHAR
STARTCHAR 02CC
ENCODING 716
SWIDTH 154 0
DWIDTH 3 0
BBX 1 3 1 -4
BITMAP
80
80
80
ENDCHAR
STARTCHAR 02D8
ENCODING 728
SWIDTH 565 0
DWIDTH 11 0
BBX 5 2 3 12
BITMAP
80
F8
ENDCHAR
STARTCHAR 02D9
ENCODING 729
SWIDTH 565 0
DWIDTH 11 0
BBX 0 0 5 12
BITMAP
ENDCHAR
STARTCHAR 02DA
ENCODING 730
SWIDTH 565 0
DWIDTH 11 0
BBX 4 3 4 12
BITMAP
E0
90
E0
ENDCHAR
STARTCHAR 02DB
ENCODING 731
SWIDTH 565 0
DWIDTH 11 0
BBX 2 4 3 -4
BITMAP
40
80
80
C0
ENDCHAR
STARTCHAR 02DC
ENCODING 732
SWIDTH 565 0
DWIDTH 11 0
BBX 5 2 3 12
BITMAP
40
B8
ENDCHAR
STARTCHAR 02DD
ENCODING 733
SWIDTH 565 0
DWIDTH 11 0
BBX 5 2 4 12
BITMAP
20
D8
ENDCHAR
STARTCHAR 0300
ENCODING 768
SWIDTH 0 0
DWIDTH 0 0
BBX 2 2 4 12
BITMAP
80
40
ENDCHAR
STARTCHAR 0301
ENCODING 769
SWIDTH 0 0
DWIDTH 0 0
BBX 2 2 6 12
BITMAP
40
80
ENDCHAR
STARTCHAR 0302
ENCODING 770
SWIDTH 0 0
DWIDTH 0 0
BBX 4 2 4 12
BITMAP
60
90
ENDCHAR
STARTCHAR 0303
ENCODING 771
SWIDTH 0 0
DWIDTH 0 0
BBX 5 2 3 12
BITMAP
40
B8
ENDCHAR
STARTCHAR 0304
ENCODING 772
SWIDTH 0 0
DWIDTH 0 0
BBX 3 1 4 12
BITMAP
E0
ENDCHAR
STARTCHAR 0306
ENCODING 774
SWIDTH 0 0
DWIDTH 0 0
BBX 5 2 3 12
BITMAP
80
F8
ENDCHAR
STARTCHAR 0307
ENCODING 775
SWIDTH 0 0
DWIDTH 0 0
BBX 0 0 5 12
BITMAP
ENDCHAR
STARTCHAR 0308
ENCODING 776
SWIDTH 0 0
DWIDTH 0 0
BBX 1 1 7 12
BITMAP
80
ENDCHAR
STARTCHAR 0309
ENCODING 777
SWIDTH 0 0
DWIDTH 0 0
BBX 3 3 4 12
BITMAP
E0
20
20
ENDCHAR
STARTCHAR 030A
ENCODING 778
SWIDTH 0 0
DWIDTH 0 0
BBX 4 3 4 12
BITMAP
E0
90
E0
ENDCHAR
STARTCHAR 030B
ENCODING 779
SWIDTH 0 0
DWIDTH 0 0
BBX 5 2 4 12
BITMAP
20
D8
ENDCHAR
STARTCHAR 030C
ENCODING 780
SWIDTH 0 0
DWIDTH 0 0
BBX 4 2 4 12
BITMAP
10
E0
ENDCHAR
STARTCHAR 030F
ENCODING 783
SWIDTH 0 0
DWIDTH 0 0
BBX 5 2 2 12
BITMAP
90
48
ENDCHAR
STARTCHAR 0311
ENCODING 785
SWIDTH 0 0
DWIDTH 0 0
BBX 5 2 3 12
BITMAP
78
80
ENDCHAR
STARTCHAR 0312
ENCODING 786
SWIDTH 0 0
DWIDTH 0 0
BBX 1 2 5 13
BITMAP
80
80
ENDCHAR
STARTCHAR 031B
ENCODING 795
SWIDTH 0 0
DWIDTH 0 0
BBX 1 1 7 11
BITMAP
80
ENDCHAR
STARTCHAR 0323
ENCODING 803
SWIDTH 0 0
DWIDTH 0 0
BBX 0 0 5 -3
BITMAP
ENDCHAR
STARTCHAR 0324
ENCODING 804
SWIDTH 0 0
DWIDTH 0 0
BBX 4 1 4 -3
BITMAP
90
ENDCHAR
STARTCHAR 0326
ENCODING 806
SWIDTH 0 0
DWIDTH 0 0
BBX 1 1 5 -4
BITMAP
80
ENDCHAR
STARTCHAR 0327
ENCODING 807
SWIDTH 0 0
DWIDTH 0 0
BBX 3 4 4 -4
BITMAP
40
20
20
E0
ENDCHAR
STARTCHAR 0328
ENCODING 808
SWIDTH 0 0
DWIDTH 0 0
BBX 2 4 3 -4
BITMAP
40
80
80
C0
ENDCHAR
STARTCHAR 032E
ENCODING 814
SWIDTH 0 0
DWIDTH 0 0
BBX 4 2 3 -4
BITMAP
80
70
ENDCHAR
STARTCHAR 0331
ENCODING 817
SWIDTH 0 0
DWIDTH 0 0
BBX 3 1 4 -3
BITMAP
E0
ENDCHAR
STARTCHAR 0335
ENCODING 821
SWIDTH 0 0
DWIDTH 0 0
BBX 8 1 2 8
BITMAP
FF
ENDCHAR
STARTCHAR 0336
ENCODING 822
SWIDTH 0 0
DWIDTH 0 0
BBX 15 1 0 8
BITMAP
FFFE
ENDCHAR
STARTCHAR 0337
ENCODING 823
SWIDTH 0 0
DWIDTH 0 0
BBX 4 3 1 6
BITMAP
10
60
80
ENDCHAR
STARTCHAR 0338
ENCODING 824
SWIDTH 0 0
DWIDTH 0 0
BBX 8 11 2 -1
BITMAP
01
02
04
04
08
10
10
20
40
40
80
ENDCHAR
STARTCHAR 0394
ENCODING 916
SWIDTH 668 0
DWIDTH 13 0
BBX 13 14 0 0
BITMAP
0200
0600
0500
0900
0880
0880
1040
1040
2020
2020
4010
4010
8008
FFF8
ENDCHAR
STARTCHAR 03A9
ENCODING 937
SWIDTH 874 0
DWIDTH 17 0
BBX 16 14 1 0
BITMAP
0380
0C70
3008
4004
4004
8002
8002
8002
8002
4004
4004
2008
1008
F83F
ENDCHAR
STARTCHAR 03BC
ENCODING 956
SWIDTH 668 0
DWIDTH 13 0
BBX 9 14 2 -4
BITMAP
8080
8080
8080
8080
8080
8080
8080
8080
8180
E280
9C00
8000
8000
8000
ENDCHAR
STARTCHAR 03C0
ENCODING 960
SWIDTH 668 0
DWIDTH 13 0
BBX 13 9 0 0
BITMAP
7FF8
8840
8840
8840
0840
0840
1040
1040
1040
ENDCHAR
STARTCHAR 0400
ENCODING 1024
SWIDTH 617 0
DWIDTH 12 0
BBX 8 17 3 0
BITMAP
20
10
00
FF
80
80
80
80
80
80
FE
80
80
80
80
80
FF
ENDCHAR
STARTCHAR 0401
ENCODING 1025
SWIDTH 617 0
DWIDTH 12 0
BBX 8 16 3 0
BITMAP
24
00
FF
80
80
80
80
80
80
FE
80
80
80
80
80
FF
ENDCHAR
STARTCHAR 0402
ENCODING 1026
SWIDTH 771 0
DWIDTH 15 0
BBX 15 14 0 0
BITMAP
FFE0
0400
0400
0400
0400
0400
05F8
0604
0402
0402
0402
0402
0404
0438
ENDCHAR
STARTCHAR 0403
ENCODING 1027
SWIDTH 514 0
DWIDTH 10 0
BBX 8 16 3 0
BITMAP
04
18
00
FF
80
80
80
80
80
80
80
80
80
80
80
80
ENDCHAR
STARTCHAR 0404
ENCODING 1028
SWIDTH 668 0
DWIDTH 13 0
BBX 12 14 1 0
BITMAP
0780
1860
2000
4000
8000
8000
8000
FF80
8000
8000
4000
4000
2010
1FE0
ENDCHAR
STARTCHAR 0405
ENCODING 1029
SWIDTH 565 0
DWIDTH 11 0
BBX 10 14 1 0
BITMAP
1E00
6180
8000
8000
8000
4000
2000
1E00
0180
0080
0040
0040
8080
7F00
ENDCHAR
STARTCHAR 0406
ENCODING 1030
SWIDTH 257 0
DWIDTH 5 0
BBX 1 12 2 1
BITMAP
80
80
80
80
80
80
80
80
80
80
80
80
ENDCHAR
STARTCHAR 0407
ENCODING 1031
SWIDTH 257 0
DWIDTH 5 0
BBX 4 15 1 0
BITMAP
90
00
00
40
40
40
40
40
40
40
40
40
40
40
40
ENDCHAR
STARTCHAR 0408
ENCODING 1032
SWIDTH 462 0
DWIDTH 9 0
BBX 5 14 2 0
BITMAP
F8
08
08
08
08
08
08
08
08
08
08
08
08
F0
ENDCHAR
STARTCHAR 0409
ENCODING 1033
SWIDTH 1182 0
DWIDTH 23 0
BBX 21 14 1 0
BITMAP
1FE000
202000
202000
202000
202000
202000
203FF0
202008
202008
202008
202008
402008
402010
803FE0
ENDCHAR
STARTCHAR 040A
ENCODING 1034
SWIDTH 1182 0
DWIDTH 23 0
BBX 19 14 3 0
BITMAP
004000
804000
804000
804000
804000
804000
FFFF00
8040C0
804020
804020
804020
804020
804040
007F80
ENDCHAR
STARTCHAR 040B
ENCODING 1035
SWIDTH 822 0
DWIDTH 16 0
BBX 15 14 0 0
BITMAP
FFE0
0400
0400
0400
0400
0400
05F8
0604
0402
0402
0402
0402
0402
0402
ENDCHAR
STARTCHAR 040C
ENCODING 1036
SWIDTH 668 0
DWIDTH 13 0
BBX 9 16 3 0
BITMAP
0400
1800
0000
0000
8180
8100
8200
8400
8800
8000
F000
8800
8400
8200
8100
8080
ENDCHAR
STARTCHAR 040D
ENCODING 1037
SWIDTH 822 0
DWIDTH 16 0
BBX 10 17 3 0
BITMAP
1000
0800
0000
0000
8040
80C0
8140
8240
8240
8440
8840
9040
A040
A040
C040
8040
8000
ENDCHAR
STARTCHAR 040E
ENCODING 1038
SWIDTH 617 0
DWIDTH 12 0
BBX 11 17 1 0
BITMAP
2000
1300
0C00
0000
8020
8040
4040
4080
2080
2100
1100
1200
0C00
0400
0800
0800
7000
ENDCHAR
STARTCHAR 040F
ENCODING 1039
SWIDTH 771 0
DWIDTH 15 0
BBX 10 15 3 -2
BITMAP
8040
8040
8040
8040
8040
8040
8040
8040
8040
8040
8040
8040
8040
7F80
0800
ENDCHAR
STARTCHAR 0410
ENCODING 1040
SWIDTH 668 0
DWIDTH 13 0
BBX 12 12 1 1
BITMAP
0600
0A00
0900
1100
1080
2080
2080
4040
4040
5FA0
8020
8010
ENDCHAR
STARTCHAR 0411
ENCODING 1041
SWIDTH 668 0
DWIDTH 13 0
BBX 10 14 3 0
BITMAP
FF80
8000
8000
8000
8000
8000
FE00
8180
8080
8040
8040
8040
8080
FF00
ENDCHAR
STARTCHAR 0412
ENCODING 1042
SWIDTH 720 0
DWIDTH 14 0
BBX 10 14 3 0
BITMAP
FC00
8300
8080
8080
8080
8080
8100
FF00
8080
8040
8040
8040
8080
FF00
ENDCHAR
STARTCHAR 0413
ENCODING 1043
SWIDTH 514 0
DWIDTH 10 0
BBX 8 13 3 0
BITMAP
FF
80
80
80
80
80
80
80
80
80
80
80
80
ENDCHAR
STARTCHAR 0414
ENCODING 1044
SWIDTH 771 0
DWIDTH 15 0
BBX 14 17 0 -3
BITMAP
0FF0
1010
1010
1010
1010
1010
1010
1010
1010
1010
2010
2010
2010
4000
BFFC
8004
8000
ENDCHAR
STARTCHAR 0415
ENCODING 1045
SWIDTH 617 0
DWIDTH 12 0
BBX 8 14 3 0
BITMAP
FF
80
80
80
80
80
80
FE
80
80
80
80
80
FF
ENDCHAR
STARTCHAR 0416
ENCODING 1046
SWIDTH 925 0
DWIDTH 18 0
BBX 17 14 1 0
BITMAP
808080
808100
408200
208200
208400
108800
088800
0AE800
108800
208400
208200
408200
808100
008080
ENDCHAR
STARTCHAR 0417
ENCODING 1047
SWIDTH 617 0
DWIDTH 12 0
BBX 10 14 1 0
BITMAP
1C00
E300
0080
0080
0080
0100
0200
1D00
0080
0080
0040
0080
8080
7F00
ENDCHAR
STARTCHAR 0418
ENCODING 1048
SWIDTH 822 0
DWIDTH 16 0
BBX 10 13 3 1
BITMAP
8040
80C0
8140
8240
8240
8440
8840
9040
A040
A040
C040
8040
8000
ENDCHAR
STARTCHAR 0419
ENCODING 1049
SWIDTH 822 0
DWIDTH 16 0
BBX 10 17 3 0
BITMAP
2100
2200
1C00
0000
8040
80C0
8140
8240
8240
8440
8840
9040
A040
A040
C040
8040
8000
ENDCHAR
STARTCHAR 041A
ENCODING 1050
SWIDTH 668 0
DWIDTH 13 0
BBX 9 12 3 1
BITMAP
8180
8100
8200
8400
8800
8000
F000
8800
8400
8200
8100
8080
ENDCHAR
STARTCHAR 041B
ENCODING 1051
SWIDTH 771 0
DWIDTH 15 0
BBX 11 14 1 0
BITMAP
1FE0
2020
2020
2020
2020
2020
2020
2020
2020
2020
2020
4020
4020
8000
ENDCHAR
STARTCHAR 041C
ENCODING 1052
SWIDTH 925 0
DWIDTH 18 0
BBX 13 12 3 1
BITMAP
8008
8018
C028
C028
A048
A048
9088
8888
8908
8608
8208
8008
ENDCHAR
STARTCHAR 041D
ENCODING 1053
SWIDTH 822 0
DWIDTH 16 0
BBX 10 12 3 1
BITMAP
8040
8040
8040
8040
8040
8040
FFC0
8040
8040
8040
8040
8040
ENDCHAR
STARTCHAR 041E
ENCODING 1054
SWIDTH 822 0
DWIDTH 16 0
BBX 14 14 1 0
BITMAP
0380
1C60
2010
4008
8004
8004
8004
8004
8004
8004
4008
4008
2010
1FE0
ENDCHAR
STARTCHAR 041F
ENCODING 1055
SWIDTH 822 0
DWIDTH 16 0
BBX 11 14 3 0
BITMAP
FFE0
8020
8020
8020
8020
8020
8020
8020
8020
8020
8020
8020
8020
0020
ENDCHAR
STARTCHAR 0420
ENCODING 1056
SWIDTH 668 0
DWIDTH 13 0
BBX 10 13 3 0
BITMAP
FC00
8300
8080
8080
8040
8040
8080
8080
8100
FE00
8000
8000
8000
ENDCHAR
STARTCHAR 0421
ENCODING 1057
SWIDTH 668 0
DWIDTH 13 0
BBX 12 14 1 0
BITMAP
0380
1C60
2000
4000
8000
8000
8000
8000
8000
8000
4000
4000
2010
1FE0
ENDCHAR
STARTCHAR 0422
ENCODING 1058
SWIDTH 514 0
DWIDTH 10 0
BBX 11 14 0 0
BITMAP
FFE0
0400
0400
0400
0400
0400
0400
0400
0400
0400
0400
0400
0400
0400
ENDCHAR
STARTCHAR 0423
ENCODING 1059
SWIDTH 617 0
DWIDTH 12 0
BBX 11 13 1 1
BITMAP
8020
8040
4040
4080
2080
2100
1100
1200
0C00
0400
0800
0800
7000
ENDCHAR
STARTCHAR 0424
ENCODING 1060
SWIDTH 874 0
DWIDTH 17 0
BBX 15 13 1 1
BITMAP
03C0
1D38
6104
8102
8102
8102
8102
8102
8102
4104
2108
1D30
02C0
ENDCHAR
STARTCHAR 0425
ENCODING 1061
SWIDTH 565 0
DWIDTH 11 0
BBX 10 14 1 0
BITMAP
8040
8080
4100
2100
2200
1400
0C00
0C00
1400
2200
2100
4100
8080
0040
ENDCHAR
STARTCHAR 0426
ENCODING 1062
SWIDTH 771 0
DWIDTH 15 0
BBX 12 15 3 -2
BITMAP
8040
8040
8040
8040
8040
8040
8040
8040
8040
8040
8040
8040
8040
7F90
0010
ENDCHAR
STARTCHAR 0427
ENCODING 1063
SWIDTH 720 0
DWIDTH 14 0
BBX 10 13 1 0
BITMAP
8000
8040
8040
8040
8040
8040
8040
4040
31C0
0E40
0040
0040
0040
ENDCHAR
STARTCHAR 0428
ENCODING 1064
SWIDTH 1080 0
DWIDTH 21 0
BBX 16 14 3 0
BITMAP
0101
8101
8101
8101
8101
8101
8101
8101
8101
8101
8101
8101
8101
FFFF
ENDCHAR
STARTCHAR 0429
ENCODING 1065
SWIDTH 1080 0
DWIDTH 21 0
BBX 18 17 3 -3
BITMAP
010100
810100
810100
810100
810100
810100
810100
810100
810100
810100
810100
810100
810100
810100
7EFEC0
000040
000040
ENDCHAR
STARTCHAR 042A
ENCODING 1066
SWIDTH 771 0
DWIDTH 15 0
BBX 15 14 0 0
BITMAP
F800
0800
0800
0800
0800
0800
0FF8
0804
0804
0802
0802
0804
0804
0FF8
ENDCHAR
STARTCHAR 042B
ENCODING 1067
SWIDTH 925 0
DWIDTH 18 0
BBX 13 14 3 0
BITMAP
0008
8008
8008
8008
8008
8008
FF08
8088
8048
8048
8048
8088
8088
FF08
ENDCHAR
STARTCHAR 042C
ENCODING 1068
SWIDTH 668 0
DWIDTH 13 0
BBX 10 13 3 1
BITMAP
8000
8000
8000
8000
8000
FF00
8080
8040
8040
8040
8080
8080
FF00
ENDCHAR
STARTCHAR 042D
ENCODING 1069
SWIDTH 668 0
DWIDTH 13 0
BBX 11 14 1 0
BITMAP
1C00
E300
00C0
0040
0020
0020
0020
0FE0
0020
0020
0020
0040
8080
7F00
ENDCHAR
STARTCHAR 042E
ENCODING 1070
SWIDTH 1080 0
DWIDTH 21 0
BBX 17 14 3 0
BITMAP
00F000
830C00
840200
880100
900100
900100
900080
F00080
900100
900100
880100
880200
840400
03F800
ENDCHAR
STARTCHAR 042F
ENCODING 1071
SWIDTH 720 0
DWIDTH 14 0
BBX 10 14 2 0
BITMAP
1FC0
6040
8040
8040
8040
8040
8040
8040
4040
3FC0
2040
4040
8040
0040
ENDCHAR
STARTCHAR 0430
ENCODING 1072
SWIDTH 565 0
DWIDTH 11 0
BBX 8 10 1 0
BITMAP
3E
01
01
01
01
FF
81
81
83
7C
ENDCHAR
STARTCHAR 0431
ENCODING 1073
SWIDTH 617 0
DWIDTH 12 0
BBX 9 15 2 0
BITMAP
0080
0F00
7000
8000
8000
9E00
E100
8080
8080
8080
8080
8080
8080
4100
3E00
ENDCHAR
STARTCHAR 0432
ENCODING 1074
SWIDTH 565 0
DWIDTH 11 0
BBX 8 10 2 0
BITMAP
FE
82
81
82
82
FE
81
81
81
FE
ENDCHAR
STARTCHAR 0433
ENCODING 1075
SWIDTH 411 0
DWIDTH 8 0
BBX 6 10 2 0
BITMAP
FC
80
80
80
80
80
80
80
80
80
ENDCHAR
STARTCHAR 0434
ENCODING 1076
SWIDTH 617 0
DWIDTH 12 0
BBX 11 13 0 -3
BITMAP
3FC0
2040
2040
2040
2040
2040
2040
2040
4040
4040
BFA0
8020
8000
ENDCHAR
STARTCHAR 0435
ENCODING 1077
SWIDTH 565 0
DWIDTH 11 0
BBX 10 10 1 0
BITMAP
3E00
4100
8080
8080
8040
FF80
8000
8000
4080
3F00
ENDCHAR
STARTCHAR 0436
ENCODING 1078
SWIDTH 771 0
DWIDTH 15 0
BBX 13 10 1 0
BITMAP
8208
8210
4220
2220
1200
0680
2220
4210
8210
0208
ENDCHAR
STARTCHAR 0437
ENCODING 1079
SWIDTH 462 0
DWIDTH 9 0
BBX 7 10 2 0
BITMAP
F8
04
04
04
08
34
04
02
04
F8
ENDCHAR
STARTCHAR 0438
ENCODING 1080
SWIDTH 668 0
DWIDTH 13 0
BBX 9 10 2 0
BITMAP
8080
8180
8280
8480
8880
9080
9080
A080
C080
8080
ENDCHAR
STARTCHAR 0439
ENCODING 1081
SWIDTH 668 0
DWIDTH 13 0
BBX 9 13 2 1
BITMAP
2200
1C00
0000
8080
8180
8280
8480
8880
9080
9080
A080
C080
8080
ENDCHAR
STARTCHAR 043A
ENCODING 1082
SWIDTH 514 0
DWIDTH 10 0
BBX 8 10 2 0
BITMAP
80
82
84
88
80
A0
88
84
82
81
ENDCHAR
STARTCHAR 043B
ENCODING 1083
SWIDTH 565 0
DWIDTH 11 0
BBX 9 10 1 0
BITMAP
7F80
4080
4080
4080
4080
4080
4080
4080
4080
8080
ENDCHAR
STARTCHAR 043C
ENCODING 1084
SWIDTH 771 0
DWIDTH 15 0
BBX 11 10 2 0
BITMAP
8020
C020
C0E0
A0A0
A120
9120
8A20
8C20
8420
8020
ENDCHAR
STARTCHAR 043D
ENCODING 1085
SWIDTH 617 0
DWIDTH 12 0
BBX 9 10 2 0
BITMAP
8080
8080
8080
8080
8080
FF80
8080
8080
8080
8080
ENDCHAR
STARTCHAR 043E
ENCODING 1086
SWIDTH 617 0
DWIDTH 12 0
BBX 10 10 1 0
BITMAP
1F00
6080
8080
8040
8040
8040
8040
8080
4080
3F00
ENDCHAR
STARTCHAR 043F
ENCODING 1087
SWIDTH 617 0
DWIDTH 12 0
BBX 9 10 2 0
BITMAP
FF80
8080
8080
8080
8080
8080
8080
8080
8080
8080
ENDCHAR
STARTCHAR 0440
ENCODING 1088
SWIDTH 668 0
DWIDTH 13 0
BBX 10 14 2 -4
BITMAP
9F00
E080
8040
8040
8040
8040
8040
8080
C080
B300
8C00
8000
8000
8000
ENDCHAR
STARTCHAR 0441
ENCODING 1089
SWIDTH 514 0
DWIDTH 10 0
BBX 9 10 1 0
BITMAP
1F00
6080
8000
8000
8000
8000
8000
8000
4080
3F00
ENDCHAR
STARTCHAR 0442
ENCODING 1090
SWIDTH 411 0
DWIDTH 8 0
BBX 6 9 1 0
BITMAP
FC
20
20
20
20
20
20
20
20
ENDCHAR
STARTCHAR 0443
ENCODING 1091
SWIDTH 514 0
DWIDTH 10 0
BBX 10 14 0 -4
BITMAP
0040
8080
4080
4100
2100
2200
1200
1400
0C00
0400
0800
0800
1000
E000
ENDCHAR
STARTCHAR 0444
ENCODING 1092
SWIDTH 720 0
DWIDTH 14 0
BBX 12 16 1 -3
BITMAP
0400
0400
0400
1F80
6460
8410
8410
8410
8410
8410
8410
4420
34C0
0F00
0400
0400
ENDCHAR
STARTCHAR 0445
ENCODING 1093
SWIDTH 462 0
DWIDTH 9 0
BBX 8 10 1 0
BITMAP
80
82
44
28
10
28
28
44
82
01
ENDCHAR
STARTCHAR 0446
ENCODING 1094
SWIDTH 668 0
DWIDTH 13 0
BBX 10 12 2 -3
BITMAP
8080
8080
8080
8080
8080
8080
8080
8080
8080
8080
7F40
0040
ENDCHAR
STARTCHAR 0447
ENCODING 1095
SWIDTH 565 0
DWIDTH 11 0
BBX 8 8 1 1
BITMAP
81
81
81
81
41
3F
01
01
ENDCHAR
STARTCHAR 0448
ENCODING 1096
SWIDTH 874 0
DWIDTH 17 0
BBX 13 10 2 0
BITMAP
8000
8208
8208
8208
8208
8208
8208
8208
8208
FFF8
ENDCHAR
STARTCHAR 0449
ENCODING 1097
SWIDTH 874 0
DWIDTH 17 0
BBX 15 12 2 -2
BITMAP
8000
8208
8208
8208
8208
8208
8208
8208
8208
8208
7DF2
0002
ENDCHAR
STARTCHAR 044A
ENCODING 1098
SWIDTH 565 0
DWIDTH 11 0
BBX 10 10 1 0
BITMAP
E000
2000
2000
2000
3F80
2080
2040
2080
2080
3F00
ENDCHAR
STARTCHAR 044B
ENCODING 1099
SWIDTH 720 0
DWIDTH 14 0
BBX 10 10 2 0
BITMAP
8000
8040
8040
8040
FE40
8240
8140
8140
8240
FC00
ENDCHAR
STARTCHAR 044C
ENCODING 1100
SWIDTH 514 0
DWIDTH 10 0
BBX 8 10 2 0
BITMAP
80
80
80
80
FE
82
81
81
82
FC
ENDCHAR
STARTCHAR 044D
ENCODING 1101
SWIDTH 514 0
DWIDTH 10 0
BBX 8 10 2 0
BITMAP
F8
04
02
01
01
3F
01
02
04
F8
ENDCHAR
STARTCHAR 044E
ENCODING 1102
SWIDTH 822 0
DWIDTH 16 0
BBX 13 10 2 0
BITMAP
83E0
8C10
8808
9008
9008
F008
9008
8808
8810
87E0
ENDCHAR
STARTCHAR 044F
ENCODING 1103
SWIDTH 565 0
DWIDTH 11 0
BBX 8 9 1 0
BITMAP
3F
C1
81
81
81
41
3F
21
41
ENDCHAR
STARTCHAR 0450
ENCODING 1104
SWIDTH 565 0
DWIDTH 11 0
BBX 10 14 1 0
BITMAP
1000
0800
0000
0000
3E00
4100
8080
8080
8040
FF80
8000
8000
4080
3F00
ENDCHAR
STARTCHAR 0451
ENCODING 1105
SWIDTH 565 0
DWIDTH 11 0
BBX 10 13 1 0
BITMAP
1200
0000
0000
3E00
4100
8080
8080
8040
FF80
8000
8000
4080
3F00
ENDCHAR
STARTCHAR 0452
ENCODING 1106
SWIDTH 617 0
DWIDTH 12 0
BBX 10 18 1 -4
BITMAP
4000
4000
FC00
4000
5F00
6080
4040
4040
4040
4040
4040
4040
4040
4040
0040
0040
0040
0380
ENDCHAR
STARTCHAR 0453
ENCODING 1107
SWIDTH 411 0
DWIDTH 8 0
BBX 6 14 2 0
BITMAP
04
18
00
00
FC
80
80
80
80
80
80
80
80
80
ENDCHAR
STARTCHAR 0454
ENCODING 1108
SWIDTH 514 0
DWIDTH 10 0
BBX 8 10 1 0
BITMAP
1F
60
80
80
80
FC
80
80
40
3F
ENDCHAR
STARTCHAR 0455
ENCODING 1109
SWIDTH 462 0
DWIDTH 9 0
BBX 8 10 1 0
BITMAP
7E
80
80
80
60
1E
01
01
01
7E
ENDCHAR
STARTCHAR 0456
ENCODING 1110
SWIDTH 205 0
DWIDTH 4 0
BBX 1 14 2 0
BITMAP
80
00
00
00
80
80
80
80
80
80
80
80
80
80
ENDCHAR
STARTCHAR 0457
ENCODING 1111
SWIDTH 205 0
DWIDTH 4 0
BBX 3 13 1 0
BITMAP
A0
00
00
40
40
40
40
40
40
40
40
40
40
ENDCHAR
STARTCHAR 0458
ENCODING 1112
SWIDTH 205 0
DWIDTH 4 0
BBX 4 18 -1 -4
BITMAP
10
00
00
00
10
10
10
10
10
10
10
10
10
10
10
10
20
E0
ENDCHAR
STARTCHAR 0459
ENCODING 1113
SWIDTH 874 0
DWIDTH 17 0
BBX 16 10 1 0
BITMAP
7F80
4080
4080
4080
40FE
4082
4081
4081
4082
80FC
ENDCHAR
STARTCHAR 045A
ENCODING 1114
SWIDTH 925 0
DWIDTH 18 0
BBX 15 10 2 0
BITMAP
8000
8100
8100
8100
FFF8
8106
8102
8102
8102
81FC
ENDCHAR
STARTCHAR 045B
ENCODING 1115
SWIDTH 617 0
DWIDTH 12 0
BBX 11 14 0 0
BITMAP
2000
2000
FE00
2000
2F80
3040
2020
2020
2020
2020
2020
2020
2020
2000
ENDCHAR
STARTCHAR 045C
ENCODING 1116
SWIDTH 514 0
DWIDTH 10 0
BBX 8 13 2 1
BITMAP
18
00
00
80
82
84
88
80
A0
88
84
82
81
ENDCHAR
STARTCHAR 045D
ENCODING 1117
SWIDTH 668 0
DWIDTH 13 0
BBX 9 13 2 1
BITMAP
1800
0000
0000
8080
8180
8280
8480
8880
9080
9080
A080
C080
8080
ENDCHAR
STARTCHAR 045E
ENCODING 1118
SWIDTH 514 0
DWIDTH 10 0
BBX 10 18 0 -4
BITMAP
2000
2200
1C00
0000
0040
8080
4080
4100
2100
2200
1200
1400
0C00
0400
0800
0800
1000
E000
ENDCHAR
STARTCHAR 045F
ENCODING 1119
SWIDTH 617 0
DWIDTH 12 0
BBX 8 12 2 -3
BITMAP
80
81
81
81
81
81
81
81
81
81
7E
10
ENDCHAR
STARTCHAR 0462
ENCODING 1122
SWIDTH 771 0
DWIDTH 15 0
BBX 14 14 0 0
BITMAP
0800
0800
FF80
0800
0800
0800
0FF8
0804
0804
0804
0804
0804
0808
0FF0
ENDCHAR
STARTCHAR 0463
ENCODING 1123
SWIDTH 514 0
DWIDTH 10 0
BBX 9 13 1 1
BITMAP
4000
4000
4000
F800
4000
4000
4000
7F00
4080
4080
4080
4080
7F00
ENDCHAR
STARTCHAR 046A
ENCODING 1130
SWIDTH 822 0
DWIDTH 16 0
BBX 15 14 1 0
BITMAP
7FFC
4008
2010
1020
0840
0480
0300
0EC0
3230
4208
4208
8204
8204
0002
ENDCHAR
STARTCHAR 046B
ENCODING 1131
SWIDTH 617 0
DWIDTH 12 0
BBX 10 9 1 0
BITMAP
FFC0
4080
2100
1200
0C00
3B00
4880
8840
8840
ENDCHAR
STARTCHAR 0472
ENCODING 1138
SWIDTH 822 0
DWIDTH 16 0
BBX 14 14 1 0
BITMAP
0380
1C60
2018
4008
8004
8004
8004
FFFC
8004
8004
4008
4008
2010
1FE0
ENDCHAR
STARTCHAR 0473
ENCODING 1139
SWIDTH 617 0
DWIDTH 12 0
BBX 10 10 1 0
BITMAP
1F00
6080
8040
8040
8040
FFC0
8040
8040
4080
3F00
ENDCHAR
STARTCHAR 0474
ENCODING 1140
SWIDTH 720 0
DWIDTH 14 0
BBX 13 14 1 0
BITMAP
0018
8060
8040
8080
4080
4080
4100
2100
2100
1200
1200
0C00
0C00
0400
ENDCHAR
STARTCHAR 0475
ENCODING 1141
SWIDTH 514 0
DWIDTH 10 0
BBX 9 10 0 0
BITMAP
0080
8100
4100
4100
2200
2200
1200
1400
0C00
0800
ENDCHAR
STARTCHAR 048A
ENCODING 1162
SWIDTH 822 0
DWIDTH 16 0
BBX 12 19 3 -3
BITMAP
2100
2200
1C00
0000
8040
80C0
8140
8240
8240
8440
8840
9040
A040
A040
C040
8040
8000
0010
0010
ENDCHAR
STARTCHAR 048B
ENCODING 1163
SWIDTH 668 0
DWIDTH 13 0
BBX 10 14 2 -1
BITMAP
2200
1C00
0000
8080
8180
8280
8480
8880
9080
9080
A080
C080
8080
0040
ENDCHAR
STARTCHAR 048C
ENCODING 1164
SWIDTH 720 0
DWIDTH 14 0
BBX 12 14 1 0
BITMAP
2000
2000
FE00
2000
2000
2000
3FE0
2010
2010
2010
2010
2010
2020
3FC0
ENDCHAR
STARTCHAR 048D
ENCODING 1165
SWIDTH 565 0
DWIDTH 11 0
BBX 9 9 1 1
BITMAP
4000
F800
4000
7F00
4080
4080
4080
4080
7F00
ENDCHAR
STARTCHAR 048E
ENCODING 1166
SWIDTH 720 0
DWIDTH 14 0
BBX 10 13 3 0
BITMAP
FC00
8300
8080
8080
8040
8840
8480
8480
8300
FF00
8080
8000
8000
ENDCHAR
STARTCHAR 048F
ENCODING 1167
SWIDTH 668 0
DWIDTH 13 0
BBX 10 14 2 -4
BITMAP
9F00
E080
8080
8040
8040
8040
8040
8080
C180
B280
8C00
8000
8000
8000
ENDCHAR
STARTCHAR 0490
ENCODING 1168
SWIDTH 514 0
DWIDTH 10 0
BBX 8 15 3 0
BITMAP
01
01
FF
80
80
80
80
80
80
80
80
80
80
80
80
ENDCHAR
STARTCHAR 0491
ENCODING 1169
SWIDTH 411 0
DWIDTH 8 0
BBX 6 11 2 1
BITMAP
04
F8
80
80
80
80
80
80
80
80
80
ENDCHAR
STARTCHAR 0492
ENCODING 1170
SWIDTH 565 0
DWIDTH 11 0
BBX 10 13 1 0
BITMAP
3FC0
4000
4000
4000
4000
4000
4000
FF80
4000
4000
4000
4000
4000
ENDCHAR
STARTCHAR 0493
ENCODING 1171
SWIDTH 462 0
DWIDTH 9 0
BBX 6 9 2 0
BITMAP
7C
80
80
80
80
F8
80
80
80
ENDCHAR
STARTCHAR 0494
ENCODING 1172
SWIDTH 668 0
DWIDTH 13 0
BBX 9 17 3 -3
BITMAP
FF00
8000
8000
8000
8000
8000
BC00
C300
8080
8080
8080
8080
8080
0080
0100
0200
0C00
ENDCHAR
STARTCHAR 0495
ENCODING 1173
SWIDTH 565 0
DWIDTH 11 0
BBX 8 14 2 -4
BITMAP
FC
80
80
80
80
FE
81
81
81
81
01
01
02
1C
ENDCHAR
STARTCHAR 0496
ENCODING 1174
SWIDTH 977 0
DWIDTH 19 0
BBX 19 17 1 -3
BITMAP
808080
808100
408200
208200
208400
108800
088800
0AE800
108800
208400
208200
408200
808100
008080
000020
000020
000020
ENDCHAR
STARTCHAR 0497
ENCODING 1175
SWIDTH 771 0
DWIDTH 15 0
BBX 15 12 1 -2
BITMAP
8208
8210
4220
2220
1200
0680
2220
4210
8210
0208
0002
0002
ENDCHAR
STARTCHAR 0498
ENCODING 1176
SWIDTH 617 0
DWIDTH 12 0
BBX 10 16 1 -3
BITMAP
1C00
E300
0080
0080
0080
0100
0200
1D00
0080
0080
0040
0080
8080
6300
1C00
0800
ENDCHAR
STARTCHAR 0499
ENCODING 1177
SWIDTH 462 0
DWIDTH 9 0
BBX 7 12 2 -2
BITMAP
F8
04
04
04
08
34
04
02
04
88
70
20
ENDCHAR
STARTCHAR 049A
ENCODING 1178
SWIDTH 720 0
DWIDTH 14 0
BBX 11 15 3 -2
BITMAP
8180
8100
8200
8400
8800
8000
F000
8800
8400
8200
8100
8080
0000
0020
0020
ENDCHAR
STARTCHAR 049B
ENCODING 1179
SWIDTH 514 0
DWIDTH 10 0
BBX 8 10 2 -2
BITMAP
80
82
84
88
80
A0
88
84
82
81
ENDCHAR
STARTCHAR 049C
ENCODING 1180
SWIDTH 668 0
DWIDTH 13 0
BBX 10 14 3 0
BITMAP
0040
8080
8100
8200
A200
A400
A000
F800
A400
A200
A200
8100
8080
0040
ENDCHAR
STARTCHAR 049D
ENCODING 1181
SWIDTH 514 0
DWIDTH 10 0
BBX 8 10 2 0
BITMAP
81
82
A4
A8
A8
A8
A4
84
82
81
ENDCHAR
STARTCHAR 049E
ENCODING 1182
SWIDTH 668 0
DWIDTH 13 0
BBX 12 14 1 0
BITMAP
0010
4020
FE40
4080
4100
4100
4200
5A00
4100
4100
4080
4040
4020
0010
ENDCHAR
STARTCHAR 049F
ENCODING 1183
SWIDTH 514 0
DWIDTH 10 0
BBX 9 14 1 0
BITMAP
4000
4000
F000
4000
4000
4100
4200
4400
4000
5000
4400
4200
4100
4080
ENDCHAR
STARTCHAR 04A0
ENCODING 1184
SWIDTH 771 0
DWIDTH 15 0
BBX 14 14 0 0
BITMAP
F800
080C
0808
0810
0820
0840
0800
0B80
0840
0820
0810
0808
0808
0004
ENDCHAR
STARTCHAR 04A1
ENCODING 1185
SWIDTH 565 0
DWIDTH 11 0
BBX 10 10 1 0
BITMAP
E000
2080
2100
2200
2400
3800
2200
2100
2080
2040
ENDCHAR
STARTCHAR 04A2
ENCODING 1186
SWIDTH 822 0
DWIDTH 16 0
BBX 13 16 3 -2
BITMAP
8040
8040
8040
8040
8040
8040
FFC0
8040
8040
8040
8040
8040
0000
0018
0008
0008
ENDCHAR
STARTCHAR 04A3
ENCODING 1187
SWIDTH 668 0
DWIDTH 13 0
BBX 10 11 2 -2
BITMAP
8080
8080
8080
8080
8080
FF80
8080
8080
8080
8080
0040
ENDCHAR
STARTCHAR 04A4
ENCODING 1188
SWIDTH 1080 0
DWIDTH 21 0
BBX 18 13 3 0
BITMAP
003FC0
804000
804000
804000
804000
804000
804000
FFC000
804000
804000
804000
804000
804000
ENDCHAR
STARTCHAR 04A5
ENCODING 1189
SWIDTH 822 0
DWIDTH 16 0
BBX 14 10 2 0
BITMAP
80FC
8080
8080
8080
8080
FF80
8080
8080
8080
8080
ENDCHAR
STARTCHAR 04A6
ENCODING 1190
SWIDTH 1182 0
DWIDTH 23 0
BBX 20 17 3 -3
BITMAP
FFE000
802000
802000
802000
802000
802000
802780
803840
802020
802020
802010
802010
802010
002020
000020
000040
000380
ENDCHAR
STARTCHAR 04A7
ENCODING 1191
SWIDTH 925 0
DWIDTH 18 0
BBX 16 14 2 -4
BITMAP
FF00
8100
8100
8100
8100
817C
8102
8101
8101
8001
0001
0002
0002
003C
ENDCHAR
STARTCHAR 04A8
ENCODING 1192
SWIDTH 925 0
DWIDTH 18 0
BBX 16 14 1 0
BITMAP
0030
31CC
4202
4202
8401
8401
8401
8401
8401
8202
4202
4104
3088
0FFF
ENDCHAR
STARTCHAR 04A9
ENCODING 1193
SWIDTH 720 0
DWIDTH 14 0
BBX 12 10 1 0
BITMAP
23C0
4430
8810
8810
8810
8810
8810
8420
4240
3FE0
ENDCHAR
STARTCHAR 04AA
ENCODING 1194
SWIDTH 668 0
DWIDTH 13 0
BBX 12 16 1 -3
BITMAP
0380
1C60
2000
4000
8000
8000
8000
8000
8000
8000
4000
4000
2010
1C60
0380
0200
ENDCHAR
STARTCHAR 04AB
ENCODING 1195
SWIDTH 514 0
DWIDTH 10 0
BBX 9 11 1 -2
BITMAP
1F00
6080
8000
8000
8000
8000
8000
8000
4080
3300
0C00
ENDCHAR
STARTCHAR 04AC
ENCODING 1196
SWIDTH 514 0
DWIDTH 10 0
BBX 11 17 0 -3
BITMAP
FFE0
0400
0400
0400
0400
0400
0400
0400
0400
0400
0400
0400
0400
0400
0300
0100
0100
ENDCHAR
STARTCHAR 04AD
ENCODING 1197
SWIDTH 411 0
DWIDTH 8 0
BBX 6 11 1 -2
BITMAP
FC
20
20
20
20
20
20
20
20
00
08
ENDCHAR
STARTCHAR 04AE
ENCODING 1198
SWIDTH 617 0
DWIDTH 12 0
BBX 12 13 0 0
BITMAP
8010
8020
4040
2040
2080
1080
0900
0A00
0600
0400
0400
0400
0400
ENDCHAR
STARTCHAR 04AF
ENCODING 1199
SWIDTH 514 0
DWIDTH 10 0
BBX 10 13 0 -4
BITMAP
0040
8080
4080
4100
2100
2200
1200
1400
0C00
0400
0000
0800
0800
ENDCHAR
STARTCHAR 04B0
ENCODING 1200
SWIDTH 617 0
DWIDTH 12 0
BBX 12 13 0 0
BITMAP
8010
8020
4040
2040
2080
1080
0900
0A00
0600
3FC0
0400
0400
0400
ENDCHAR
STARTCHAR 04B1
ENCODING 1201
SWIDTH 514 0
DWIDTH 10 0
BBX 10 13 0 -4
BITMAP
0040
8080
4080
4100
2100
2200
1200
1400
0C00
0400
3B00
0800
0800
ENDCHAR
STARTCHAR 04B2
ENCODING 1202
SWIDTH 617 0
DWIDTH 12 0
BBX 12 17 1 -3
BITMAP
8040
8080
4100
2100
2200
1400
0C00
0C00
1400
2200
2100
4100
8080
0040
0010
0010
0010
ENDCHAR
STARTCHAR 04B3
ENCODING 1203
SWIDTH 462 0
DWIDTH 9 0
BBX 8 10 1 -2
BITMAP
80
82
44
28
10
28
28
44
82
01
ENDCHAR
STARTCHAR 04B4
ENCODING 1204
SWIDTH 925 0
DWIDTH 18 0
BBX 18 17 0 -3
BITMAP
FFC100
040100
040100
040100
040100
040100
040100
040100
040100
040100
040100
040100
040100
040100
03FEC0
000040
000040
ENDCHAR
STARTCHAR 04B5
ENCODING 1205
SWIDTH 720 0
DWIDTH 14 0
BBX 12 11 1 -2
BITMAP
FC20
2020
2020
2020
2020
2020
2020
2020
2020
2020
0FD0
ENDCHAR
STARTCHAR 04B6
ENCODING 1206
SWIDTH 720 0
DWIDTH 14 0
BBX 13 17 1 -3
BITMAP
8000
8040
8040
8040
8040
8040
8040
4040
31C0
0E40
0040
0040
0040
0000
0018
0008
0008
ENDCHAR
STARTCHAR 04B7
ENCODING 1207
SWIDTH 565 0
DWIDTH 11 0
BBX 10 11 1 -1
BITMAP
8100
8100
8100
8100
4100
3F00
0100
0100
0000
0040
0040
ENDCHAR
STARTCHAR 04B8
ENCODING 1208
SWIDTH 720 0
DWIDTH 14 0
BBX 10 13 1 0
BITMAP
8000
8040
8040
8040
8040
8040
8840
4840
39C0
0E40
0840
0040
0040
ENDCHAR
STARTCHAR 04B9
ENCODING 1209
SWIDTH 565 0
DWIDTH 11 0
BBX 8 8 1 1
BITMAP
81
81
81
91
51
3F
11
01
ENDCHAR
STARTCHAR 04BA
ENCODING 1210
SWIDTH 720 0
DWIDTH 14 0
BBX 10 13 3 1
BITMAP
8000
8000
8000
8000
9C00
E300
8080
8040
8040
8040
8040
8040
0040
ENDCHAR
STARTCHAR 04BB
ENCODING 1211
SWIDTH 617 0
DWIDTH 12 0
BBX 9 14 2 0
BITMAP
8000
8000
8000
8000
BE00
C100
8080
8080
8080
8080
8080
8080
8080
8000
ENDCHAR
STARTCHAR 04BC
ENCODING 1212
SWIDTH 925 0
DWIDTH 18 0
BBX 16 14 1 0
BITMAP
00E0
031C
0C02
9002
9001
9001
A001
7FFF
2000
1000
1000
0800
0404
03F8
ENDCHAR
STARTCHAR 04BD
ENCODING 1213
SWIDTH 668 0
DWIDTH 13 0
BBX 12 10 1 0
BITMAP
0F80
1060
2020
A010
A010
3FE0
2000
2000
1000
0FC0
ENDCHAR
STARTCHAR 04BE
ENCODING 1214
SWIDTH 925 0
DWIDTH 18 0
BBX 16 16 1 -3
BITMAP
00E0
031C
0C02
9002
9001
9001
A001
7FFF
2000
1000
1000
0800
0404
0318
00E0
0040
ENDCHAR
STARTCHAR 04BF
ENCODING 1215
SWIDTH 668 0
DWIDTH 13 0
BBX 12 11 1 -2
BITMAP
0F80
1060
2020
A010
A010
3FE0
2000
2000
1000
0C40
0380
ENDCHAR
STARTCHAR 04C0
ENCODING 1216
SWIDTH 257 0
DWIDTH 5 0
BBX 1 12 2 1
BITMAP
80
80
80
80
80
80
80
80
80
80
80
80
ENDCHAR
STARTCHAR 04C1
ENCODING 1217
SWIDTH 925 0
DWIDTH 18 0
BBX 17 16 1 1
BITMAP
022000
01C000
808080
808100
408200
208200
208400
108800
088800
0AE800
108800
208400
208200
408200
808100
008080
ENDCHAR
STARTCHAR 04C2
ENCODING 1218
SWIDTH 771 0
DWIDTH 15 0
BBX 13 13 1 1
BITMAP
0880
0700
0000
8208
8210
4220
2220
1200
0680
2220
4210
8210
0208
ENDCHAR
STARTCHAR 04C3
ENCODING 1219
SWIDTH 668 0
DWIDTH 13 0
BBX 9 17 3 -3
BITMAP
8180
8100
8200
8400
8800
8000
F000
8400
8200
8200
8100
8080
0080
0080
0080
0080
0700
ENDCHAR
STARTCHAR 04C4
ENCODING 1220
SWIDTH 514 0
DWIDTH 10 0
BBX 8 14 2 -4
BITMAP
80
82
84
88
80
A8
84
84
82
81
01
01
01
0E
ENDCHAR
STARTCHAR 04C6
ENCODING 1222
SWIDTH 617 0
DWIDTH 12 0
BBX 10 12 1 -2
BITMAP
7F80
4080
4080
4080
4080
4080
4080
4080
4080
8080
0040
0040
ENDCHAR
STARTCHAR 04C7
ENCODING 1223
SWIDTH 771 0
DWIDTH 15 0
BBX 10 17 3 -3
BITMAP
8040
8040
8040
8040
8040
8040
FFC0
8040
8040
8040
8040
8040
0040
0040
0040
0040
0380
ENDCHAR
STARTCHAR 04C8
ENCODING 1224
SWIDTH 668 0
DWIDTH 13 0
BBX 9 14 2 -4
BITMAP
8080
8080
8080
8080
8080
FF80
8080
8080
8080
8080
0080
0080
0080
0700
ENDCHAR
STARTCHAR 04C9
ENCODING 1225
SWIDTH 822 0
DWIDTH 16 0
BBX 12 15 3 -2
BITMAP
8040
8040
8040
8040
8040
8040
FFC0
8040
8040
8040
8040
8040
0000
0010
0010
ENDCHAR
STARTCHAR 04CA
ENCODING 1226
SWIDTH 668 0
DWIDTH 13 0
BBX 10 12 2 -2
BITMAP
8080
8080
8080
8080
8080
FF80
8080
8080
8080
8080
0040
0040
ENDCHAR
STARTCHAR 04CB
ENCODING 1227
SWIDTH 720 0
DWIDTH 14 0
BBX 10 16 1 -3
BITMAP
8000
8040
8040
8040
8040
8040
8040
4040
31C0
0E40
0040
0040
0040
0000
0080
0100
ENDCHAR
STARTCHAR 04CC
ENCODING 1228
SWIDTH 565 0
DWIDTH 11 0
BBX 8 10 1 -1
BITMAP
81
81
81
81
41
3F
01
01
00
02
ENDCHAR
STARTCHAR 04CD
ENCODING 1229
SWIDTH 977 0
DWIDTH 19 0
BBX 15 15 3 -2
BITMAP
8008
8018
C028
C028
A048
A048
9088
8888
8908
8608
8208
8008
0000
0002
0004
ENDCHAR
STARTCHAR 04CE
ENCODING 1230
SWIDTH 771 0
DWIDTH 15 0
BBX 12 11 2 -2
BITMAP
8020
C020
C0E0
A0A0
A120
9120
8A20
8C20
8420
8020
0010
ENDCHAR
STARTCHAR 04CF
ENCODING 1231
SWIDTH 205 0
DWIDTH 4 0
BBX 1 14 2 0
BITMAP
80
80
80
80
80
80
80
80
80
80
80
80
80
80
ENDCHAR
STARTCHAR 04D0
ENCODING 1232
SWIDTH 668 0
DWIDTH 13 0
BBX 12 16 1 0
BITMAP
1080
1100
0E00
0000
0600
0A00
0900
1100
1080
2080
2080
4040
4040
5FA0
8020
8010
ENDCHAR
STARTCHAR 04D1
ENCODING 1233
SWIDTH 565 0
DWIDTH 11 0
BBX 8 14 1 0
BITMAP
02
24
18
00
3E
01
01
01
01
FF
81
81
83
7C
ENDCHAR
STARTCHAR 04D2
ENCODING 1234
SWIDTH 668 0
DWIDTH 13 0
BBX 12 15 1 0
BITMAP
0900
0000
0000
0600
0A00
0900
1100
1080
2080
2080
4040
4040
5FA0
8020
8010
ENDCHAR
STARTCHAR 04D3
ENCODING 1235
SWIDTH 565 0
DWIDTH 11 0
BBX 8 10 1 3
BITMAP
3E
01
01
01
01
FF
81
81
83
7C
ENDCHAR
STARTCHAR 04D4
ENCODING 1236
SWIDTH 977 0
DWIDTH 19 0
BBX 17 14 1 0
BITMAP
00FF80
018000
028000
048000
048000
088000
108000
10BE00
208000
208000
5E8000
808000
808000
00FF00
ENDCHAR
STARTCHAR 04D5
ENCODING 1237
SWIDTH 977 0
DWIDTH 19 0
BBX 17 10 1 0
BITMAP
3E3E00
01C100
008100
010080
010000
FF7F80
810000
818000
828000
7C7E00
ENDCHAR
STARTCHAR 04D6
ENCODING 1238
SWIDTH 617 0
DWIDTH 12 0
BBX 8 17 3 0
BITMAP
42
44
38
FF
80
80
80
80
80
80
FE
80
80
80
80
80
FF
ENDCHAR
STARTCHAR 04D7
ENCODING 1239
SWIDTH 565 0
DWIDTH 11 0
BBX 10 14 1 0
BITMAP
2000
2200
1C00
0000
3E00
4100
8080
8080
8040
FF80
8000
8000
4080
3F00
ENDCHAR
STARTCHAR 04D8
ENCODING 1240
SWIDTH 822 0
DWIDTH 16 0
BBX 14 14 1 0
BITMAP
0700
38E0
0010
0008
0008
0004
0004
FFFC
8004
8008
8008
4010
2020
1FC0
ENDCHAR
STARTCHAR 04D9
ENCODING 1241
SWIDTH 565 0
DWIDTH 11 0
BBX 9 10 1 0
BITMAP
3E00
0100
0080
0080
0080
FF80
8080
8080
4100
3E00
ENDCHAR
STARTCHAR 04DA
ENCODING 1242
SWIDTH 822 0
DWIDTH 16 0
BBX 14 16 1 0
BITMAP
0480
0000
0700
38E0
0010
0008
0008
0004
0004
FFFC
8004
8008
8008
4010
2020
1FC0
ENDCHAR
STARTCHAR 04DB
ENCODING 1243
SWIDTH 565 0
DWIDTH 11 0
BBX 9 13 1 0
BITMAP
0200
0000
0000
3E00
0100
0080
0080
0080
FF80
8080
8080
4100
3E00
ENDCHAR
STARTCHAR 04DC
ENCODING 1244
SWIDTH 925 0
DWIDTH 18 0
BBX 17 14 1 2
BITMAP
808080
808100
408200
208200
208400
108800
088800
0AE800
108800
208400
208200
408200
808100
008080
ENDCHAR
STARTCHAR 04DD
ENCODING 1245
SWIDTH 771 0
DWIDTH 15 0
BBX 13 10 1 3
BITMAP
8208
8210
4220
2220
1200
0680
2220
4210
8210
0208
ENDCHAR
STARTCHAR 04DE
ENCODING 1246
SWIDTH 617 0
DWIDTH 12 0
BBX 10 16 1 0
BITMAP
1200
0000
1C00
E300
0080
0080
0080
0100
0200
1D00
0080
0080
0040
0080
8080
7F00
ENDCHAR
STARTCHAR 04DF
ENCODING 1247
SWIDTH 462 0
DWIDTH 9 0
BBX 7 10 2 3
BITMAP
F8
04
04
04
08
34
04
02
04
F8
ENDCHAR
STARTCHAR 04E0
ENCODING 1248
SWIDTH 565 0
DWIDTH 11 0
BBX 9 14 1 0
BITMAP
FF80
0100
0200
0200
0400
0800
0800
0700
0080
0080
0080
0080
8080
7F00
ENDCHAR
STARTCHAR 04E1
ENCODING 1249
SWIDTH 462 0
DWIDTH 9 0
BBX 9 14 0 -4
BITMAP
7F00
0200
0400
0400
0800
1000
1C00
0300
0100
0080
0080
0100
8100
7E00
ENDCHAR
STARTCHAR 04E2
ENCODING 1250
SWIDTH 822 0
DWIDTH 16 0
BBX 10 16 3 0
BITMAP
1E00
0000
0000
8040
80C0
8140
8240
8240
8440
8840
9040
A040
A040
C040
8040
8000
ENDCHAR
STARTCHAR 04E3
ENCODING 1251
SWIDTH 668 0
DWIDTH 13 0
BBX 9 13 2 0
BITMAP
1C00
0000
0000
8080
8180
8280
8480
8880
9080
9080
A080
C080
8080
ENDCHAR
STARTCHAR 04E4
ENCODING 1252
SWIDTH 822 0
DWIDTH 16 0
BBX 10 16 3 0
BITMAP
1200
0000
0000
8040
80C0
8140
8240
8240
8440
8840
9040
A040
A040
C040
8040
8000
ENDCHAR
STARTCHAR 04E5
ENCODING 1253
SWIDTH 668 0
DWIDTH 13 0
BBX 9 10 2 3
BITMAP
8080
8180
8280
8480
8880
9080
9080
A080
C080
8080
ENDCHAR
STARTCHAR 04E6
ENCODING 1254
SWIDTH 822 0
DWIDTH 16 0
BBX 14 16 1 0
BITMAP
0400
0000
0380
1C60
2010
4008
8004
8004
8004
8004
8004
8004
4008
4008
2010
1FE0
ENDCHAR
STARTCHAR 04E7
ENCODING 1255
SWIDTH 617 0
DWIDTH 12 0
BBX 10 13 1 0
BITMAP
1200
0000
0000
1F00
6080
8080
8040
8040
8040
8040
8080
4080
3F00
ENDCHAR
STARTCHAR 04E8
ENCODING 1256
SWIDTH 822 0
DWIDTH 16 0
BBX 14 14 1 0
BITMAP
0380
1C60
2018
4008
8004
8004
8004
FFFC
8004
8004
4008
4008
2010
1FE0
ENDCHAR
STARTCHAR 04E9
ENCODING 1257
SWIDTH 617 0
DWIDTH 12 0
BBX 10 10 1 0
BITMAP
1F00
6080
8040
8040
8040
FFC0
8040
8040
4080
3F00
ENDCHAR
STARTCHAR 04EA
ENCODING 1258
SWIDTH 822 0
DWIDTH 16 0
BBX 14 16 1 0
BITMAP
0400
0000
0380
1C60
2018
4008
8004
8004
8004
FFFC
8004
8004
4008
4008
2010
1FE0
ENDCHAR
STARTCHAR 04EB
ENCODING 1259
SWIDTH 617 0
DWIDTH 12 0
BBX 10 13 1 0
BITMAP
1000
0000
0000
1F00
6080
8040
8040
8040
FFC0
8040
8040
4080
3F00
ENDCHAR
STARTCHAR 04EC
ENCODING 1260
SWIDTH 668 0
DWIDTH 13 0
BBX 11 16 1 0
BITMAP
1200
0000
1C00
E300
00C0
0040
0020
0020
0020
0FE0
0020
0020
0020
0040
8080
7F00
ENDCHAR
STARTCHAR 04ED
ENCODING 1261
SWIDTH 514 0
DWIDTH 10 0
BBX 8 13 2 0
BITMAP
48
00
00
F8
04
02
01
01
3F
01
02
04
F8
ENDCHAR
STARTCHAR 04EE
ENCODING 1262
SWIDTH 617 0
DWIDTH 12 0
BBX 11 16 1 0
BITMAP
0E00
0000
0000
8020
8040
4040
4080
2080
2100
1100
1200
0C00
0400
0800
0800
7000
ENDCHAR
STARTCHAR 04EF
ENCODING 1263
SWIDTH 514 0
DWIDTH 10 0
BBX 10 17 0 -4
BITMAP
1C00
0000
0000
0040
8080
4080
4100
2100
2200
1200
1400
0C00
0400
0800
0800
1000
E000
ENDCHAR
STARTCHAR 04F0
ENCODING 1264
SWIDTH 617 0
DWIDTH 12 0
BBX 11 16 1 0
BITMAP
1200
0000
0000
8020
8040
4040
4080
2080
2100
1100
1200
0C00
0400
0800
0800
7000
ENDCHAR
STARTCHAR 04F1
ENCODING 1265
SWIDTH 514 0
DWIDTH 10 0
BBX 10 17 0 -4
BITMAP
0200
0000
0000
0040
8080
4080
4100
2100
2200
1200
1400
0C00
0400
0800
0800
1000
E000
ENDCHAR
STARTCHAR 04F2
ENCODING 1266
SWIDTH 617 0
DWIDTH 12 0
BBX 11 17 1 0
BITMAP
0480
0900
0000
0000
8020
8040
4040
4080
2080
2100
1100
1200
0C00
0400
0800
0800
7000
ENDCHAR
STARTCHAR 04F3
ENCODING 1267
SWIDTH 514 0
DWIDTH 10 0
BBX 10 18 0 -4
BITMAP
0400
0B00
0000
0000
0040
8080
4080
4100
2100
2200
1200
1400
0C00
0400
0800
0800
1000
E000
ENDCHAR
STARTCHAR 04F4
ENCODING 1268
SWIDTH 720 0
DWIDTH 14 0
BBX 10 15 1 0
BITMAP
1000
0000
8000
8040
8040
8040
8040
8040
8040
4040
31C0
0E40
0040
0040
0040
ENDCHAR
STARTCHAR 04F5
ENCODING 1269
SWIDTH 565 0
DWIDTH 11 0
BBX 8 12 1 0
BITMAP
24
00
00
00
81
81
81
81
41
3F
01
01
ENDCHAR
STARTCHAR 04F6
ENCODING 1270
SWIDTH 514 0
DWIDTH 10 0
BBX 8 16 3 -3
BITMAP
FF
80
80
80
80
80
80
80
80
80
80
80
80
00
40
40
ENDCHAR
STARTCHAR 04F7
ENCODING 1271
SWIDTH 411 0
DWIDTH 8 0
BBX 6 11 2 -2
BITMAP
FC
80
80
80
80
80
80
80
80
80
40
ENDCHAR
STARTCHAR 04F8
ENCODING 1272
SWIDTH 925 0
DWIDTH 18 0
BBX 13 16 3 0
BITMAP
0900
0000
0008
8008
8008
8008
8008
8008
FF08
8088
8048
8048
8048
8088
8088
FF08
ENDCHAR
STARTCHAR 04F9
ENCODING 1273
SWIDTH 720 0
DWIDTH 14 0
BBX 10 10 2 3
BITMAP
8000
8040
8040
8040
FE40
8240
8140
8140
8240
FC00
ENDCHAR
STARTCHAR 04FA
ENCODING 1274
SWIDTH 565 0
DWIDTH 11 0
BBX 10 18 1 -4
BITMAP
3FC0
4000
4000
4000
4000
4000
4000
FF80
4000
4000
4000
4000
4000
0000
1800
0800
1000
7000
ENDCHAR
STARTCHAR 04FB
ENCODING 1275
SWIDTH 411 0
DWIDTH 8 0
BBX 6 14 1 -4
BITMAP
1C
40
40
40
40
7C
40
40
40
00
10
10
20
E0
ENDCHAR
STARTCHAR 04FC
ENCODING 1276
SWIDTH 565 0
DWIDTH 11 0
BBX 10 18 1 -4
BITMAP
8040
8080
4100
2100
2200
1400
0C00
0C00
1400
2200
2100
4080
8080
0040
0040
0040
0040
0380
ENDCHAR
STARTCHAR 04FD
ENCODING 1277
SWIDTH 462 0
DWIDTH 9 0
BBX 8 14 1 -4
BITMAP
80
86
44
28
10
28
28
44
82
01
01
01
01
0E
ENDCHAR
STARTCHAR 04FE
ENCODING 1278
SWIDTH 617 0
DWIDTH 12 0
BBX 10 14 1 0
BITMAP
8000
40C0
4080
2100
1200
1400
0C00
3F00
1A00
1200
2100
4080
8080
8040
ENDCHAR
STARTCHAR 04FF
ENCODING 1279
SWIDTH 514 0
DWIDTH 10 0
BBX 8 10 1 0
BITMAP
01
42
24
28
18
3C
24
44
42
81
ENDCHAR
STARTCHAR 0510
ENCODING 1296
SWIDTH 617 0
DWIDTH 12 0
BBX 9 14 2 0
BITMAP
1C00
6380
8000
8000
8000
8000
6000
5C00
8000
8000
8000
8000
8080
7F00
ENDCHAR
STARTCHAR 0511
ENCODING 1297
SWIDTH 462 0
DWIDTH 9 0
BBX 7 10 1 0
BITMAP
3E
C0
80
80
60
58
80
80
80
7E
ENDCHAR
STARTCHAR 0512
ENCODING 1298
SWIDTH 771 0
DWIDTH 15 0
BBX 11 18 1 -4
BITMAP
1FE0
2020
2020
2020
2020
2020
2020
2020
2020
2020
2020
2020
4020
0020
8020
0020
0020
00C0
ENDCHAR
STARTCHAR 0513
ENCODING 1299
SWIDTH 565 0
DWIDTH 11 0
BBX 9 14 1 -4
BITMAP
7F80
4080
4080
4080
4080
4080
4080
4080
4080
8080
0080
0080
0100
0700
ENDCHAR
STARTCHAR 051A
ENCODING 1306
SWIDTH 822 0
DWIDTH 16 0
BBX 14 16 1 -2
BITMAP
0380
1C60
2010
4008
8004
8004
8004
8004
8004
8004
4008
4008
2010
1C60
0380
007C
ENDCHAR
STARTCHAR 051B
ENCODING 1307
SWIDTH 668 0
DWIDTH 13 0
BBX 10 13 1 -4
BITMAP
1E00
61C0
80C0
8040
8040
8040
8040
80C0
40C0
3340
0C40
0040
0040
ENDCHAR
STARTCHAR 051C
ENCODING 1308
SWIDTH 1028 0
DWIDTH 20 0
BBX 19 14 1 0
BITMAP
000020
804040
80C040
814040
412080
412080
422080
221100
221100
241100
140A00
140A00
180600
080400
ENDCHAR
STARTCHAR 051D
ENCODING 1309
SWIDTH 874 0
DWIDTH 17 0
BBX 16 10 1 0
BITMAP
0100
8281
8282
8282
4444
4444
2824
2828
2828
1010
ENDCHAR
STARTCHAR 0524
ENCODING 1316
SWIDTH 822 0
DWIDTH 16 0
BBX 13 17 3 -3
BITMAP
FFE0
8020
8020
8020
8020
8020
8020
8020
8020
8020
8020
8020
8020
0020
0018
0008
0008
ENDCHAR
STARTCHAR 0525
ENCODING 1317
SWIDTH 617 0
DWIDTH 12 0
BBX 10 11 2 -2
BITMAP
FF80
8080
8080
8080
8080
8080
8080
8080
8080
8080
0040
ENDCHAR
STARTCHAR 0526
ENCODING 1318
SWIDTH 771 0
DWIDTH 15 0
BBX 12 15 3 -2
BITMAP
8000
8000
8000
8000
9C00
E300
8080
8040
8040
8040
8040
8040
0040
0030
0010
ENDCHAR
STARTCHAR 0527
ENCODING 1319
SWIDTH 668 0
DWIDTH 13 0
BBX 9 14 2 -2
BITMAP
8000
8000
8000
8000
BE00
C100
8080
8080
8080
8080
8080
8080
8080
8000
ENDCHAR
STARTCHAR 0528
ENCODING 1320
SWIDTH 771 0
DWIDTH 15 0
BBX 14 17 -1 -3
BITMAP
1004
1004
1004
1004
1004
1004
1FFC
1004
1004
1004
1004
1004
1000
1000
1000
1000
E000
ENDCHAR
STARTCHAR 0529
ENCODING 1321
SWIDTH 617 0
DWIDTH 12 0
BBX 12 14 -1 -4
BITMAP
1010
1010
1010
1010
1010
1FF0
1010
1010
1010
1010
1000
1000
2000
E000
ENDCHAR
STARTCHAR 052E
ENCODING 1326
SWIDTH 771 0
DWIDTH 15 0
BBX 14 17 1 -3
BITMAP
1FE0
2020
2020
2020
2020
2020
2020
2020
2020
2020
2020
4020
4020
0000
800C
0004
0004
ENDCHAR
STARTCHAR 052F
ENCODING 1327
SWIDTH 617 0
DWIDTH 12 0
BBX 10 11 1 -2
BITMAP
7F80
4080
4080
4080
4080
4080
4080
4080
4080
8080
0040
ENDCHAR
STARTCHAR 1E08
ENCODING 7688
SWIDTH 668 0
DWIDTH 13 0
BBX 12 21 1 -4
BITMAP
0080
0100
0000
0780
1860
2000
4000
8000
8000
8000
8000
8000
8000
8000
4000
2010
1860
0780
0100
0100
0700
ENDCHAR
STARTCHAR 1E09
ENCODING 7689
SWIDTH 514 0
DWIDTH 10 0
BBX 9 18 1 -4
BITMAP
0200
0C00
0000
0000
3E00
4180
8000
8000
8000
8000
8000
8000
4080
3300
0C00
0400
0400
0C00
ENDCHAR
STARTCHAR 1E0C
ENCODING 7692
SWIDTH 822 0
DWIDTH 16 0
BBX 12 17 3 -3
BITMAP
FC00
8380
8040
8020
8020
8010
8010
8010
8010
8010
8020
8040
8080
8300
7C00
0000
0800
ENDCHAR
STARTCHAR 1E0D
ENCODING 7693
SWIDTH 668 0
DWIDTH 13 0
BBX 10 17 1 -3
BITMAP
0040
0040
0040
0040
3E40
41C0
8040
8040
8040
8040
8040
8040
41C0
3240
0C00
0000
0400
ENDCHAR
STARTCHAR 1E0E
ENCODING 7694
SWIDTH 822 0
DWIDTH 16 0
BBX 12 17 3 -3
BITMAP
FC00
8380
8040
8020
8020
8010
8010
8010
8010
8010
8020
8040
8080
8300
7C00
0000
1C00
ENDCHAR
STARTCHAR 1E0F
ENCODING 7695
SWIDTH 668 0
DWIDTH 13 0
BBX 10 17 1 -3
BITMAP
0040
0040
0040
0040
3E40
41C0
8040
8040
8040
8040
8040
8040
41C0
3240
0C00
0000
0E00
ENDCHAR
STARTCHAR 1E14
ENCODING 7700
SWIDTH 617 0
DWIDTH 12 0
BBX 8 19 3 0
BITMAP
20
10
00
7E
00
FF
80
80
80
80
80
80
FC
80
80
80
80
80
FF
ENDCHAR
STARTCHAR 1E15
ENCODING 7701
SWIDTH 565 0
DWIDTH 11 0
BBX 9 16 1 0
BITMAP
1000
0800
0000
3E00
0000
0000
3E00
4100
8080
8080
8000
FF80
8000
8000
4080
3F00
ENDCHAR
STARTCHAR 1E16
ENCODING 7702
SWIDTH 617 0
DWIDTH 12 0
BBX 8 19 3 0
BITMAP
04
18
00
7E
00
FF
80
80
80
80
80
80
FC
80
80
80
80
80
FF
ENDCHAR
STARTCHAR 1E17
ENCODING 7703
SWIDTH 565 0
DWIDTH 11 0
BBX 9 15 1 1
BITMAP
0C00
0000
3E00
0000
0000
3E00
4100
8080
8080
8000
FF80
8000
8000
4080
3F00
ENDCHAR
STARTCHAR 1E1C
ENCODING 7708
SWIDTH 617 0
DWIDTH 12 0
BBX 8 21 3 -4
BITMAP
42
44
38
FF
80
80
80
80
80
80
FC
80
80
80
80
80
00
FF
08
04
08
ENDCHAR
STARTCHAR 1E1D
ENCODING 7709
SWIDTH 565 0
DWIDTH 11 0
BBX 9 18 1 -4
BITMAP
2000
2200
1C00
0000
3E00
4100
8080
8080
8000
FF80
8000
8000
4080
3300
0C00
0400
0400
0C00
ENDCHAR
STARTCHAR 1E20
ENCODING 7712
SWIDTH 771 0
DWIDTH 15 0
BBX 12 16 1 0
BITMAP
0700
0000
0380
1C60
2000
4000
8000
8000
8000
8010
8010
8010
8010
4010
2010
1FE0
ENDCHAR
STARTCHAR 1E21
ENCODING 7713
SWIDTH 668 0
DWIDTH 13 0
BBX 10 17 1 -4
BITMAP
1E00
0000
0000
3E00
41C0
80C0
8040
8040
8040
8040
80C0
4140
3E40
0040
0040
4080
3F00
ENDCHAR
STARTCHAR 1E24
ENCODING 7716
SWIDTH 771 0
DWIDTH 15 0
BBX 10 12 3 -2
BITMAP
8040
8040
8040
8040
8040
8040
FFC0
8040
8040
8040
8040
8040
ENDCHAR
STARTCHAR 1E25
ENCODING 7717
SWIDTH 617 0
DWIDTH 12 0
BBX 9 17 2 -3
BITMAP
8000
8000
8000
8000
BE00
C100
8080
8080
8080
8080
8080
8080
8080
8080
0000
0000
0800
ENDCHAR
STARTCHAR 1E2A
ENCODING 7722
SWIDTH 771 0
DWIDTH 15 0
BBX 10 17 3 -3
BITMAP
8040
8040
8040
8040
8040
8040
FFC0
8040
8040
8040
8040
8040
0000
0000
0000
0000
1C00
ENDCHAR
STARTCHAR 1E2B
ENCODING 7723
SWIDTH 617 0
DWIDTH 12 0
BBX 9 18 2 -4
BITMAP
8000
8000
8000
8000
BE00
C100
8080
8080
8080
8080
8080
8080
8080
8080
0000
0000
2000
1E00
ENDCHAR
STARTCHAR 1E2E
ENCODING 7726
SWIDTH 257 0
DWIDTH 5 0
BBX 4 18 1 0
BITMAP
10
60
00
90
00
00
40
40
40
40
40
40
40
40
40
40
40
40
ENDCHAR
STARTCHAR 1E2F
ENCODING 7727
SWIDTH 205 0
DWIDTH 4 0
BBX 2 16 2 0
BITMAP
40
80
00
00
00
00
80
80
80
80
80
80
80
80
80
80
ENDCHAR
STARTCHAR 1E36
ENCODING 7734
SWIDTH 565 0
DWIDTH 11 0
BBX 7 14 3 -2
BITMAP
80
80
80
80
80
80
80
80
80
80
80
80
00
7E
ENDCHAR
STARTCHAR 1E37
ENCODING 7735
SWIDTH 205 0
DWIDTH 4 0
BBX 1 17 2 -3
BITMAP
80
80
80
80
80
80
80
80
80
80
80
80
80
80
00
00
80
ENDCHAR
STARTCHAR 1E3A
ENCODING 7738
SWIDTH 565 0
DWIDTH 11 0
BBX 7 16 3 -2
BITMAP
80
80
80
80
80
80
80
80
80
80
80
80
00
7E
00
3C
ENDCHAR
STARTCHAR 1E3B
ENCODING 7739
SWIDTH 205 0
DWIDTH 4 0
BBX 3 17 1 -3
BITMAP
40
40
40
40
40
40
40
40
40
40
40
40
40
40
00
00
E0
ENDCHAR
STARTCHAR 1E42
ENCODING 7746
SWIDTH 925 0
DWIDTH 18 0
BBX 13 16 3 -2
BITMAP
8018
8018
C028
C028
A048
A048
9088
8908
8908
8608
8208
8008
0000
0000
0000
0200
ENDCHAR
STARTCHAR 1E43
ENCODING 7747
SWIDTH 1028 0
DWIDTH 20 0
BBX 17 13 2 -3
BITMAP
BE3E00
C14100
818100
808080
808080
808080
808080
808080
808080
808080
000000
000000
008000
ENDCHAR
STARTCHAR 1E44
ENCODING 7748
SWIDTH 771 0
DWIDTH 15 0
BBX 10 13 3 3
BITMAP
8040
C040
C040
A040
9040
8840
8840
8440
8240
8140
80C0
80C0
0040
ENDCHAR
STARTCHAR 1E45
ENCODING 7749
SWIDTH 617 0
DWIDTH 12 0
BBX 9 13 2 0
BITMAP
0800
0000
0000
BE00
C100
8080
8080
8080
8080
8080
8080
8080
8080
ENDCHAR
STARTCHAR 1E46
ENCODING 7750
SWIDTH 771 0
DWIDTH 15 0
BBX 10 13 3 -2
BITMAP
8040
C040
C040
A040
9040
8840
8840
8440
8240
8140
80C0
80C0
0040
ENDCHAR
STARTCHAR 1E47
ENCODING 7751
SWIDTH 617 0
DWIDTH 12 0
BBX 9 13 2 -3
BITMAP
BE00
C100
8080
8080
8080
8080
8080
8080
8080
8080
0000
0000
0800
ENDCHAR
STARTCHAR 1E48
ENCODING 7752
SWIDTH 771 0
DWIDTH 15 0
BBX 10 16 3 -2
BITMAP
8040
C040
C040
A040
9040
8840
8840
8440
8240
8140
80C0
80C0
0040
0000
0000
1E00
ENDCHAR
STARTCHAR 1E49
ENCODING 7753
SWIDTH 617 0
DWIDTH 12 0
BBX 9 13 2 -3
BITMAP
BE00
C100
8080
8080
8080
8080
8080
8080
8080
8080
0000
0000
1C00
ENDCHAR
STARTCHAR 1E4C
ENCODING 7756
SWIDTH 822 0
DWIDTH 16 0
BBX 14 19 1 0
BITMAP
0080
0100
0000
0380
0000
0780
1860
6010
4008
8004
8004
8004
8004
8004
8004
8008
4008
2010
1FE0
ENDCHAR
STARTCHAR 1E4D
ENCODING 7757
SWIDTH 565 0
DWIDTH 11 0
BBX 10 16 1 0
BITMAP
0200
0C00
1000
2E00
0000
0000
3E00
4180
8080
8040
8040
8040
8040
8080
4080
3F00
ENDCHAR
STARTCHAR 1E4E
ENCODING 7758
SWIDTH 822 0
DWIDTH 16 0
BBX 14 19 1 0
BITMAP
0480
0000
0000
0380
0000
0780
1860
6010
4008
8004
8004
8004
8004
8004
8004
8008
4008
2010
1FE0
ENDCHAR
STARTCHAR 1E4F
ENCODING 7759
SWIDTH 565 0
DWIDTH 11 0
BBX 10 16 1 0
BITMAP
1200
0000
1000
2E00
0000
0000
3E00
4180
8080
8040
8040
8040
8040
8080
4080
3F00
ENDCHAR
STARTCHAR 1E50
ENCODING 7760
SWIDTH 822 0
DWIDTH 16 0
BBX 14 19 1 0
BITMAP
0400
0200
0000
0FC0
0000
0780
1860
6010
4008
8004
8004
8004
8004
8004
8004
8008
4008
2010
1FE0
ENDCHAR
STARTCHAR 1E51
ENCODING 7761
SWIDTH 565 0
DWIDTH 11 0
BBX 10 16 1 0
BITMAP
1000
0800
0000
3F00
0000
0000
3E00
4180
8080
8040
8040
8040
8040
8080
4080
3F00
ENDCHAR
STARTCHAR 1E52
ENCODING 7762
SWIDTH 822 0
DWIDTH 16 0
BBX 14 19 1 0
BITMAP
0080
0100
0000
0FC0
0000
0780
1860
6010
4008
8004
8004
8004
8004
8004
8004
8008
4008
2010
1FE0
ENDCHAR
STARTCHAR 1E53
ENCODING 7763
SWIDTH 565 0
DWIDTH 11 0
BBX 10 16 1 0
BITMAP
0200
0C00
0000
3F00
0000
0000
3E00
4180
8080
8040
8040
8040
8040
8080
4080
3F00
ENDCHAR
STARTCHAR 1E5A
ENCODING 7770
SWIDTH 668 0
DWIDTH 13 0
BBX 10 13 3 -3
BITMAP
FC00
8300
8080
8080
8040
8080
8080
8080
8100
FE00
8200
8100
8080
ENDCHAR
STARTCHAR 1E5B
ENCODING 7771
SWIDTH 360 0
DWIDTH 7 0
BBX 4 13 2 -3
BITMAP
B0
C0
80
80
80
80
80
80
80
80
00
00
80
ENDCHAR
STARTCHAR 1E5E
ENCODING 7774
SWIDTH 668 0
DWIDTH 13 0
BBX 10 17 3 -3
BITMAP
FC00
8300
8080
8080
8040
8080
8080
8080
8100
FE00
8200
8100
8080
0000
0000
0000
3C00
ENDCHAR
STARTCHAR 1E5F
ENCODING 7775
SWIDTH 360 0
DWIDTH 7 0
BBX 5 13 1 -3
BITMAP
58
60
40
40
40
40
40
40
40
40
00
00
E0
ENDCHAR
STARTCHAR 1E60
ENCODING 7776
SWIDTH 565 0
DWIDTH 11 0
BBX 10 16 1 0
BITMAP
0400
0000
1E00
6180
8000
8000
8000
8000
6000
1E00
0180
0080
0040
0080
8080
7F00
ENDCHAR
STARTCHAR 1E61
ENCODING 7777
SWIDTH 462 0
DWIDTH 9 0
BBX 7 13 1 0
BITMAP
10
00
00
7C
80
80
80
40
3C
02
02
02
7C
ENDCHAR
STARTCHAR 1E62
ENCODING 7778
SWIDTH 565 0
DWIDTH 11 0
BBX 10 15 1 -3
BITMAP
1E00
6180
8000
8000
8000
8000
6000
1E00
0180
0080
0040
0080
8080
6100
1E00
ENDCHAR
STARTCHAR 1E63
ENCODING 7779
SWIDTH 462 0
DWIDTH 9 0
BBX 7 13 1 -3
BITMAP
7C
80
80
80
40
3C
02
02
02
44
38
00
10
ENDCHAR
STARTCHAR 1E64
ENCODING 7780
SWIDTH 565 0
DWIDTH 11 0
BBX 10 16 1 3
BITMAP
0600
0000
1E00
6180
8000
8000
8000
8000
6000
1E00
0180
0080
0040
0080
8080
7F00
ENDCHAR
STARTCHAR 1E65
ENCODING 7781
SWIDTH 462 0
DWIDTH 9 0
BBX 7 16 1 0
BITMAP
10
00
04
18
00
00
7C
80
80
80
40
3C
02
02
02
7C
ENDCHAR
STARTCHAR 1E66
ENCODING 7782
SWIDTH 565 0
DWIDTH 11 0
BBX 10 18 1 0
BITMAP
0400
0000
1200
0C00
1E00
6180
8000
8000
8000
8000
6000
1E00
0180
0080
0040
0080
8080
7F00
ENDCHAR
STARTCHAR 1E67
ENCODING 7783
SWIDTH 462 0
DWIDTH 9 0
BBX 7 15 1 0
BITMAP
10
00
28
10
00
7C
80
80
80
40
3C
02
02
02
7C
ENDCHAR
STARTCHAR 1E68
ENCODING 7784
SWIDTH 565 0
DWIDTH 11 0
BBX 10 17 1 -3
BITMAP
0400
0000
1E00
6180
8000
8000
8000
8000
6000
1E00
0180
0080
0040
0080
8080
6100
1E00
ENDCHAR
STARTCHAR 1E69
ENCODING 7785
SWIDTH 462 0
DWIDTH 9 0
BBX 7 16 1 -3
BITMAP
10
00
00
7C
80
80
80
40
3C
02
02
02
44
38
00
10
ENDCHAR
STARTCHAR 1E6C
ENCODING 7788
SWIDTH 514 0
DWIDTH 10 0
BBX 11 17 0 -3
BITMAP
FFE0
0400
0400
0400
0400
0400
0400
0400
0400
0400
0400
0400
0400
0400
0000
0000
0400
ENDCHAR
STARTCHAR 1E6D
ENCODING 7789
SWIDTH 360 0
DWIDTH 7 0
BBX 6 15 1 -3
BITMAP
40
40
F0
40
40
40
40
40
40
40
40
24
18
00
10
ENDCHAR
STARTCHAR 1E6E
ENCODING 7790
SWIDTH 514 0
DWIDTH 10 0
BBX 11 17 0 -3
BITMAP
FFE0
0400
0400
0400
0400
0400
0400
0400
0400
0400
0400
0400
0400
0400
0000
0000
0E00
ENDCHAR
STARTCHAR 1E6F
ENCODING 7791
SWIDTH 360 0
DWIDTH 7 0
BBX 6 15 1 -3
BITMAP
40
40
F0
40
40
40
40
40
40
40
40
24
18
00
38
ENDCHAR
STARTCHAR 1E78
ENCODING 7800
SWIDTH 771 0
DWIDTH 15 0
BBX 11 19 2 0
BITMAP
0100
0600
0000
1D00
0200
8000
8020
8020
8020
8020
8020
8020
8020
8020
8020
8020
4040
4040
3F80
ENDCHAR
STARTCHAR 1E79
ENCODING 7801
SWIDTH 617 0
DWIDTH 12 0
BBX 9 16 2 0
BITMAP
0400
0800
0000
1A00
0400
0000
8080
8080
8080
8080
8080
8080
8080
8080
8180
7E80
ENDCHAR
STARTCHAR 1E7A
ENCODING 7802
SWIDTH 771 0
DWIDTH 15 0
BBX 11 19 2 0
BITMAP
0100
0000
0000
1F00
0000
8000
8020
8020
8020
8020
8020
8020
8020
8020
8020
8020
4040
4040
3F80
ENDCHAR
STARTCHAR 1E7B
ENCODING 7803
SWIDTH 617 0
DWIDTH 12 0
BBX 9 16 2 0
BITMAP
2000
0000
0000
3E00
0000
0000
8080
8080
8080
8080
8080
8080
8080
8080
8180
7E80
ENDCHAR
STARTCHAR 1E80
ENCODING 7808
SWIDTH 1080 0
DWIDTH 21 0
BBX 19 17 1 0
BITMAP
010000
008000
004000
004000
80C020
80C040
80A040
412040
412080
411080
221080
220900
240900
140900
140600
180600
080200
ENDCHAR
STARTCHAR 1E81
ENCODING 7809
SWIDTH 822 0
DWIDTH 16 0
BBX 16 14 0 0
BITMAP
0200
0100
0000
0000
8081
8182
4282
4242
4244
2444
2424
2828
1818
0810
ENDCHAR
STARTCHAR 1E82
ENCODING 7810
SWIDTH 1080 0
DWIDTH 21 0
BBX 19 17 1 0
BITMAP
001000
006000
000000
004000
80C020
80C040
80A040
412040
412080
411080
221080
220900
240900
140900
140600
180600
080200
ENDCHAR
STARTCHAR 1E83
ENCODING 7811
SWIDTH 822 0
DWIDTH 16 0
BBX 16 14 0 0
BITMAP
0040
0080
0000
0000
8081
8182
4282
4242
4244
2444
2424
2828
1818
0810
ENDCHAR
STARTCHAR 1E84
ENCODING 7812
SWIDTH 1080 0
DWIDTH 21 0
BBX 19 14 1 2
BITMAP
004000
80C020
80C040
80A040
412040
412080
411080
221080
220900
240900
140900
140600
180600
080200
ENDCHAR
STARTCHAR 1E85
ENCODING 7813
SWIDTH 822 0
DWIDTH 16 0
BBX 16 13 0 0
BITMAP
0200
0000
0000
8081
8182
4282
4242
4244
2444
2424
2828
1818
0810
ENDCHAR
STARTCHAR 1E8E
ENCODING 7822
SWIDTH 565 0
DWIDTH 11 0
BBX 12 13 0 2
BITMAP
8010
8020
4040
2040
2080
1080
1100
0A00
0600
0400
0400
0400
0400
ENDCHAR
STARTCHAR 1E8F
ENCODING 7823
SWIDTH 462 0
DWIDTH 9 0
BBX 9 17 0 -4
BITMAP
0800
0000
0000
8000
8080
4080
4100
2100
2200
1200
1400
1400
0800
0800
1000
1000
E000
ENDCHAR
STARTCHAR 1E92
ENCODING 7826
SWIDTH 617 0
DWIDTH 12 0
BBX 10 17 1 -3
BITMAP
FFC0
0040
0080
0100
0100
0200
0400
0800
1000
1000
2000
4000
8000
8000
7FC0
0000
0400
ENDCHAR
STARTCHAR 1E93
ENCODING 7827
SWIDTH 462 0
DWIDTH 9 0
BBX 7 11 1 -3
BITMAP
7E
02
04
08
10
10
20
40
80
80
7E
ENDCHAR
STARTCHAR 1E97
ENCODING 7831
SWIDTH 360 0
DWIDTH 7 0
BBX 6 16 1 0
BITMAP
10
00
00
00
40
40
F0
40
40
40
40
40
40
40
40
3C
ENDCHAR
STARTCHAR 1E9E
ENCODING 7838
SWIDTH 720 0
DWIDTH 14 0
BBX 11 14 2 0
BITMAP
0E00
31C0
4040
8080
8100
8200
8700
80C0
8020
8020
8020
8020
8020
8FC0
ENDCHAR
STARTCHAR 1EA0
ENCODING 7840
SWIDTH 668 0
DWIDTH 13 0
BBX 13 17 0 -3
BITMAP
0200
0600
0500
0900
0880
0880
1040
1040
2020
2020
5FD0
4010
8008
8000
0000
0000
0200
ENDCHAR
STARTCHAR 1EA1
ENCODING 7841
SWIDTH 565 0
DWIDTH 11 0
BBX 8 13 1 -3
BITMAP
3E
01
01
01
01
FF
81
81
83
44
38
00
08
ENDCHAR
STARTCHAR 1EA2
ENCODING 7842
SWIDTH 668 0
DWIDTH 13 0
BBX 13 18 0 0
BITMAP
0700
0100
0100
0000
0200
0600
0500
0900
0880
0880
1040
1040
2020
2020
5FD0
4010
8008
8000
ENDCHAR
STARTCHAR 1EA3
ENCODING 7843
SWIDTH 565 0
DWIDTH 11 0
BBX 8 15 1 0
BITMAP
18
04
08
00
00
3E
01
01
01
01
FF
81
81
83
7C
ENDCHAR
STARTCHAR 1EA4
ENCODING 7844
SWIDTH 668 0
DWIDTH 13 0
BBX 13 18 0 0
BITMAP
0020
0040
0700
0000
0200
0600
0500
0900
0880
0880
1040
1040
2020
2020
5FD0
4010
8008
8000
ENDCHAR
STARTCHAR 1EA5
ENCODING 7845
SWIDTH 565 0
DWIDTH 11 0
BBX 8 15 1 0
BITMAP
01
02
3C
00
00
3E
01
01
01
01
FF
81
81
83
7C
ENDCHAR
STARTCHAR 1EA6
ENCODING 7846
SWIDTH 668 0
DWIDTH 13 0
BBX 13 18 0 0
BITMAP
0100
0080
0700
0000
0200
0600
0500
0900
0880
0880
1040
1040
2020
2020
5FD0
4010
8008
8000
ENDCHAR
STARTCHAR 1EA7
ENCODING 7847
SWIDTH 565 0
DWIDTH 11 0
BBX 8 15 1 0
BITMAP
04
02
3C
00
00
3E
01
01
01
01
FF
81
81
83
7C
ENDCHAR
STARTCHAR 1EA8
ENCODING 7848
SWIDTH 668 0
DWIDTH 13 0
BBX 13 18 0 0
BITMAP
0040
0080
0700
0000
0200
0600
0500
0900
0880
0880
1040
1040
2020
2020
5FD0
4010
8008
8000
ENDCHAR
STARTCHAR 1EA9
ENCODING 7849
SWIDTH 565 0
DWIDTH 11 0
BBX 8 15 1 0
BITMAP
02
02
3C
00
00
3E
01
01
01
01
FF
81
81
83
7C
ENDCHAR
STARTCHAR 1EAA
ENCODING 7850
SWIDTH 668 0
DWIDTH 13 0
BBX 13 18 0 0
BITMAP
0E00
0100
0700
0000
0200
0600
0500
0900
0880
0880
1040
1040
2020
2020
5FD0
4010
8008
8000
ENDCHAR
STARTCHAR 1EAB
ENCODING 7851
SWIDTH 565 0
DWIDTH 11 0
BBX 8 15 1 0
BITMAP
1A
04
3C
00
00
3E
01
01
01
01
FF
81
81
83
7C
ENDCHAR
STARTCHAR 1EAC
ENCODING 7852
SWIDTH 668 0
DWIDTH 13 0
BBX 13 20 0 -3
BITMAP
0200
0D80
0000
0200
0600
0500
0900
0880
0880
1040
1040
2020
2020
5FD0
4010
8008
8000
0000
0000
0200
ENDCHAR
STARTCHAR 1EAD
ENCODING 7853
SWIDTH 565 0
DWIDTH 11 0
BBX 8 17 1 -3
BITMAP
08
34
00
00
3E
01
01
01
01
FF
81
81
83
44
38
00
08
ENDCHAR
STARTCHAR 1EAE
ENCODING 7854
SWIDTH 668 0
DWIDTH 13 0
BBX 13 19 0 0
BITMAP
0080
0100
0000
0880
0700
0200
0600
0500
0900
0880
0880
1040
1040
2020
2020
5FD0
4010
8008
8000
ENDCHAR
STARTCHAR 1EAF
ENCODING 7855
SWIDTH 565 0
DWIDTH 11 0
BBX 8 16 1 0
BITMAP
02
0C
00
24
18
00
3E
01
01
01
01
FF
81
81
83
7C
ENDCHAR
STARTCHAR 1EB0
ENCODING 7856
SWIDTH 668 0
DWIDTH 13 0
BBX 13 19 0 0
BITMAP
0800
0400
0200
0880
0700
0200
0600
0500
0900
0880
0880
1040
1040
2020
2020
5FD0
4010
8008
8000
ENDCHAR
STARTCHAR 1EB1
ENCODING 7857
SWIDTH 565 0
DWIDTH 11 0
BBX 8 16 1 0
BITMAP
20
10
08
24
18
00
3E
01
01
01
01
FF
81
81
83
7C
ENDCHAR
STARTCHAR 1EB2
ENCODING 7858
SWIDTH 668 0
DWIDTH 13 0
BBX 13 19 0 0
BITMAP
0200
0100
0000
0880
0700
0200
0600
0500
0900
0880
0880
1040
1040
2020
2020
5FD0
4010
8008
8000
ENDCHAR
STARTCHAR 1EB3
ENCODING 7859
SWIDTH 565 0
DWIDTH 11 0
BBX 8 16 1 0
BITMAP
08
08
08
24
18
00
3E
01
01
01
01
FF
81
81
83
7C
ENDCHAR
STARTCHAR 1EB4
ENCODING 7860
SWIDTH 668 0
DWIDTH 13 0
BBX 13 18 0 0
BITMAP
0E00
0100
0880
0700
0200
0600
0500
0900
0880
0880
1040
1040
2020
2020
5FD0
4010
8008
8000
ENDCHAR
STARTCHAR 1EB5
ENCODING 7861
SWIDTH 565 0
DWIDTH 11 0
BBX 8 15 1 0
BITMAP
1A
04
24
18
00
3E
01
01
01
01
FF
81
81
83
7C
ENDCHAR
STARTCHAR 1EB6
ENCODING 7862
SWIDTH 668 0
DWIDTH 13 0
BBX 13 20 0 -3
BITMAP
0800
0880
0700
0200
0600
0500
0900
0880
0880
1040
1040
2020
2020
5FD0
4010
8008
8000
0000
0000
0200
ENDCHAR
STARTCHAR 1EB7
ENCODING 7863
SWIDTH 565 0
DWIDTH 11 0
BBX 8 17 1 -3
BITMAP
02
24
18
00
3E
01
01
01
01
FF
81
81
83
44
38
00
08
ENDCHAR
STARTCHAR 1EB8
ENCODING 7864
SWIDTH 617 0
DWIDTH 12 0
BBX 8 17 3 -3
BITMAP
FF
80
80
80
80
80
80
FC
80
80
80
80
80
00
FF
00
08
ENDCHAR
STARTCHAR 1EB9
ENCODING 7865
SWIDTH 565 0
DWIDTH 11 0
BBX 9 13 1 -3
BITMAP
3E00
4100
8080
8080
8000
FF80
8000
8000
4080
3300
0C00
0000
0800
ENDCHAR
STARTCHAR 1EBA
ENCODING 7866
SWIDTH 617 0
DWIDTH 12 0
BBX 8 18 3 0
BITMAP
18
08
00
00
FF
80
80
80
80
80
80
FC
80
80
80
80
80
FF
ENDCHAR
STARTCHAR 1EBB
ENCODING 7867
SWIDTH 565 0
DWIDTH 11 0
BBX 9 15 1 0
BITMAP
1C00
0400
0400
0000
0000
3E00
4100
8080
8080
8000
FF80
8000
8000
4080
3F00
ENDCHAR
STARTCHAR 1EBC
ENCODING 7868
SWIDTH 617 0
DWIDTH 12 0
BBX 8 17 3 0
BITMAP
22
5C
00
FF
80
80
80
80
80
80
FC
80
80
80
80
80
FF
ENDCHAR
STARTCHAR 1EBD
ENCODING 7869
SWIDTH 565 0
DWIDTH 11 0
BBX 9 14 1 0
BITMAP
1000
2E00
0000
0000
3E00
4100
8080
8080
8000
FF80
8000
8000
4080
3F00
ENDCHAR
STARTCHAR 1EBE
ENCODING 7870
SWIDTH 617 0
DWIDTH 12 0
BBX 8 18 3 0
BITMAP
01
02
38
04
FF
80
80
80
80
80
80
FC
80
80
80
80
80
FF
ENDCHAR
STARTCHAR 1EBF
ENCODING 7871
SWIDTH 565 0
DWIDTH 11 0
BBX 9 15 1 0
BITMAP
0180
0200
1C00
0000
0000
3E00
4100
8080
8080
8000
FF80
8000
8000
4080
3F00
ENDCHAR
STARTCHAR 1EC0
ENCODING 7872
SWIDTH 617 0
DWIDTH 12 0
BBX 8 18 3 0
BITMAP
08
06
38
04
FF
80
80
80
80
80
80
FC
80
80
80
80
80
FF
ENDCHAR
STARTCHAR 1EC1
ENCODING 7873
SWIDTH 565 0
DWIDTH 11 0
BBX 9 15 1 0
BITMAP
0400
0300
1C00
0000
0000
3E00
4100
8080
8080
8000
FF80
8000
8000
4080
3F00
ENDCHAR
STARTCHAR 1EC2
ENCODING 7874
SWIDTH 617 0
DWIDTH 12 0
BBX 8 18 3 0
BITMAP
02
02
38
04
FF
80
80
80
80
80
80
FC
80
80
80
80
80
FF
ENDCHAR
STARTCHAR 1EC3
ENCODING 7875
SWIDTH 565 0
DWIDTH 11 0
BBX 9 15 1 0
BITMAP
0100
0200
1C00
0000
0000
3E00
4100
8080
8080
8000
FF80
8000
8000
4080
3F00
ENDCHAR
STARTCHAR 1EC4
ENCODING 7876
SWIDTH 617 0
DWIDTH 12 0
BBX 8 18 3 0
BITMAP
70
0C
38
04
FF
80
80
80
80
80
80
FC
80
80
80
80
80
FF
ENDCHAR
STARTCHAR 1EC5
ENCODING 7877
SWIDTH 565 0
DWIDTH 11 0
BBX 9 15 1 0
BITMAP
3A00
0400
1C00
0000
0000
3E00
4100
8080
8080
8000
FF80
8000
8000
4080
3F00
ENDCHAR
STARTCHAR 1EC6
ENCODING 7878
SWIDTH 617 0
DWIDTH 12 0
BBX 8 20 3 -3
BITMAP
18
24
00
FF
80
80
80
80
80
80
FC
80
80
80
80
80
00
FF
00
08
ENDCHAR
STARTCHAR 1EC7
ENCODING 7879
SWIDTH 565 0
DWIDTH 11 0
BBX 9 17 1 -3
BITMAP
0C00
3200
0000
0000
3E00
4100
8080
8080
8000
FF80
8000
8000
4080
3300
0C00
0000
0800
ENDCHAR
STARTCHAR 1EC8
ENCODING 7880
SWIDTH 257 0
DWIDTH 5 0
BBX 3 17 1 0
BITMAP
E0
20
20
00
00
40
40
40
40
40
40
40
40
40
40
40
40
ENDCHAR
STARTCHAR 1EC9
ENCODING 7881
SWIDTH 205 0
DWIDTH 4 0
BBX 3 15 1 0
BITMAP
E0
20
20
00
00
40
40
40
40
40
40
40
40
40
40
ENDCHAR
STARTCHAR 1ECA
ENCODING 7882
SWIDTH 257 0
DWIDTH 5 0
BBX 1 12 2 -2
BITMAP
80
80
80
80
80
80
80
80
80
80
80
80
ENDCHAR
STARTCHAR 1ECB
ENCODING 7883
SWIDTH 205 0
DWIDTH 4 0
BBX 1 17 2 -3
BITMAP
80
00
00
00
80
80
80
80
80
80
80
80
80
80
00
00
80
ENDCHAR
STARTCHAR 1ECC
ENCODING 7884
SWIDTH 822 0
DWIDTH 16 0
BBX 14 15 1 -3
BITMAP
0780
1860
6010
4008
8004
8004
8004
8004
8004
8004
8008
4008
2010
1860
0780
ENDCHAR
STARTCHAR 1ECD
ENCODING 7885
SWIDTH 565 0
DWIDTH 11 0
BBX 10 11 1 -3
BITMAP
3E00
4180
8080
8040
8040
8040
8040
8080
4080
3300
0C00
ENDCHAR
STARTCHAR 1ECE
ENCODING 7886
SWIDTH 822 0
DWIDTH 16 0
BBX 14 18 1 0
BITMAP
0300
0080
0000
0000
0780
1860
6010
4008
8004
8004
8004
8004
8004
8004
8008
4008
2010
1FE0
ENDCHAR
STARTCHAR 1ECF
ENCODING 7887
SWIDTH 565 0
DWIDTH 11 0
BBX 10 15 1 0
BITMAP
0C00
0400
0400
0000
0000
3E00
4180
8080
8040
8040
8040
8040
8080
4080
3F00
ENDCHAR
STARTCHAR 1ED0
ENCODING 7888
SWIDTH 822 0
DWIDTH 16 0
BBX 14 18 1 0
BITMAP
0020
0040
0780
0000
0780
1860
6010
4008
8004
8004
8004
8004
8004
8004
8008
4008
2010
1FE0
ENDCHAR
STARTCHAR 1ED1
ENCODING 7889
SWIDTH 565 0
DWIDTH 11 0
BBX 10 15 1 0
BITMAP
0080
0100
1E00
0000
0000
3E00
4180
8080
8040
8040
8040
8040
8080
4080
3F00
ENDCHAR
STARTCHAR 1ED2
ENCODING 7890
SWIDTH 822 0
DWIDTH 16 0
BBX 14 18 1 0
BITMAP
0080
0040
0780
0000
0780
1860
6010
4008
8004
8004
8004
8004
8004
8004
8008
4008
2010
1FE0
ENDCHAR
STARTCHAR 1ED3
ENCODING 7891
SWIDTH 565 0
DWIDTH 11 0
BBX 10 15 1 0
BITMAP
0200
0100
1E00
0000
0000
3E00
4180
8080
8040
8040
8040
8040
8080
4080
3F00
ENDCHAR
STARTCHAR 1ED4
ENCODING 7892
SWIDTH 822 0
DWIDTH 16 0
BBX 14 18 1 0
BITMAP
0040
0040
0780
0000
0780
1860
6010
4008
8004
8004
8004
8004
8004
8004
8008
4008
2010
1FE0
ENDCHAR
STARTCHAR 1ED5
ENCODING 7893
SWIDTH 565 0
DWIDTH 11 0
BBX 10 15 1 0
BITMAP
0100
0100
1E00
0000
0000
3E00
4180
8080
8040
8040
8040
8040
8080
4080
3F00
ENDCHAR
STARTCHAR 1ED6
ENCODING 7894
SWIDTH 822 0
DWIDTH 16 0
BBX 14 18 1 0
BITMAP
0340
0080
0780
0000
0780
1860
6010
4008
8004
8004
8004
8004
8004
8004
8008
4008
2010
1FE0
ENDCHAR
STARTCHAR 1ED7
ENCODING 7895
SWIDTH 565 0
DWIDTH 11 0
BBX 10 15 1 0
BITMAP
3E00
0000
1E00
0000
0000
3E00
4180
8080
8040
8040
8040
8040
8080
4080
3F00
ENDCHAR
STARTCHAR 1ED8
ENCODING 7896
SWIDTH 822 0
DWIDTH 16 0
BBX 14 18 1 -3
BITMAP
0300
0480
0000
0780
1860
6010
4008
8004
8004
8004
8004
8004
8004
8008
4008
2010
1860
0780
ENDCHAR
STARTCHAR 1ED9
ENCODING 7897
SWIDTH 565 0
DWIDTH 11 0
BBX 10 15 1 -3
BITMAP
0C00
1200
0000
0000
3E00
4180
8080
8040
8040
8040
8040
8080
4080
3300
0C00
ENDCHAR
STARTCHAR 1EDA
ENCODING 7898
SWIDTH 822 0
DWIDTH 16 0
BBX 14 16 1 1
BITMAP
0184
0004
0788
1870
2010
4008
8004
8004
8004
8004
8004
8004
8008
4008
2010
1FE0
ENDCHAR
STARTCHAR 1EDB
ENCODING 7899
SWIDTH 565 0
DWIDTH 11 0
BBX 10 14 1 0
BITMAP
0200
0400
0040
0080
3F00
4180
8080
8040
8040
8040
8040
8080
4080
3F00
ENDCHAR
STARTCHAR 1EDC
ENCODING 7900
SWIDTH 822 0
DWIDTH 16 0
BBX 14 17 1 0
BITMAP
0400
0204
0004
0788
1870
2010
4008
8004
8004
8004
8004
8004
8004
8008
4008
2010
1FE0
ENDCHAR
STARTCHAR 1EDD
ENCODING 7901
SWIDTH 565 0
DWIDTH 11 0
BBX 10 14 1 0
BITMAP
1000
0800
0040
0080
3F00
4180
8080
8040
8040
8040
8040
8080
4080
3F00
ENDCHAR
STARTCHAR 1EDE
ENCODING 7902
SWIDTH 822 0
DWIDTH 16 0
BBX 14 18 1 0
BITMAP
0300
0080
0004
0004
0788
1870
2010
4008
8004
8004
8004
8004
8004
8004
8008
4008
2010
1FE0
ENDCHAR
STARTCHAR 1EDF
ENCODING 7903
SWIDTH 565 0
DWIDTH 11 0
BBX 10 15 1 0
BITMAP
0C00
0400
0400
0040
0080
3F00
4180
8080
8040
8040
8040
8040
8080
4080
3F00
ENDCHAR
STARTCHAR 1EE0
ENCODING 7904
SWIDTH 822 0
DWIDTH 16 0
BBX 14 17 1 0
BITMAP
0640
0184
0004
0788
1870
2010
4008
8004
8004
8004
8004
8004
8004
8008
4008
2010
1FE0
ENDCHAR
STARTCHAR 1EE1
ENCODING 7905
SWIDTH 565 0
DWIDTH 11 0
BBX 10 14 1 0
BITMAP
1900
2600
0040
0080
3F00
4180
8080
8040
8040
8040
8040
8080
4080
3F00
ENDCHAR
STARTCHAR 1EE2
ENCODING 7906
SWIDTH 822 0
DWIDTH 16 0
BBX 14 17 1 -3
BITMAP
0004
0004
0788
1870
2010
4008
8004
8004
8004
8004
8004
8004
8008
4008
2010
1860
0780
ENDCHAR
STARTCHAR 1EE3
ENCODING 7907
SWIDTH 565 0
DWIDTH 11 0
BBX 10 13 1 -2
BITMAP
0040
0080
3F00
4180
8080
8040
8040
8040
8040
8080
4080
3300
0C00
ENDCHAR
STARTCHAR 1EE4
ENCODING 7908
SWIDTH 771 0
DWIDTH 15 0
BBX 11 17 2 -3
BITMAP
8000
8020
8020
8020
8020
8020
8020
8020
8020
8020
8020
4040
4040
3180
0E00
0000
0400
ENDCHAR
STARTCHAR 1EE5
ENCODING 7909
SWIDTH 617 0
DWIDTH 12 0
BBX 9 13 2 -3
BITMAP
8080
8080
8080
8080
8080
8080
8080
8080
8180
6280
1C00
0000
0800
ENDCHAR
STARTCHAR 1EE6
ENCODING 7910
SWIDTH 771 0
DWIDTH 15 0
BBX 11 18 2 0
BITMAP
0E00
0200
0200
0000
8000
8020
8020
8020
8020
8020
8020
8020
8020
8020
8020
4040
4040
3F80
ENDCHAR
STARTCHAR 1EE7
ENCODING 7911
SWIDTH 617 0
DWIDTH 12 0
BBX 9 15 2 0
BITMAP
1C00
0400
0800
0000
0000
8080
8080
8080
8080
8080
8080
8080
8080
8180
7E80
ENDCHAR
STARTCHAR 1EE8
ENCODING 7912
SWIDTH 771 0
DWIDTH 15 0
BBX 13 17 2 0
BITMAP
0100
0608
0008
8010
8020
8020
8020
8020
8020
8020
8020
8020
8020
8020
4040
4040
3F80
ENDCHAR
STARTCHAR 1EE9
ENCODING 7913
SWIDTH 617 0
DWIDTH 12 0
BBX 10 13 2 1
BITMAP
0C00
0040
0000
80C0
8080
8080
8080
8080
8080
8080
8080
8180
7E80
ENDCHAR
STARTCHAR 1EEA
ENCODING 7914
SWIDTH 771 0
DWIDTH 15 0
BBX 13 16 2 1
BITMAP
0C08
0008
8010
8020
8020
8020
8020
8020
8020
8020
8020
8020
8020
4040
4040
3F80
ENDCHAR
STARTCHAR 1EEB
ENCODING 7915
SWIDTH 617 0
DWIDTH 12 0
BBX 10 14 2 0
BITMAP
2000
1000
0840
0000
80C0
8080
8080
8080
8080
8080
8080
8080
8180
7E80
ENDCHAR
STARTCHAR 1EEC
ENCODING 7916
SWIDTH 771 0
DWIDTH 15 0
BBX 13 18 2 0
BITMAP
0E00
0200
0208
0008
8010
8020
8020
8020
8020
8020
8020
8020
8020
8020
8020
4040
4040
3F80
ENDCHAR
STARTCHAR 1EED
ENCODING 7917
SWIDTH 617 0
DWIDTH 12 0
BBX 10 15 2 0
BITMAP
1C00
0400
0800
0040
0000
80C0
8080
8080
8080
8080
8080
8080
8080
8180
7E80
ENDCHAR
STARTCHAR 1EEE
ENCODING 7918
SWIDTH 771 0
DWIDTH 15 0
BBX 13 17 2 0
BITMAP
0800
1508
0208
8010
8020
8020
8020
8020
8020
8020
8020
8020
8020
8020
4040
4040
3F80
ENDCHAR
STARTCHAR 1EEF
ENCODING 7919
SWIDTH 617 0
DWIDTH 12 0
BBX 10 14 2 0
BITMAP
3000
0A00
0440
0000
80C0
8080
8080
8080
8080
8080
8080
8080
8180
7E80
ENDCHAR
STARTCHAR 1EF0
ENCODING 7920
SWIDTH 771 0
DWIDTH 15 0
BBX 13 19 2 -3
BITMAP
0008
0008
8010
8020
8020
8020
8020
8020
8020
8020
8020
8020
8020
4040
4040
3180
0E00
0000
0400
ENDCHAR
STARTCHAR 1EF1
ENCODING 7921
SWIDTH 617 0
DWIDTH 12 0
BBX 10 15 2 -2
BITMAP
0040
0000
80C0
8080
8080
8080
8080
8080
8080
8080
8180
6280
1C00
0000
0800
ENDCHAR
STARTCHAR 1EF2
ENCODING 7922
SWIDTH 565 0
DWIDTH 11 0
BBX 12 16 0 0
BITMAP
0800
0400
0000
8010
8020
4040
2040
2080
1080
1100
0A00
0600
0400
0400
0400
0400
ENDCHAR
STARTCHAR 1EF3
ENCODING 7923
SWIDTH 462 0
DWIDTH 9 0
BBX 9 17 0 -3
BITMAP
1800
0000
0000
8000
8080
4080
4100
2100
2200
1200
1400
1400
0800
0800
1000
1000
E000
ENDCHAR
STARTCHAR 1EF4
ENCODING 7924
SWIDTH 565 0
DWIDTH 11 0
BBX 12 13 0 -3
BITMAP
8010
8020
4040
2040
2080
1080
1100
0A00
0600
0400
0400
0400
0400
ENDCHAR
STARTCHAR 1EF5
ENCODING 7925
SWIDTH 462 0
DWIDTH 9 0
BBX 9 14 0 -4
BITMAP
8000
8080
4080
4100
2100
2200
1200
1400
1400
0800
0800
1000
1200
E000
ENDCHAR
STARTCHAR 1EF6
ENCODING 7926
SWIDTH 565 0
DWIDTH 11 0
BBX 12 17 0 0
BITMAP
0600
0200
0000
0000
8010
8020
4040
2040
2080
1080
1100
0A00
0600
0400
0400
0400
0400
ENDCHAR
STARTCHAR 1EF7
ENCODING 7927
SWIDTH 462 0
DWIDTH 9 0
BBX 9 19 0 -4
BITMAP
1C00
0400
0400
0000
0000
8000
8080
4080
4100
2100
2200
1200
1400
1400
0800
0800
1000
1000
E000
ENDCHAR
STARTCHAR 1EF8
ENCODING 7928
SWIDTH 565 0
DWIDTH 11 0
BBX 12 16 0 0
BITMAP
0880
1700
0000
8010
8020
4040
2040
2080
1080
1100
0A00
0600
0400
0400
0400
0400
ENDCHAR
STARTCHAR 1EF9
ENCODING 7929
SWIDTH 462 0
DWIDTH 9 0
BBX 9 18 0 -4
BITMAP
1000
2A00
0400
0000
8000
8080
4080
4100
2100
2200
1200
1400
1400
0800
0800
1000
1000
E000
ENDCHAR
STARTCHAR 2007
ENCODING 8199
SWIDTH 668 0
DWIDTH 13 0
BBX 0 0 0 0
BITMAP
ENDCHAR
STARTCHAR 2008
ENCODING 8200
SWIDTH 154 0
DWIDTH 3 0
BBX 0 0 0 0
BITMAP
ENDCHAR
STARTCHAR 2009
ENCODING 8201
SWIDTH 102 0
DWIDTH 2 0
BBX 0 0 0 0
BITMAP
ENDCHAR
STARTCHAR 200A
ENCODING 8202
SWIDTH 51 0
DWIDTH 1 0
BBX 0 0 0 0
BITMAP
ENDCHAR
STARTCHAR 200B
ENCODING 8203
SWIDTH 0 0
DWIDTH 0 0
BBX 0 0 0 0
BITMAP
ENDCHAR
STARTCHAR 2010
ENCODING 8208
SWIDTH 360 0
DWIDTH 7 0
BBX 3 1 2 5
BITMAP
E0
ENDCHAR
STARTCHAR 2012
ENCODING 8210
SWIDTH 668 0
DWIDTH 13 0
BBX 10 1 2 6
BITMAP
FFC0
ENDCHAR
STARTCHAR 2013
ENCODING 8211
SWIDTH 462 0
DWIDTH 9 0
BBX 8 1 1 5
BITMAP
FF
ENDCHAR
STARTCHAR 2014
ENCODING 8212
SWIDTH 977 0
DWIDTH 19 0
BBX 17 1 1 5
BITMAP
FFFF80
ENDCHAR
STARTCHAR 2015
ENCODING 8213
SWIDTH 977 0
DWIDTH 19 0
BBX 17 1 1 5
BITMAP
FFFF80
ENDCHAR
STARTCHAR 2018
ENCODING 8216
SWIDTH 154 0
DWIDTH 3 0
BBX 1 2 1 12
BITMAP
80
80
ENDCHAR
STARTCHAR 2019
ENCODING 8217
SWIDTH 154 0
DWIDTH 3 0
BBX 1 3 1 11
BITMAP
80
80
80
ENDCHAR
STARTCHAR 201A
ENCODING 8218
SWIDTH 154 0
DWIDTH 3 0
BBX 1 4 1 -3
BITMAP
80
80
80
80
ENDCHAR
STARTCHAR 201C
ENCODING 8220
SWIDTH 308 0
DWIDTH 6 0
BBX 4 3 1 11
BITMAP
10
A0
90
ENDCHAR
STARTCHAR 201D
ENCODING 8221
SWIDTH 308 0
DWIDTH 6 0
BBX 4 3 1 11
BITMAP
90
90
80
ENDCHAR
STARTCHAR 201E
ENCODING 8222
SWIDTH 308 0
DWIDTH 6 0
BBX 4 4 1 -3
BITMAP
90
90
A0
80
ENDCHAR
STARTCHAR 2020
ENCODING 8224
SWIDTH 514 0
DWIDTH 10 0
BBX 7 16 2 -3
BITMAP
20
20
20
20
20
FE
20
20
20
20
20
20
20
20
20
20
ENDCHAR
STARTCHAR 2021
ENCODING 8225
SWIDTH 514 0
DWIDTH 10 0
BBX 9 16 1 -3
BITMAP
1000
1000
1000
1000
1000
7F00
1000
1000
1000
1000
1000
FF80
1000
1000
1000
1000
ENDCHAR
STARTCHAR 2022
ENCODING 8226
SWIDTH 257 0
DWIDTH 5 0
BBX 1 2 2 4
BITMAP
80
80
ENDCHAR
STARTCHAR 2026
ENCODING 8230
SWIDTH 514 0
DWIDTH 10 0
BBX 9 1 1 0
BITMAP
8880
ENDCHAR
STARTCHAR 2030
ENCODING 8240
SWIDTH 1131 0
DWIDTH 22 0
BBX 20 14 1 0
BITMAP
301000
C82000
844000
844000
848000
850000
8A0000
72F9E0
048A10
090610
090610
110A10
208A10
2071E0
ENDCHAR
STARTCHAR 2032
ENCODING 8242
SWIDTH 154 0
DWIDTH 3 0
BBX 1 3 1 10
BITMAP
80
80
80
ENDCHAR
STARTCHAR 2033
ENCODING 8243
SWIDTH 308 0
DWIDTH 6 0
BBX 3 4 2 9
BITMAP
20
A0
A0
A0
ENDCHAR
STARTCHAR 2039
ENCODING 8249
SWIDTH 257 0
DWIDTH 5 0
BBX 3 6 1 2
BITMAP
20
40
80
80
40
20
ENDCHAR
STARTCHAR 203A
ENCODING 8250
SWIDTH 257 0
DWIDTH 5 0
BBX 3 6 1 2
BITMAP
80
40
20
20
40
80
ENDCHAR
STARTCHAR 2044
ENCODING 8260
SWIDTH 154 0
DWIDTH 3 0
BBX 9 12 -3 1
BITMAP
0080
0100
0200
0200
0400
0800
0800
1000
2000
2000
4000
8000
ENDCHAR
STARTCHAR 2052
ENCODING 8274
SWIDTH 462 0
DWIDTH 9 0
BBX 5 14 2 0
BITMAP
80
08
10
10
10
20
20
20
40
40
40
80
80
88
ENDCHAR
STARTCHAR 2070
ENCODING 8304
SWIDTH 411 0
DWIDTH 8 0
BBX 7 8 1 6
BITMAP
FC
84
84
82
82
84
84
78
ENDCHAR
STARTCHAR 2074
ENCODING 8308
SWIDTH 411 0
DWIDTH 8 0
BBX 6 8 1 6
BITMAP
10
20
40
88
88
7C
08
08
ENDCHAR
STARTCHAR 2075
ENCODING 8309
SWIDTH 411 0
DWIDTH 8 0
BBX 6 8 1 6
BITMAP
78
80
80
78
04
04
04
78
ENDCHAR
STARTCHAR 2076
ENCODING 8310
SWIDTH 411 0
DWIDTH 8 0
BBX 6 8 1 6
BITMAP
78
80
80
FC
84
84
84
78
ENDCHAR
STARTCHAR 2077
ENCODING 8311
SWIDTH 411 0
DWIDTH 8 0
BBX 6 8 1 6
BITMAP
FC
04
08
08
10
10
20
20
ENDCHAR
STARTCHAR 2078
ENCODING 8312
SWIDTH 411 0
DWIDTH 8 0
BBX 7 8 1 6
BITMAP
FC
84
84
78
C4
82
84
78
ENDCHAR
STARTCHAR 2079
ENCODING 8313
SWIDTH 411 0
DWIDTH 8 0
BBX 6 8 1 6
BITMAP
F8
84
84
8C
74
04
08
70
ENDCHAR
STARTCHAR 2080
ENCODING 8320
SWIDTH 411 0
DWIDTH 8 0
BBX 7 8 1 -2
BITMAP
78
84
84
82
82
84
84
78
ENDCHAR
STARTCHAR 2081
ENCODING 8321
SWIDTH 411 0
DWIDTH 8 0
BBX 3 8 3 -2
BITMAP
C0
40
40
40
40
40
40
E0
ENDCHAR
STARTCHAR 2082
ENCODING 8322
SWIDTH 411 0
DWIDTH 8 0
BBX 6 8 1 -2
BITMAP
F8
04
04
08
10
20
40
F8
ENDCHAR
STARTCHAR 2083
ENCODING 8323
SWIDTH 411 0
DWIDTH 8 0
BBX 5 8 2 -2
BITMAP
F0
30
20
60
18
08
08
F0
ENDCHAR
STARTCHAR 2084
ENCODING 8324
SWIDTH 411 0
DWIDTH 8 0
BBX 7 8 1 -2
BITMAP
10
20
40
48
88
FE
08
08
ENDCHAR
STARTCHAR 2085
ENCODING 8325
SWIDTH 411 0
DWIDTH 8 0
BBX 6 8 1 -2
BITMAP
78
80
80
80
7C
04
04
78
ENDCHAR
STARTCHAR 2086
ENCODING 8326
SWIDTH 411 0
DWIDTH 8 0
BBX 6 8 1 -2
BITMAP
78
80
80
B8
C4
84
84
78
ENDCHAR
STARTCHAR 2087
ENCODING 8327
SWIDTH 411 0
DWIDTH 8 0
BBX 6 8 1 -2
BITMAP
FC
04
08
08
10
10
20
20
ENDCHAR
STARTCHAR 2088
ENCODING 8328
SWIDTH 411 0
DWIDTH 8 0
BBX 7 8 1 -2
BITMAP
FC
84
84
48
B4
82
84
78
ENDCHAR
STARTCHAR 2089
ENCODING 8329
SWIDTH 411 0
DWIDTH 8 0
BBX 6 8 1 -2
BITMAP
F8
84
84
8C
74
04
04
78
ENDCHAR
STARTCHAR 20A1
ENCODING 8353
SWIDTH 668 0
DWIDTH 13 0
BBX 12 17 1 -2
BITMAP
0120
0240
07C0
1A60
2240
4480
8480
8480
8480
8900
8900
8900
8A00
5200
3210
0A60
1580
ENDCHAR
STARTCHAR 20A3
ENCODING 8355
SWIDTH 617 0
DWIDTH 12 0
BBX 9 13 2 0
BITMAP
7F80
8000
8000
8000
8000
8000
8000
7F80
8000
8000
8000
F800
8000
ENDCHAR
STARTCHAR 20A4
ENCODING 8356
SWIDTH 617 0
DWIDTH 12 0
BBX 11 14 1 0
BITMAP
0700
18E0
2000
4000
4000
4000
7E00
4000
FF00
4000
4000
4000
4000
7F80
ENDCHAR
STARTCHAR 20A6
ENCODING 8358
SWIDTH 822 0
DWIDTH 16 0
BBX 15 14 1 0
BITMAP
0008
6008
5008
4808
4808
4408
7BFC
4108
FFFE
4088
4048
4028
4018
0008
ENDCHAR
STARTCHAR 20A7
ENCODING 8359
SWIDTH 1542 0
DWIDTH 30 0
BBX 27 14 3 0
BITMAP
FC000000
83000000
80840000
80840000
804F0FC0
80841000
80841000
80841000
81040C00
FE0403C0
80040020
80040020
80040040
0003CFC0
ENDCHAR
STARTCHAR 20A9
ENCODING 8361
SWIDTH 1080 0
DWIDTH 21 0
BBX 20 13 1 1
BITMAP
806010
80A020
80A020
409040
411040
3FFFE0
210880
FFFFF0
120880
140500
140500
0C0300
080200
ENDCHAR
STARTCHAR 20AB
ENCODING 8363
SWIDTH 668 0
DWIDTH 13 0
BBX 11 16 1 -2
BITMAP
0040
0040
03E0
0040
3E40
41C0
8040
8040
8040
8040
8040
8040
41C0
3240
0C00
7F80
ENDCHAR
STARTCHAR 20AC
ENCODING 8364
SWIDTH 771 0
DWIDTH 15 0
BBX 13 14 1 0
BITMAP
01C0
0E38
1000
2000
2000
4000
7F80
4000
FFC0
2000
2000
1000
0800
07F0
ENDCHAR
STARTCHAR 20AD
ENCODING 8365
SWIDTH 514 0
DWIDTH 10 0
BBX 9 14 2 0
BITMAP
0080
8100
8200
8400
8800
9000
A000
DC00
A000
9000
8800
8400
8200
0100
ENDCHAR
STARTCHAR 20AE
ENCODING 8366
SWIDTH 617 0
DWIDTH 12 0
BBX 11 14 1 0
BITMAP
FFE0
0400
0400
0400
0480
0700
0C00
3500
0600
1C00
6400
0400
0400
0400
ENDCHAR
STARTCHAR 20B1
ENCODING 8369
SWIDTH 771 0
DWIDTH 15 0
BBX 14 13 1 0
BITMAP
3F00
40C0
4020
FFFC
4010
4010
7FF8
4020
4040
5F80
4000
4000
4000
ENDCHAR
STARTCHAR 20B2
ENCODING 8370
SWIDTH 771 0
DWIDTH 15 0
BBX 12 18 1 -2
BITMAP
0200
0200
0380
1E60
2200
4200
8200
8200
8200
8210
8210
8210
8210
4210
2210
1E60
0380
0200
ENDCHAR
STARTCHAR 20B4
ENCODING 8372
SWIDTH 822 0
DWIDTH 16 0
BBX 12 14 2 0
BITMAP
0F00
3080
0040
0040
0040
0040
7FA0
0000
FFF0
0000
4000
4000
4040
3F80
ENDCHAR
STARTCHAR 20B5
ENCODING 8373
SWIDTH 668 0
DWIDTH 13 0
BBX 12 18 1 -2
BITMAP
0200
0200
0780
1A60
2200
4200
8200
8200
8200
8200
8200
8200
8200
4200
2210
1A60
0780
0200
ENDCHAR
STARTCHAR 20B8
ENCODING 8376
SWIDTH 668 0
DWIDTH 13 0
BBX 10 13 2 0
BITMAP
FFC0
0000
0000
7F80
0800
0800
0800
0800
0800
0800
0800
0800
0800
ENDCHAR
STARTCHAR 20B9
ENCODING 8377
SWIDTH 668 0
DWIDTH 13 0
BBX 13 13 0 0
BITMAP
FFF8
0080
0040
7FF0
0020
0020
0040
0080
0300
0D00
0100
0080
0040
ENDCHAR
STARTCHAR 20BA
ENCODING 8378
SWIDTH 617 0
DWIDTH 12 0
BBX 11 13 1 1
BITMAP
4000
4100
4600
5800
6200
4C00
7000
C020
4020
4040
4040
4080
5F00
ENDCHAR
STARTCHAR 20BC
ENCODING 8380
SWIDTH 874 0
DWIDTH 17 0
BBX 12 14 3 1
BITMAP
0400
0F00
34C0
4420
8420
8410
8410
8410
8410
8410
8410
8410
8010
8010
ENDCHAR
STARTCHAR 20BD
ENCODING 8381
SWIDTH 668 0
DWIDTH 13 0
BBX 11 13 2 0
BITMAP
7E00
8180
8040
8040
8020
8020
8040
8040
8080
BF00
8000
F800
8000
ENDCHAR
STARTCHAR 2113
ENCODING 8467
SWIDTH 411 0
DWIDTH 8 0
BBX 7 14 1 0
BITMAP
04
1A
22
22
22
24
28
50
60
40
C0
40
42
3C
ENDCHAR
STARTCHAR 2116
ENCODING 8470
SWIDTH 1182 0
DWIDTH 23 0
BBX 19 14 3 0
BITMAP
000180
804640
C04820
C04820
A04820
904440
884380
884000
8447C0
824000
814000
80C000
80C000
004000
ENDCHAR
STARTCHAR 2122
ENCODING 8482
SWIDTH 977 0
DWIDTH 19 0
BBX 17 8 0 6
BITMAP
FE8000
108180
10C180
10A280
10A480
109480
109880
108000
ENDCHAR
STARTCHAR 2126
ENCODING 8486
SWIDTH 874 0
DWIDTH 17 0
BBX 16 14 1 0
BITMAP
0380
0C70
3008
4004
4004
8002
8002
8002
8002
4004
4004
2008
1008
F83F
ENDCHAR
STARTCHAR 212A
ENCODING 8490
SWIDTH 668 0
DWIDTH 13 0
BBX 10 14 3 0
BITMAP
0040
8080
8100
8200
8400
8800
9000
B000
C800
8400
8200
8100
8080
0040
ENDCHAR
STARTCHAR 212B
ENCODING 8491
SWIDTH 668 0
DWIDTH 13 0
BBX 13 19 0 0
BITMAP
0300
0D00
0900
0700
0000
0200
0600
0500
0900
0880
0880
1040
1040
2020
2020
5FD0
4010
8008
8000
ENDCHAR
STARTCHAR 212E
ENCODING 8494
SWIDTH 874 0
DWIDTH 17 0
BBX 15 14 1 0
BITMAP
0380
0C70
3008
6004
6006
E006
E006
FFF8
E000
6000
6000
2004
1018
0FE0
ENDCHAR
STARTCHAR 2153
ENCODING 8531
SWIDTH 977 0
DWIDTH 19 0
BBX 16 14 2 0
BITMAP
E008
2010
2020
2020
2040
2080
209F
2102
5204
0208
0407
0801
0801
101F
ENDCHAR
STARTCHAR 2154
ENCODING 8532
SWIDTH 977 0
DWIDTH 19 0
BBX 17 14 1 0
BITMAP
700400
080800
041000
081000
082000
104000
604F80
808100
790200
010400
020380
040080
040080
080F80
ENDCHAR
STARTCHAR 215B
ENCODING 8539
SWIDTH 977 0
DWIDTH 19 0
BBX 17 14 2 0
BITMAP
E00800
201000
202000
202000
204000
208000
209F00
212080
522080
021100
042E80
082080
082080
101F00
ENDCHAR
STARTCHAR 215C
ENCODING 8540
SWIDTH 977 0
DWIDTH 19 0
BBX 18 14 1 0
BITMAP
FC0400
080800
101000
201000
182000
044000
044F80
049040
791040
010880
021740
041040
041040
080F80
ENDCHAR
STARTCHAR 215D
ENCODING 8541
SWIDTH 977 0
DWIDTH 19 0
BBX 18 14 1 0
BITMAP
7C0400
800800
801000
801000
782000
044000
044F80
849040
791040
010880
021740
041040
041040
080F80
ENDCHAR
STARTCHAR 215E
ENCODING 8542
SWIDTH 977 0
DWIDTH 19 0
BBX 18 14 1 0
BITMAP
FE0400
040800
041000
081000
082000
104000
204F80
009040
011040
010880
021740
041040
041040
080F80
ENDCHAR
STARTCHAR 2190
ENCODING 8592
SWIDTH 565 0
DWIDTH 11 0
BBX 7 6 2 3
BITMAP
20
40
80
BE
40
20
ENDCHAR
STARTCHAR 2191
ENCODING 8593
SWIDTH 565 0
DWIDTH 11 0
BBX 7 6 2 2
BITMAP
18
74
92
10
10
10
ENDCHAR
STARTCHAR 2192
ENCODING 8594
SWIDTH 565 0
DWIDTH 11 0
BBX 6 7 3 2
BITMAP
10
08
08
04
FC
08
10
ENDCHAR
STARTCHAR 2193
ENCODING 8595
SWIDTH 565 0
DWIDTH 11 0
BBX 6 7 3 2
BITMAP
20
20
20
20
A4
48
30
ENDCHAR
STARTCHAR 2194
ENCODING 8596
SWIDTH 565 0
DWIDTH 11 0
BBX 9 7 1 2
BITMAP
2000
4100
8080
8080
FF80
4100
4100
ENDCHAR
STARTCHAR 2195
ENCODING 8597
SWIDTH 565 0
DWIDTH 11 0
BBX 6 10 3 2
BITMAP
70
AC
20
20
20
20
20
A4
58
20
ENDCHAR
STARTCHAR 2196
ENCODING 8598
SWIDTH 565 0
DWIDTH 11 0
BBX 6 6 3 3
BITMAP
18
E0
C0
A0
10
0C
ENDCHAR
STARTCHAR 2197
ENCODING 8599
SWIDTH 565 0
DWIDTH 11 0
BBX 6 6 3 2
BITMAP
40
3C
1C
24
44
80
ENDCHAR
STARTCHAR 2198
ENCODING 8600
SWIDTH 565 0
DWIDTH 11 0
BBX 6 6 3 2
BITMAP
80
40
24
14
0C
78
ENDCHAR
STARTCHAR 2199
ENCODING 8601
SWIDTH 565 0
DWIDTH 11 0
BBX 5 6 3 2
BITMAP
08
90
A0
C0
80
78
ENDCHAR
STARTCHAR 2202
ENCODING 8706
SWIDTH 668 0
DWIDTH 13 0
BBX 10 14 2 0
BITMAP
3800
0600
0100
0080
0080
0040
7E40
8140
80C0
8040
8080
8080
8100
7E00
ENDCHAR
STARTCHAR 2205
ENCODING 8709
SWIDTH 514 0
DWIDTH 10 0
BBX 8 8 1 2
BITMAP
1D
62
85
89
91
61
42
BC
ENDCHAR
STARTCHAR 2206
ENCODING 8710
SWIDTH 668 0
DWIDTH 13 0
BBX 13 14 0 0
BITMAP
0200
0600
0500
0900
0880
0880
1040
1040
2020
2020
4010
4010
8008
FFF8
ENDCHAR
STARTCHAR 220F
ENCODING 8719
SWIDTH 771 0
DWIDTH 15 0
BBX 10 17 3 -4
BITMAP
FFC0
8040
8040
8040
8040
8040
8040
8040
8040
8040
8040
8040
8040
8040
8040
8040
8040
ENDCHAR
STARTCHAR 2211
ENCODING 8721
SWIDTH 617 0
DWIDTH 12 0
BBX 11 18 1 -4
BITMAP
FFE0
8000
4000
2000
1000
0800
0800
0400
0200
0200
0400
0800
0800
1000
2000
4000
8000
FFE0
ENDCHAR
STARTCHAR 2212
ENCODING 8722
SWIDTH 514 0
DWIDTH 10 0
BBX 6 1 2 6
BITMAP
FC
ENDCHAR
STARTCHAR 2215
ENCODING 8725
SWIDTH 257 0
DWIDTH 5 0
BBX 6 16 0 -1
BITMAP
04
08
08
08
10
10
10
20
20
20
40
40
40
80
80
80
ENDCHAR
STARTCHAR 2219
ENCODING 8729
SWIDTH 205 0
DWIDTH 4 0
BBX 1 1 2 6
BITMAP
80
ENDCHAR
STARTCHAR 221A
ENCODING 8730
SWIDTH 771 0
DWIDTH 15 0
BBX 13 18 2 -4
BITMAP
0008
0010
0010
0010
0020
0020
0020
C040
2040
2080
1080
1080
1100
0900
0900
0600
0600
0200
ENDCHAR
STARTCHAR 221E
ENCODING 8734
SWIDTH 874 0
DWIDTH 17 0
BBX 16 7 1 3
BITMAP
7C7C
8282
8101
8101
8282
8242
7C3C
ENDCHAR
STARTCHAR 222B
ENCODING 8747
SWIDTH 308 0
DWIDTH 6 0
BBX 7 18 0 -4
BITMAP
1E
10
10
10
10
10
10
10
10
10
10
10
10
10
10
10
20
E0
ENDCHAR
STARTCHAR 2248
ENCODING 8776
SWIDTH 514 0
DWIDTH 10 0
BBX 9 7 1 3
BITMAP
F000
8900
0600
0000
7080
8900
8600
ENDCHAR
STARTCHAR 2260
ENCODING 8800
SWIDTH 514 0
DWIDTH 10 0
BBX 8 8 1 3
BITMAP
02
04
7E
08
10
10
FF
20
ENDCHAR
STARTCHAR 2264
ENCODING 8804
SWIDTH 514 0
DWIDTH 10 0
BBX 6 10 2 0
BITMAP
04
18
60
80
60
18
04
00
00
FC
ENDCHAR
STARTCHAR 2265
ENCODING 8805
SWIDTH 514 0
DWIDTH 10 0
BBX 8 10 1 0
BITMAP
40
38
06
01
06
38
C0
00
00
7E
ENDCHAR
STARTCHAR 25A0
ENCODING 9632
SWIDTH 565 0
DWIDTH 11 0
BBX 8 8 2 1
BITMAP
FF
FF
FF
FF
FF
FF
FF
FF
ENDCHAR
STARTCHAR 25A1
ENCODING 9633
SWIDTH 565 0
DWIDTH 11 0
BBX 8 8 2 1
BITMAP
FF
81
81
81
81
81
81
FF
ENDCHAR
STARTCHAR 25B2
ENCODING 9650
SWIDTH 565 0
DWIDTH 11 0
BBX 8 8 2 1
BITMAP
10
18
38
3C
7C
7E
FE
FF
ENDCHAR
STARTCHAR 25B3
ENCODING 9651
SWIDTH 565 0
DWIDTH 11 0
BBX 8 8 2 1
BITMAP
10
28
28
44
44
82
82
FF
ENDCHAR
STARTCHAR 25B6
ENCODING 9654
SWIDTH 565 0
DWIDTH 11 0
BBX 8 8 2 1
BITMAP
C0
F0
FC
FF
FE
F8
E0
80
ENDCHAR
STARTCHAR 25B7
ENCODING 9655
SWIDTH 565 0
DWIDTH 11 0
BBX 8 8 2 1
BITMAP
C0
B0
8C
83
82
8C
B0
C0
ENDCHAR
STARTCHAR 25BC
ENCODING 9660
SWIDTH 565 0
DWIDTH 11 0
BBX 8 7 2 1
BITMAP
FF
7E
7E
3C
3C
18
18
ENDCHAR
STARTCHAR 25BD
ENCODING 9661
SWIDTH 565 0
DWIDTH 11 0
BBX 8 7 2 1
BITMAP
FF
82
42
44
24
28
18
ENDCHAR
STARTCHAR 25C0
ENCODING 9664
SWIDTH 565 0
DWIDTH 11 0
BBX 7 8 2 1
BITMAP
02
0E
3E
FE
FE
3E
0E
02
ENDCHAR
STARTCHAR 25C1
ENCODING 9665
SWIDTH 565 0
DWIDTH 11 0
BBX 7 8 2 1
BITMAP
02
0E
32
C2
82
62
1A
06
ENDCHAR
STARTCHAR 25C6
ENCODING 9670
SWIDTH 565 0
DWIDTH 11 0
BBX 10 10 1 1
BITMAP
0C00
1E00
3F00
7F80
FFC0
FFC0
7F80
3F00
1E00
0C00
ENDCHAR
STARTCHAR 25C7
ENCODING 9671
SWIDTH 565 0
DWIDTH 11 0
BBX 11 10 0 1
BITMAP
0E00
1100
2080
4040
8020
4020
2040
1080
0900
0600
ENDCHAR
STARTCHAR 25CA
ENCODING 9674
SWIDTH 462 0
DWIDTH 9 0
BBX 8 11 1 1
BITMAP
10
28
24
44
82
81
82
44
44
28
10
ENDCHAR
STARTCHAR 27E8
ENCODING 10216
SWIDTH 257 0
DWIDTH 5 0
BBX 3 16 1 -3
BITMAP
20
20
40
40
40
80
80
80
80
80
80
40
40
40
20
20
ENDCHAR
STARTCHAR 27E9
ENCODING 10217
SWIDTH 257 0
DWIDTH 5 0
BBX 4 17 1 -3
BITMAP
80
40
40
40
20
20
20
10
20
20
20
40
40
40
80
80
80
ENDCHAR
STARTCHAR A78B
ENCODING 42891
SWIDTH 205 0
DWIDTH 4 0
BBX 1 6 2 7
BITMAP
80
80
80
80
80
80
ENDCHAR
STARTCHAR A78C
ENCODING 42892
SWIDTH 205 0
DWIDTH 4 0
BBX 1 4 2 7
BITMAP
80
80
80
80
ENDCHAR
STARTCHAR FB01
ENCODING 64257
SWIDTH 514 0
DWIDTH 10 0
BBX 8 14 1 0
BITMAP
7D
40
40
40
F1
41
41
41
41
41
41
41
41
41
ENDCHAR
STARTCHAR FB02
ENCODING 64258
SWIDTH 514 0
DWIDTH 10 0
BBX 8 14 1 0
BITMAP
7D
41
41
41
F1
41
41
41
41
41
41
41
41
41
ENDCHAR
ENDFONT
